<svg width="86" height="85" viewBox="0 0 86 85" fill="none" xmlns="http://www.w3.org/2000/svg">
<path d="M8.90811 0C10.0002 0 11.0316 0 12.1237 0C12.8517 0.485368 13.6404 0.910064 14.2472 1.51677C14.6112 1.8808 14.8539 2.06281 15.3999 2.06281C27.9588 2.06281 40.457 2.06281 53.0159 2.06281C58.4763 2.06281 63.9366 2.06281 69.397 2.06281C69.6397 2.06281 70.0037 2.06281 70.1251 1.8808C70.7318 0.970735 71.5812 0.424697 72.5519 0C73.644 0 74.6754 0 75.7675 0C77.1629 0.546038 78.255 1.39543 78.619 2.9122C78.7404 3.39757 78.6797 3.88294 78.7403 4.42898C79.4077 4.42898 80.0144 4.36831 80.6818 4.42898C81.4705 4.48965 82.2593 4.55032 82.9267 4.85368C84.2007 5.39971 84.8074 6.55246 85.1108 7.82655C85.1108 8.25125 85.1108 8.67595 85.1108 9.16131C84.0187 11.8915 83.23 12.4982 80.1358 12.4982C79.6504 12.4982 79.1651 12.4982 78.6797 12.4982C78.6797 12.8016 78.6797 12.9836 78.6797 13.1656C78.6797 15.2891 77.1022 16.8665 74.9788 16.9272C74.6147 16.9272 74.19 16.9272 73.826 16.9272C72.3092 16.9879 71.0958 16.4418 70.2464 15.1677C70.1251 14.9857 69.8217 14.9251 69.5184 14.743C69.5184 22.1449 69.5184 29.3041 69.5184 36.5239C70.9138 35.9779 71.2778 36.0992 72.0666 37.3126C76.6775 45.0785 78.073 53.3904 76.4955 62.2484C76.4349 62.6731 76.0708 63.1585 75.7675 63.4011C74.4934 64.4325 73.1586 65.4639 71.8845 66.4347C70.6105 67.4054 69.1544 67.1627 68.1836 65.8886C67.8803 65.4639 67.5769 64.9786 67.2129 64.4325C66.5455 65.0999 65.9995 65.7066 65.3927 66.2527C64.9681 66.6167 64.9074 66.9807 64.9074 67.5268C65.0894 69.0435 64.604 70.3176 63.3906 71.2884C62.7839 71.7737 61.9952 72.0771 61.2065 72.4411C61.3278 73.8972 60.8424 75.232 59.6897 76.2634C58.4763 77.2948 57.0808 77.4768 55.5034 77.1734C55.2607 78.5082 54.654 79.5396 53.6226 80.3283C52.5305 81.117 51.2564 81.1171 50.225 80.9957C49.7396 81.9058 49.4363 82.8158 48.8296 83.3619C48.1622 83.9686 47.2521 84.3326 46.4634 84.7573C45.9174 84.7573 45.3713 84.7573 44.886 84.7573C42.8232 83.5439 40.6997 82.3305 38.5762 81.0564C38.0302 81.4811 37.3628 82.0271 36.6347 82.5125C34.9359 83.7866 32.6911 83.4832 31.417 81.8451C31.1137 81.4811 30.9317 81.0564 30.7496 80.6924C29.5362 80.935 28.4442 80.8744 27.4127 80.207C26.3813 79.5396 25.9566 78.5082 25.7746 77.3555C23.2871 77.1128 22.013 75.96 21.3457 73.4118C18.3121 73.7152 15.8853 70.621 17.8267 67.3447C17.5841 67.1627 17.3414 66.9807 17.1594 66.7987C16.7953 66.374 16.4313 66.3133 15.9459 66.6774C15.1572 67.1627 14.3078 67.0414 13.5191 66.6167C12.245 65.8886 10.9102 65.2213 9.69683 64.4325C9.33281 64.1899 8.96878 63.7045 8.84744 63.2798C7.69469 58.9115 7.51268 54.4218 8.24073 49.9322C8.96878 45.1392 10.6069 40.7102 13.0944 36.5846C13.5798 35.7959 14.2472 35.6745 15.0359 36.0992C15.1572 36.1599 15.3392 36.2206 15.5212 36.3419C15.5212 29.1221 15.5212 21.9629 15.5212 14.561C15.1572 14.8644 14.8539 14.9857 14.7325 15.1677C14.0651 16.1385 13.1551 16.7452 11.9417 16.8059C11.2136 16.8665 10.4249 16.8665 9.69683 16.8059C8.18006 16.6845 6.8453 15.5924 6.48127 14.0757C6.35993 13.5296 6.29926 12.9836 6.23859 12.3769C5.57121 12.3769 4.9645 12.3769 4.29712 12.3769C1.32424 12.3769 -0.313873 10.5567 0.050153 7.64454C0.232166 5.94575 1.68827 4.55032 3.38705 4.42898C4.35779 4.36831 5.32852 4.42898 6.11725 4.42898C6.4206 3.45824 6.54194 2.54818 6.90597 1.82013C6.96664 0.849393 7.93737 0.424697 8.90811 0ZM18.1908 14.8644C18.1908 15.1071 18.1301 15.3497 18.1301 15.5318C18.1301 23.055 18.1301 30.6388 18.1301 38.162C18.1301 38.4654 18.3728 38.8901 18.6155 39.1328C21.467 41.3169 24.3185 43.5011 27.1701 45.6852C28.0801 46.3526 28.4442 47.202 28.2621 48.3547C28.2621 48.4761 28.2621 48.5974 28.2621 48.7794C32.0237 48.7794 35.7853 48.7794 39.4863 48.7794C40.2143 48.7794 40.8817 48.7188 41.5491 48.2941C41.9738 47.9907 42.5198 47.8694 43.0658 47.748C45.4927 47.2627 47.8588 47.384 50.1643 48.4154C51.1958 48.9008 52.2272 49.3255 53.3192 49.7502C53.5013 49.8108 53.6833 49.9322 53.8653 49.8715C54.836 49.6288 55.8067 49.3255 56.7775 49.0828C56.3528 47.384 56.5955 46.5346 57.6875 45.6852C60.4177 43.5617 63.2086 41.4383 65.9388 39.3754C66.3635 39.0721 66.5455 38.7687 66.5455 38.162C66.5455 30.6388 66.5455 23.1156 66.5455 15.5924C66.5455 15.3497 66.5455 15.1071 66.5455 14.8644C50.407 14.8644 34.3292 14.8644 18.1908 14.8644ZM40.5177 79.2969C41.9131 80.207 43.2479 81.1171 44.6433 82.0271C44.8253 82.1485 45.068 82.2091 45.3107 82.2698C46.1601 82.3911 46.8881 82.0271 47.2521 81.2384C47.6162 80.5103 47.4948 79.7216 46.8274 79.1149C46.0994 78.5082 45.3107 77.9622 44.5219 77.3555C43.7332 76.8094 43.4905 76.0207 43.9759 75.3533C44.4613 74.6859 45.1893 74.6859 46.0387 75.232C47.3735 76.142 48.6476 77.1734 50.043 78.0228C50.4677 78.2655 51.0137 78.4475 51.4991 78.4475C52.2878 78.3868 52.7732 77.9015 52.9552 77.1128C53.1979 76.2634 52.8339 75.5353 52.0451 74.9893C50.1643 73.6545 48.2229 72.3804 46.3421 71.0457C46.0387 70.8637 45.796 70.4996 45.6747 70.1356C45.4927 69.5896 45.6747 69.1042 46.1601 68.8008C46.7061 68.4975 47.1915 68.4975 47.7375 68.8615C50.3464 70.6816 52.9552 72.4411 55.5641 74.2612C56.5955 74.9893 57.6269 74.8679 58.2943 73.8972C58.901 73.0478 58.6583 71.9557 57.6269 71.2884C55.1394 69.5896 52.6519 67.8908 50.225 66.1313C49.9823 66.01 49.679 65.828 49.6183 65.646C49.497 65.2213 49.315 64.6752 49.497 64.3112C49.6183 64.0078 50.1643 63.7045 50.589 63.6438C50.9531 63.5831 51.3778 63.8258 51.6811 64.0685C54.2293 65.828 56.7775 67.5874 59.3257 69.3469C60.2964 70.0143 61.3885 69.8323 61.9952 68.9222C62.6019 68.0121 62.3592 66.9201 61.3278 66.3133C56.3528 63.0978 51.3778 59.9429 46.4027 56.788C46.1601 56.6667 45.796 56.606 45.5534 56.6667C43.6726 57.3947 41.7918 57.6374 39.7896 57.5161C37.2414 57.334 35.664 55.2106 36.3314 52.9051C36.5134 52.359 36.8167 51.813 37.1201 51.2669C36.8774 51.2669 36.6954 51.2669 36.4527 51.2669C33.3585 51.2669 30.2643 51.2669 27.2307 51.2669C26.6847 51.2669 26.3813 51.449 26.1387 51.8737C23.5298 55.7566 20.9816 59.6395 18.3728 63.5831C18.2514 63.8258 18.0694 64.0078 17.9481 64.3112C18.5548 64.7966 19.1615 65.2819 19.8289 65.7673C20.4963 65.2819 21.103 64.7966 21.7097 64.3112C23.2265 63.2191 25.3499 63.4011 26.624 64.7966C26.988 65.1606 27.2307 65.646 27.5341 66.0707C30.4463 64.6752 33.6618 66.3133 34.0865 69.7109C36.5741 70.0749 37.4235 70.9243 37.9695 73.4725C40.5783 74.1399 41.7918 76.8094 40.5177 79.2969ZM15.0359 4.97502C15.0359 7.0985 15.0965 9.16131 15.0359 11.2241C15.0359 11.8915 15.2786 12.0735 15.8853 12.0735C33.5405 12.0735 51.1351 12.0735 68.7903 12.0735C69.033 12.0735 69.2757 12.0735 69.579 12.0735C69.579 9.64668 69.579 7.34118 69.579 4.97502C51.4384 4.97502 33.2978 4.97502 15.0359 4.97502ZM14.9752 39.7395C14.2472 39.7395 13.8225 40.0428 13.4584 40.8315C10.3642 47.3233 9.27213 54.1185 10.5462 61.217C10.6676 61.8844 10.9709 62.4304 11.6383 62.7338C12.3057 63.0371 12.9124 63.4618 13.5191 63.8258C14.3078 64.2505 14.9145 64.1292 15.3999 63.3405C18.6155 58.5475 21.831 53.6938 25.0466 48.9008C25.5926 48.1121 25.4713 47.566 24.7432 46.9593C21.7703 44.6538 18.7368 42.3483 15.7033 40.1035C15.3999 39.9822 15.0965 39.8608 14.9752 39.7395ZM74.7967 56.06C74.6147 54.1792 74.4934 52.359 74.2507 50.5996C73.7653 47.1413 72.6733 43.8044 71.1565 40.6495C70.7318 39.7395 69.8824 39.5575 69.033 40.1642C66.0601 42.4697 63.1479 44.7145 60.175 47.02C59.3863 47.6267 59.3257 48.2334 59.8717 49.0221C59.993 49.2041 60.1144 49.4468 60.2964 49.6288C63.2693 54.1185 66.3028 58.6081 69.2757 63.0978C69.9431 64.1292 70.5498 64.2505 71.5812 63.5225C72.1879 63.0978 72.8553 62.7338 73.4013 62.1877C73.7653 61.8844 74.1294 61.399 74.19 60.9136C74.4934 59.3362 74.6147 57.6374 74.7967 56.06ZM63.3906 64.6752C63.9973 64.0078 64.7254 63.3405 65.3321 62.6124C65.4534 62.4911 65.4534 62.127 65.3321 61.945C63.0873 58.5475 60.7818 55.1499 58.5369 51.7523C58.4156 51.5703 58.0516 51.449 57.8696 51.5096C56.6561 51.813 55.4427 52.177 54.2293 52.4804C53.8046 52.6017 53.2586 52.541 52.8339 52.4197C51.6204 51.9343 50.407 51.449 49.2543 50.9029C47.7982 50.2355 46.2814 50.0535 44.704 50.2355C43.8546 50.2962 43.0052 50.5996 42.2771 51.0243C41.3064 51.5703 40.3963 52.4197 39.4863 53.0264C39.0009 53.3904 38.6369 53.7545 38.8189 54.3005C38.9402 54.9072 39.4256 55.0892 40.0323 55.1499C41.9131 55.3319 43.6726 54.9679 45.3713 54.1185C45.9174 53.8151 46.4634 53.8758 46.9488 54.1792C52.3485 57.6374 57.8696 61.0956 63.3906 64.6752ZM12.1843 8.49393C12.1843 7.0985 12.1843 5.70307 12.1843 4.24697C12.1843 3.09422 11.881 2.79086 10.7282 2.79086C10.5462 2.79086 10.3642 2.79086 10.1215 2.79086C9.15079 2.85153 8.84744 3.15489 8.84744 4.12562C8.84744 6.79515 8.84744 9.404 8.84744 12.0735C8.84744 14.0757 8.90811 14.1363 10.9103 14.1363C11.8203 14.1363 12.1843 13.7723 12.1843 12.8622C12.245 11.4061 12.1843 9.95003 12.1843 8.49393ZM72.4912 8.49393C72.4912 10.0107 72.4912 11.5275 72.4912 12.9836C72.4912 13.7116 72.7946 14.015 73.5227 14.0757C73.7653 14.0757 74.008 14.0757 74.2507 14.0757C75.5248 14.0757 75.8281 13.833 75.8281 12.5589C75.8281 9.95003 75.8281 7.34118 75.8281 4.73233C75.8281 2.9122 75.6461 2.73019 73.826 2.79086C73.7653 2.79086 73.7047 2.79086 73.5833 2.79086C72.7946 2.85153 72.4912 3.15489 72.4912 4.00428C72.4912 5.52106 72.4912 7.03783 72.4912 8.49393ZM25.8353 74.8679C25.9566 74.8073 26.3207 74.8073 26.5634 74.6253C27.9588 73.5939 29.4149 72.5018 30.7496 71.4097C31.4777 70.803 31.5384 69.7109 30.9317 68.9829C30.325 68.2548 29.2935 68.0121 28.5048 68.5582C27.1094 69.5896 25.714 70.6816 24.3792 71.7737C23.7725 72.2591 23.6511 73.0478 23.8938 73.7759C24.1972 74.4432 24.8646 74.8679 25.8353 74.8679ZM29.2329 78.5082C29.5969 78.3869 29.8396 78.3262 30.0216 78.2048C31.599 76.9914 33.2372 75.778 34.7539 74.5039C35.2393 74.0792 35.3 73.4118 34.9359 72.9265C34.5719 72.4411 33.9045 72.2591 33.3585 72.6231C31.7204 73.8365 30.0823 75.1106 28.5048 76.4454C28.2621 76.6881 28.2015 77.2948 28.3228 77.7195C28.4442 78.0228 28.9295 78.2655 29.2329 78.5082ZM38.6369 77.2948C38.3335 76.9308 38.0908 76.4454 37.7875 76.324C37.4234 76.2027 36.8774 76.2634 36.5134 76.4454C35.482 77.1128 34.5719 77.9015 33.6012 78.6902C32.9945 79.1756 32.8731 79.843 33.2978 80.389C33.7225 80.935 34.3899 80.9957 34.9966 80.5103C35.9673 79.7823 36.9381 79.0542 37.9088 78.2655C38.2122 78.0835 38.3942 77.6588 38.6369 77.2948ZM25.1073 67.4054C24.8039 67.0414 24.6219 66.556 24.3185 66.4347C23.9545 66.3133 23.4085 66.3133 23.1051 66.4954C22.013 67.2234 20.9816 68.0728 19.9502 68.9222C19.4042 69.4076 19.3435 70.0143 19.7682 70.4996C20.1929 71.0457 20.8603 71.167 21.4063 70.6816C22.4377 69.9536 23.4085 69.1649 24.3792 68.3762C24.6826 68.1941 24.8646 67.8301 25.1073 67.4054ZM78.6797 9.58601C79.5898 9.58601 80.4391 9.58601 81.2279 9.58601C81.8346 9.58601 82.1379 9.16131 82.1379 8.5546C82.1986 7.94789 82.0166 7.40185 81.4099 7.34118C80.4998 7.28051 79.5898 7.34118 78.6797 7.34118C78.6797 8.12991 78.6797 8.85796 78.6797 9.58601ZM5.9959 7.34118C5.08584 7.34118 4.29712 7.34118 3.44773 7.34118C2.84102 7.34118 2.53766 7.76588 2.53766 8.37259C2.47699 8.9793 2.71967 9.52534 3.32638 9.58601C4.23645 9.70735 5.14651 9.58601 6.05658 9.58601C5.9959 8.79729 5.9959 8.12991 5.9959 7.34118Z" fill="#243247"/>
<path d="M40.6391 29.2431C35.8461 29.2431 31.0531 29.2431 26.3207 29.2431C25.2287 29.2431 24.6219 28.6971 24.6826 27.787C24.6826 27.059 25.0466 26.6343 25.714 26.5129C26.0174 26.4523 26.3207 26.3916 26.6241 26.3916C35.9674 26.3916 45.3714 26.3916 54.7147 26.3916C54.8967 26.3916 55.0788 26.3916 55.2001 26.3916C56.1708 26.5129 56.7169 27.059 56.6562 27.969C56.5955 28.7578 55.9888 29.2431 55.0181 29.3038C52.7126 29.3038 50.4678 29.3038 48.1623 29.3038C45.6748 29.2431 43.1873 29.2431 40.6391 29.2431Z" fill="#243247"/>
<path d="M40.6999 42.0449C35.8462 42.0449 31.0532 42.0449 26.1995 42.0449C25.1681 42.0449 24.5614 41.4382 24.6221 40.4675C24.6828 39.8001 25.0468 39.3754 25.7142 39.254C25.9568 39.1934 26.1995 39.1934 26.4422 39.1934C35.9069 39.1934 45.4322 39.1934 54.8969 39.1934C56.0496 39.1934 56.5957 39.6181 56.6563 40.4675C56.717 41.3775 56.171 41.9842 55.1396 41.9842C53.0768 41.9842 51.0746 41.9842 49.0118 41.9842C46.2816 42.0449 43.4907 42.0449 40.6999 42.0449Z" fill="#243247"/>
<path d="M40.6391 32.8838C45.4321 32.8838 50.2251 32.8838 55.0788 32.8838C56.1102 32.8838 56.6562 33.3692 56.6562 34.2792C56.6562 35.0679 56.1708 35.614 55.3821 35.6747C55.2608 35.6747 55.2001 35.6747 55.0788 35.6747C45.4321 35.6747 35.7854 35.6747 26.1387 35.6747C25.2893 35.6747 24.7433 35.1893 24.622 34.5219C24.5006 33.5512 25.0467 32.8838 26.0174 32.8838C27.6555 32.8838 29.2936 32.8838 30.9924 32.8838C34.208 32.8838 37.4235 32.8838 40.6391 32.8838Z" fill="#243247"/>
<path d="M40.6388 22.8125C38.2727 22.8125 35.9065 22.8125 33.601 22.8125C32.5696 22.8125 31.9629 22.2664 31.9629 21.417C31.9629 20.5676 32.5696 19.9609 33.601 19.9609C38.3333 19.9609 43.005 19.9609 47.7373 19.9609C48.7687 19.9609 49.4361 20.5676 49.4361 21.417C49.4361 22.2664 48.8294 22.8125 47.798 22.8125C45.3712 22.8125 43.005 22.8125 40.6388 22.8125Z" fill="#243247"/>
</svg>
