<svg width="83" height="85" viewBox="0 0 83 85" fill="none" xmlns="http://www.w3.org/2000/svg">
<path d="M42.7855 84.9999C40.9654 83.8471 39.0846 82.755 37.2645 81.6023C36.8398 81.2989 36.5364 81.2383 36.1724 81.663C35.8084 82.027 35.323 82.3303 34.8983 82.6337C32.7748 84.3325 30.1053 83.7258 28.8919 81.2383C28.8312 81.1776 28.8312 81.0562 28.7706 80.9956C25.919 81.4203 24.4023 80.4495 23.7349 77.6587C22.6428 77.598 21.5507 77.2947 20.8227 76.4453C20.1553 75.6565 19.6699 74.6858 19.0632 73.7151C15.8476 73.9577 13.9669 70.3782 15.787 67.648C15.605 67.5266 15.4836 67.4053 15.3016 67.2233C14.8162 66.7379 14.3915 66.4952 13.7242 66.9806C13.0568 67.4053 12.2074 67.2839 11.4793 66.8592C10.1446 66.1312 8.80982 65.4031 7.47506 64.6144C7.11103 64.3717 6.80768 63.947 6.68634 63.583C5.7156 59.8821 5.47292 56.1205 5.83694 52.3589C6.32231 47.2019 7.89976 42.3482 10.3266 37.7372C10.6906 37.0698 10.6299 36.1597 10.6299 35.3104C10.6906 34.2789 11.176 33.7329 12.2074 33.7329C13.9062 33.7329 15.5443 33.7329 17.2431 33.7329C18.2745 33.7329 18.7599 34.2183 18.8205 35.2497C18.9419 37.0698 19.0025 38.8293 19.1239 40.6494C19.1239 40.9528 19.3059 41.3168 19.4879 41.4988C21.308 42.9549 23.1888 44.3503 25.0696 45.8064C26.101 46.5952 26.5257 47.5659 26.1617 48.9006C26.4651 48.9006 26.7077 48.9006 27.0718 48.9006C27.1324 48.7186 27.1931 48.5366 27.1931 48.2939C27.3751 44.4717 27.4965 40.7101 27.6785 36.8878C27.6785 36.5238 27.6785 36.2204 27.7998 35.8564C27.9212 35.2497 28.3459 34.825 29.0132 34.7643C30.894 34.7643 32.7748 34.7037 34.7163 34.7643C35.5657 34.7643 35.9904 35.371 35.9904 36.4024C36.1117 39.254 36.2331 42.1055 36.3544 44.957C36.4151 46.2311 36.4758 47.5052 36.5364 48.84C37.6285 48.7793 38.5993 48.9613 39.6913 48.4153C40.7227 47.8692 41.9362 47.7479 43.1496 47.3839C43.2102 46.3525 43.2709 45.1997 43.3316 44.047C43.4529 41.4988 43.5743 38.9506 43.6349 36.4024C43.6956 35.189 44.1203 34.7036 45.3337 34.643C46.9112 34.643 48.4279 34.643 50.0054 34.643C51.3402 34.643 51.8255 35.1283 51.8862 36.4631C52.0682 40.6494 52.2502 44.8357 52.4322 49.022C52.4322 49.204 52.4929 49.4467 52.4929 49.75C53.3423 49.5074 54.0703 49.3253 54.8591 49.1433C54.7984 48.9613 54.7984 48.84 54.7984 48.658C54.495 47.5052 54.7377 46.5345 55.7691 45.7458C57.8319 44.1683 59.8948 42.5302 62.0182 40.9528C62.4429 40.6494 62.6249 40.2854 62.6249 39.8C62.6856 38.2226 62.807 36.5844 62.9283 35.007C62.989 34.1576 63.4743 33.6116 64.3237 33.6116C66.1439 33.6116 67.964 33.6116 69.7841 33.6116C70.5122 33.6116 71.0582 34.1576 71.1189 34.8857C71.1796 35.2497 71.2402 35.553 71.1796 35.9171C70.9369 38.1619 71.7256 40.164 72.6357 42.1662C74.2738 45.9278 75.0625 49.9321 75.2445 53.997C75.3658 56.7879 75.1838 59.5787 74.5771 62.3089C74.5165 62.7336 74.2131 63.1583 73.8491 63.401C72.575 64.4324 71.2402 65.4638 69.9661 66.4346C68.692 67.4053 67.1753 67.1626 66.2652 65.8278C65.9618 65.4031 65.6585 64.9178 65.2945 64.4324C64.5057 65.2211 63.7777 65.9492 63.0496 66.6772C62.989 66.7379 62.9283 66.9199 62.9283 67.0413C63.0496 70.1355 62.1396 71.4702 59.3487 72.3196C58.8027 76.3846 57.4679 77.5373 53.6456 77.234C53.403 78.5687 52.7963 79.6608 51.6435 80.4495C50.5514 81.1169 49.3987 81.2383 48.1853 80.9956C48.0639 81.3596 47.9426 81.7236 47.8212 82.0877C47.2752 83.6044 46.0618 84.3931 44.6057 84.8785C43.999 84.9999 43.3923 84.9999 42.7855 84.9999ZM35.323 51.5702C35.2017 51.5095 35.141 51.5095 35.0803 51.5095C31.7434 51.5095 28.4065 51.5095 25.009 51.5095C24.7663 51.5095 24.4629 51.7522 24.3416 51.9342C23.6135 52.9656 22.8855 54.0577 22.2181 55.1498C20.1553 58.244 18.0925 61.3382 15.969 64.4931C16.6364 64.9785 17.2431 65.5245 17.8498 66.0099C19.1846 65.1605 20.1553 63.8864 21.9147 63.8864C23.6742 63.947 24.8269 64.8571 25.555 66.3739C26.9504 65.6458 28.4065 65.5852 29.802 66.3739C31.2581 67.1626 31.9254 68.4367 32.1075 70.0141C34.3523 70.2568 35.323 71.1062 35.9297 73.351C35.9904 73.533 36.2331 73.7151 36.4151 73.8364C36.9005 74.1398 37.5072 74.3218 37.9319 74.6858C39.0239 75.5352 39.752 77.234 38.7206 79.5395C40.116 80.4495 41.5721 81.4809 43.0282 82.3303C43.999 82.8764 45.2124 82.2697 45.5157 81.1776C45.7584 80.3282 45.4551 79.6608 44.6057 78.9934C43.9383 78.5081 43.2709 78.0834 42.6642 77.598C41.8148 76.9913 41.6328 76.2632 42.1182 75.5959C42.6035 74.9892 43.3316 74.9285 44.181 75.4745C45.5157 76.4453 46.8505 77.416 48.2459 78.3261C49.156 78.9328 50.2481 78.8114 50.8548 78.0227C51.4615 77.1733 51.2795 76.0206 50.4301 75.3532C50.0054 75.0498 49.5807 74.7465 49.156 74.5038C47.5786 73.4117 46.0618 72.3803 44.4843 71.2882C43.5743 70.6815 43.6956 69.4681 44.6057 69.0434C45.1517 68.8007 45.6978 68.9827 46.1831 69.3468C48.7313 71.1062 51.2188 72.8657 53.767 74.5645C54.0703 74.8071 54.495 74.9892 54.8591 75.0498C55.6478 75.1712 56.4365 74.6858 56.7399 73.9577C57.0432 73.169 56.8005 72.3196 56.0725 71.7736C54.2524 70.4995 52.3716 69.2254 50.4908 67.9513C49.702 67.4053 48.8526 66.8592 48.0639 66.2525C47.5179 65.8278 47.3965 65.0391 47.8212 64.4931C48.1853 64.0077 48.9133 63.8257 49.52 64.1897C49.702 64.3111 49.8234 64.3717 50.0054 64.4931C52.4929 66.2525 55.0411 68.012 57.5286 69.7108C57.9533 70.0141 58.56 70.1355 59.0454 70.1355C59.8341 70.0748 60.3801 69.5288 60.5015 68.74C60.6835 67.8907 60.3195 67.2233 59.5914 66.7379C54.6164 63.583 49.6414 60.3675 44.6663 57.2126C44.4237 57.0912 44.0596 57.0306 43.817 57.1519C41.9362 57.8799 39.9947 58.1226 38.0532 58.0013C36.2331 57.8799 34.959 56.8485 34.5343 55.2711C34.1703 53.7543 34.413 52.6016 35.323 51.5702ZM8.14244 55.9385C8.20311 56.7879 8.26378 57.8799 8.32445 58.972C8.32445 59.3967 8.44579 59.7607 8.44579 60.1854C8.56714 61.6415 9.0525 62.855 10.5693 63.3403C10.9333 63.4617 11.176 63.7044 11.54 63.8864C12.4501 64.3717 12.9961 64.2504 13.5422 63.401C16.7577 58.608 19.9733 53.815 23.1282 49.022C23.6135 48.2939 23.5529 47.6872 22.8248 47.1412C21.9754 46.4738 21.0653 45.8064 20.1553 45.0784C18.0318 43.5009 15.969 41.8628 13.8455 40.2854C12.8748 39.5573 12.2074 39.6787 11.6007 40.7707C11.54 40.8921 11.4187 41.0741 11.358 41.1954C9.23452 45.8064 8.26378 50.6601 8.14244 55.9385ZM72.9997 55.8778C72.757 53.6937 72.6357 51.4488 72.211 49.204C71.6649 46.2311 70.6942 43.3796 69.3594 40.7101C68.9347 39.8 68.0853 39.618 67.2966 40.2247C64.3237 42.5302 61.2902 44.8357 58.3173 47.1412C57.6499 47.6872 57.5286 48.2939 58.0746 49.0827C61.2295 53.815 64.3844 58.608 67.6 63.3403C68.146 64.1897 68.8741 64.3111 69.7234 63.7044C70.3908 63.2797 71.0582 62.855 71.6649 62.3089C72.0289 62.0056 72.393 61.5202 72.4536 61.0955C72.6357 59.4574 72.8177 57.6979 72.9997 55.8778ZM63.8384 62.4303C61.4722 58.8507 59.106 55.3318 56.7399 51.8129C56.6185 51.6308 56.2545 51.5702 56.0118 51.6308C54.8591 51.9342 53.7063 52.2982 52.4929 52.5409C52.0075 52.6622 51.4008 52.6016 50.9155 52.4196C49.7627 51.9949 48.61 51.5095 47.5179 50.9635C46.0618 50.2961 44.4843 50.1141 42.9069 50.2354C42.0575 50.2961 41.2081 50.5994 40.48 51.0241C39.4486 51.6308 38.5993 52.4196 37.6285 53.0869C37.1432 53.3903 36.8398 53.7543 36.9611 54.3004C37.0825 54.9071 37.5072 55.0891 38.0532 55.1498C39.934 55.3318 41.7541 55.0284 43.4529 54.179C43.999 53.8757 44.545 53.9363 45.091 54.2397C46.5471 55.1498 47.9426 56.0598 49.3987 56.9699C53.403 59.5787 57.4679 62.1269 61.4722 64.7358C62.2609 63.947 62.989 63.219 63.8384 62.4303ZM30.6514 37.5552C30.4693 41.3168 30.348 45.0784 30.166 48.84C31.3794 48.84 32.5322 48.84 33.8062 48.84C33.6242 45.0784 33.5029 41.3168 33.3209 37.5552C32.4108 37.5552 31.5614 37.5552 30.6514 37.5552ZM49.6414 49.022C49.4594 45.1391 49.338 41.3775 49.156 37.5552C48.2459 37.5552 47.3965 37.5552 46.4865 37.5552C46.3651 41.0134 46.1831 44.411 46.0618 47.6872C47.2752 48.1119 48.4279 48.5366 49.6414 49.022ZM23.9169 74.9892C24.0989 74.9285 24.5236 74.8678 24.7663 74.6858C26.1617 73.6544 27.4965 72.623 28.8312 71.5309C29.62 70.9242 29.6806 69.8321 29.0739 69.0434C28.5279 68.3154 27.4358 68.1333 26.6471 68.6794C25.2516 69.7108 23.8562 70.8029 22.5215 71.8343C21.9147 72.3196 21.7934 73.1084 22.0968 73.8364C22.4001 74.5645 22.9461 74.9285 23.9169 74.9892ZM27.3751 78.6294C27.7998 78.4474 28.0425 78.3867 28.2245 78.2047C29.7413 77.052 31.2581 75.8386 32.7748 74.6858C33.4422 74.2004 33.5029 73.5331 33.0782 72.987C32.6535 72.441 31.9861 72.3803 31.3187 72.8657C30.0446 73.8364 28.7706 74.8678 27.4965 75.8385C27.1931 76.0812 26.8291 76.2632 26.7077 76.5666C26.5257 76.9306 26.4044 77.416 26.5257 77.7193C26.6471 78.144 27.1324 78.3867 27.3751 78.6294ZM18.7599 71.2276C19.1239 71.0455 19.3666 71.0455 19.5486 70.8635C20.58 70.0748 21.6721 69.2861 22.7035 68.4367C23.1888 68.012 23.2495 67.4053 22.8855 66.8592C22.5215 66.3132 21.8541 66.1919 21.308 66.5559C20.216 67.3446 19.1239 68.1333 18.0925 69.0434C17.7891 69.2861 17.7284 69.9535 17.8498 70.3175C17.9711 70.7422 18.4565 70.9242 18.7599 71.2276ZM36.8398 77.416C36.5364 77.052 36.3544 76.5666 35.9904 76.4453C35.687 76.3239 35.0803 76.3239 34.777 76.5059C33.7456 77.234 32.7748 78.0227 31.7434 78.8114C31.1367 79.2968 31.0154 79.9642 31.4401 80.5102C31.8648 81.0562 32.5928 81.1169 33.1995 80.6315C34.1703 79.9035 35.141 79.1754 36.0511 78.3867C36.3544 78.2047 36.5364 77.8407 36.8398 77.416ZM16.333 38.8899C16.2723 38.0405 16.2117 37.3125 16.151 36.6451C15.2409 36.6451 14.3915 36.6451 13.3601 36.6451C14.4522 37.4338 15.3016 38.1012 16.333 38.8899ZM65.5372 38.4046C66.3865 37.7372 67.0539 37.2518 67.782 36.6451C66.9933 36.6451 66.3259 36.6451 65.7192 36.6451C65.5978 37.1912 65.5978 37.7372 65.5372 38.4046Z" fill="#243247"/>
<path d="M82.4038 23.8437C81.9184 24.9964 81.069 25.4211 79.8556 25.2998C79.3702 25.2391 78.8849 25.2998 78.3388 25.2998C78.3388 25.5425 78.3388 25.7245 78.3388 25.9065C78.3995 27.0592 78.4602 28.212 78.4602 29.3647C78.4602 31.6096 76.8827 33.1263 74.6379 33.187C74.5165 33.187 74.4559 33.187 74.3345 33.187C52.1896 33.187 30.0447 33.187 7.89985 33.187C5.83704 33.187 4.13825 32.0343 3.95624 30.2748C3.8349 28.8187 3.89557 27.3019 3.89557 25.8458C3.89557 25.7245 3.89557 25.5425 3.95624 25.2998C3.28886 25.2998 2.68215 25.2998 2.07544 25.2998C1.04403 25.2998 0.255311 24.8144 0.0732979 23.965C-0.169386 22.9943 0.19464 22.2056 1.1047 21.6595C7.77851 17.7766 14.4523 13.9543 21.0654 10.0714C25.8584 7.21984 30.7121 4.42898 35.5051 1.63812C39.2667 -0.546039 43.0283 -0.546039 46.7899 1.63812C58.2567 8.25125 69.6629 14.8644 81.1297 21.5382C81.6757 21.8415 81.9791 22.4482 82.4038 22.9336C82.4038 23.237 82.4038 23.5403 82.4038 23.8437ZM5.7157 22.2056C5.7157 22.2662 5.7157 22.2662 5.7157 22.3269C29.3774 22.3269 52.9784 22.3269 76.822 22.3269C76.5187 22.1449 76.3367 22.0236 76.1547 21.9022C65.7799 15.8958 55.4052 9.88936 45.0305 3.88294C42.4823 2.42684 39.8734 2.42684 37.3253 3.88294C30.2268 8.00856 23.1889 12.0735 16.1511 16.1991C12.6322 18.2013 9.17394 20.2034 5.7157 22.2056ZM75.5479 25.7852C52.493 25.7852 29.62 25.7852 6.68643 25.7852C6.68643 26.8166 6.68643 27.7266 6.68643 28.6974C6.68643 30.2141 6.7471 30.3355 8.26388 30.3355C30.1661 30.3355 52.129 30.3355 74.0312 30.3355C74.3345 30.3355 74.6379 30.3961 74.8806 30.2748C75.1233 30.2141 75.4873 29.9714 75.4873 29.7894C75.6086 28.394 75.5479 27.0592 75.5479 25.7852Z" fill="#243247"/>
</svg>
