<svg width="562" height="165" viewBox="0 0 562 165" fill="none" xmlns="http://www.w3.org/2000/svg">
<g clip-path="url(#clip0)">
<path d="M268.53 47.4678C262.943 47.4678 256.468 51.0938 255.95 58.4938H250.733V50.9458C250.733 48.8368 251.214 48.3188 253.878 48.3188C253.989 48.3188 253.989 47.8748 253.878 47.8748C252.546 47.8748 250.955 47.9858 248.846 47.9858C247.107 47.9858 245.479 47.8748 244.221 47.8748C244.11 47.8748 244.11 48.3188 244.221 48.3188C246.737 48.3188 247.181 48.7628 247.181 50.8718V68.0028C247.181 70.1488 246.737 70.5558 244.184 70.5558C244.036 70.5558 244.036 70.9998 244.184 70.9998C245.442 70.9998 247.107 70.9258 248.846 70.9258C250.955 70.9258 252.509 70.9998 253.878 70.9998C253.989 70.9998 253.989 70.5558 253.878 70.5558C251.177 70.5558 250.733 70.1488 250.733 68.0028V59.4558H255.913C255.913 65.9678 260.39 71.4438 267.235 71.4438C274.006 71.4438 279.778 66.0788 279.778 59.1968C279.778 53.2398 275.523 47.4678 268.53 47.4678ZM268.16 70.5558C263.165 70.5558 259.576 65.2648 259.576 58.1238C259.576 52.0928 262.092 48.3928 266.717 48.3928C272.156 48.3928 275.486 53.4618 275.486 60.2698C275.486 66.8928 272.267 70.5558 268.16 70.5558ZM292.986 67.8548V50.9458C292.986 48.8368 293.467 48.5038 295.169 48.5038C298.351 48.5038 300.312 50.7238 300.312 54.6458C300.312 58.7898 298.129 60.7878 295.724 60.7878C295.391 60.7878 294.873 60.7508 294.429 60.6398C294.281 60.6028 294.17 61.0838 294.355 61.1208C294.91 61.2688 295.539 61.3058 296.094 61.3058C299.905 61.3058 304.345 58.9378 304.197 53.8318C304.049 49.5028 300.793 47.7638 296.279 47.7638C294.54 47.7638 292.394 47.9858 291.21 47.9858C289.471 47.9858 287.917 47.8748 286.659 47.8748C286.511 47.8748 286.511 48.3188 286.659 48.3188C289.064 48.3188 289.471 48.7628 289.471 50.8718V68.0028C289.471 70.1488 289.064 70.5558 286.659 70.5558C286.511 70.5558 286.511 70.9998 286.659 70.9998C287.917 70.9998 289.508 70.9258 291.247 70.9258C293.43 70.9258 295.243 70.9998 296.834 70.9998C296.945 70.9998 296.945 70.5558 296.834 70.5558C293.504 70.5558 292.986 70.0748 292.986 67.8548ZM335.862 70.5558C333.309 70.5558 332.865 70.1488 332.865 68.0028V50.8718C332.865 48.7628 333.309 48.3188 335.862 48.3188C336.01 48.3188 336.01 47.8748 335.862 47.8748C334.604 47.8748 332.828 47.9858 331.126 47.9858C328.98 47.9858 327.426 47.8748 326.205 47.8748C326.057 47.8748 326.057 48.3188 326.205 48.3188C328.943 48.3188 329.313 48.8368 329.313 50.9458V52.2038L317.066 65.3018V50.9458C317.066 48.8368 317.547 48.3188 320.211 48.3188C320.322 48.3188 320.322 47.8748 320.211 47.8748C318.879 47.8748 317.288 47.9858 315.179 47.9858C313.44 47.9858 311.812 47.8748 310.554 47.8748C310.443 47.8748 310.443 48.3188 310.554 48.3188C313.07 48.3188 313.514 48.7628 313.514 50.8718V68.0028C313.514 70.1488 313.07 70.5558 310.517 70.5558C310.369 70.5558 310.369 70.9998 310.517 70.9998C311.775 70.9998 313.44 70.9258 315.179 70.9258C317.288 70.9258 318.842 70.9998 320.211 70.9998C320.322 70.9998 320.322 70.5558 320.211 70.5558C317.51 70.5558 317.066 70.1488 317.066 68.0028V66.6708L329.313 53.5728V68.0028C329.313 70.1488 328.943 70.5558 326.205 70.5558C326.057 70.5558 326.057 70.9998 326.205 70.9998C327.426 70.9998 328.98 70.9258 331.126 70.9258C332.828 70.9258 334.604 70.9998 335.862 70.9998C336.01 70.9998 336.01 70.5558 335.862 70.5558ZM364.981 70.5558C361.207 70.5558 361.281 70.5188 361.281 68.0028V50.8718C361.281 48.7628 361.725 48.3188 364.278 48.3188C364.426 48.3188 364.426 47.8748 364.278 47.8748H344.816C344.668 47.8748 344.668 48.3188 344.816 48.3188C347.628 48.3188 348.849 49.5768 348.849 54.8308C348.849 64.9688 346.592 70.4078 341.782 70.4078C341.375 70.4078 341.375 70.4078 341.375 70.8518C341.375 71.8138 341.893 73.2568 341.893 77.9188C341.893 78.1408 342.337 78.1408 342.337 77.9188C342.337 72.7018 344.113 71.0368 348.109 71.0368L357.766 70.9998C362.354 70.9998 364.611 73.2568 364.611 77.9188C364.611 78.1408 365.055 78.1408 365.055 77.9188C365.055 73.2568 365.425 72.1468 365.425 70.9998C365.425 70.5558 365.425 70.5558 364.981 70.5558ZM357.766 67.9288C357.766 70.1858 357.692 70.0748 355.361 70.0748H345.704C349.034 67.2998 349.885 62.1198 349.885 51.6118C349.885 48.8368 349.922 48.7998 352.068 48.7998H355.546C357.692 48.7998 357.766 48.7998 357.766 50.9458V67.9288ZM396.485 70.5558C393.932 70.5558 393.488 70.1488 393.488 68.0028V50.8718C393.488 48.7628 393.932 48.3188 396.485 48.3188C396.633 48.3188 396.633 47.8748 396.485 47.8748C395.227 47.8748 393.451 47.9858 391.749 47.9858C389.603 47.9858 388.049 47.8748 386.828 47.8748C386.68 47.8748 386.68 48.3188 386.828 48.3188C389.566 48.3188 389.936 48.8368 389.936 50.9458V52.2038L377.689 65.3018V50.9458C377.689 48.8368 378.17 48.3188 380.834 48.3188C380.945 48.3188 380.945 47.8748 380.834 47.8748C379.502 47.8748 377.911 47.9858 375.802 47.9858C374.063 47.9858 372.435 47.8748 371.177 47.8748C371.066 47.8748 371.066 48.3188 371.177 48.3188C373.693 48.3188 374.137 48.7628 374.137 50.8718V68.0028C374.137 70.1488 373.693 70.5558 371.14 70.5558C370.992 70.5558 370.992 70.9998 371.14 70.9998C372.398 70.9998 374.063 70.9258 375.802 70.9258C377.911 70.9258 379.465 70.9998 380.834 70.9998C380.945 70.9998 380.945 70.5558 380.834 70.5558C378.133 70.5558 377.689 70.1488 377.689 68.0028V66.6708L389.936 53.5728V68.0028C389.936 70.1488 389.566 70.5558 386.828 70.5558C386.68 70.5558 386.68 70.9998 386.828 70.9998C388.049 70.9998 389.603 70.9258 391.749 70.9258C393.451 70.9258 395.227 70.9998 396.485 70.9998C396.633 70.9998 396.633 70.5558 396.485 70.5558ZM423.643 70.5558C421.09 70.5558 420.609 70.1488 420.609 68.0028V50.8718C420.609 48.7628 421.09 48.3188 423.643 48.3188C423.754 48.3188 423.754 47.8748 423.643 47.8748C422.385 47.8748 420.757 47.9858 419.018 47.9858C417.279 47.9858 415.762 47.8748 414.541 47.8748C414.43 47.8748 414.43 48.3188 414.541 48.3188C416.724 48.3188 417.094 48.8368 417.094 50.9458V59.0858C415.318 60.5288 413.69 61.0098 412.099 61.0098C409.435 61.0098 407.696 58.8268 407.696 54.6088V50.9458C407.696 48.8368 408.066 48.3188 410.249 48.3188C410.36 48.3188 410.36 47.8748 410.249 47.8748C409.287 47.8748 408.066 47.9858 405.735 47.9858C402.96 47.9858 402.516 47.8748 401.517 47.8748C401.369 47.8748 401.369 48.3188 401.517 48.3188C403.774 48.3188 404.181 48.7628 404.181 50.8718V55.9038C404.181 59.6038 407.104 61.8978 411.248 61.8978C413.283 61.8978 415.17 61.2688 417.094 59.6778V68.0028C417.094 70.1488 416.687 70.5558 414.134 70.5558C413.986 70.5558 413.986 70.9998 414.134 70.9998C415.429 70.9998 417.094 70.9258 419.018 70.9258C420.757 70.9258 422.385 70.9998 423.643 70.9998C423.754 70.9998 423.754 70.5558 423.643 70.5558ZM446.649 65.2278C445.761 68.4468 443.689 70.0378 440.359 70.0378H438.546C436.955 70.0378 436.437 69.4828 436.437 67.8548V59.4558H439.952C442.727 59.4558 444.096 60.5658 444.096 62.6008C444.096 62.7488 444.54 62.7488 444.54 62.6008C444.54 61.2688 444.429 60.1958 444.429 58.9748C444.429 58.0128 444.503 57.3468 444.503 55.7558C444.503 55.6078 444.059 55.6078 444.059 55.7558C444.059 57.5318 442.727 58.4938 440.026 58.4938H436.437V50.9828C436.437 49.4288 437.066 48.8368 438.879 48.8368H440.359C443.208 48.8368 444.91 50.2428 445.539 53.0548C445.539 53.1658 445.946 53.1288 445.946 53.0178L445.872 48.2078C445.872 47.9858 445.798 47.8748 445.539 47.8748H430.11C429.962 47.8748 429.962 48.3188 430.11 48.3188C432.515 48.3188 432.922 48.7628 432.922 50.8718V68.0028C432.922 70.1488 432.515 70.5558 430.11 70.5558C429.962 70.5558 429.962 70.9998 430.11 70.9998H446.168C446.612 70.9998 446.723 70.8518 446.723 70.4448C446.723 68.8168 446.908 66.7078 447.093 65.3018C447.093 65.1908 446.686 65.1168 446.649 65.2278ZM468.105 47.4678C460.224 47.4678 454.304 52.3888 454.304 59.4928C454.304 66.5598 460.002 71.4438 467.957 71.4438C470.325 71.4438 472.582 71.0738 475.024 70.0748C475.431 69.9268 475.468 69.8158 475.542 69.2238L476.023 64.8208C476.023 64.7098 475.69 64.5988 475.579 64.7838C473.803 68.8538 471.62 70.7408 467.957 70.7408C462.481 70.7408 458.374 66.1158 458.374 59.3078C458.374 52.4258 462.222 48.1708 467.661 48.1708C471.435 48.1708 473.988 50.3538 475.283 54.4238C475.357 54.5718 475.69 54.4978 475.69 54.3498L475.246 49.4658C475.172 48.9108 475.135 48.7998 474.728 48.6148C473.026 47.8748 470.584 47.4678 468.105 47.4678ZM506.091 70.5558C503.464 70.4818 501.873 68.1508 498.913 64.0438C496.064 60.0478 495.213 58.9378 492.66 58.7158L497.618 52.4628C499.616 49.9098 502.243 48.3188 504.574 48.3188C504.685 48.3188 504.685 47.8748 504.574 47.8748C503.427 47.8748 502.354 47.9858 500.208 47.9858C498.21 47.9858 496.915 47.8748 495.731 47.8748C495.62 47.8748 495.62 48.3188 495.731 48.3188C497.729 48.3188 498.062 49.9838 495.805 53.0548L491.735 58.6788H491.476C490.773 58.6788 489.959 58.6788 488.997 58.7158V50.9458C488.997 48.8368 489.441 48.3188 491.957 48.3188C492.068 48.3188 492.068 47.8748 491.957 47.8748C490.662 47.8748 488.997 47.9858 487.036 47.9858C485.297 47.9858 483.743 47.8748 482.485 47.8748C482.337 47.8748 482.337 48.3188 482.485 48.3188C485.001 48.3188 485.445 48.7628 485.445 50.8718V68.0028C485.445 70.1488 485.001 70.5558 482.448 70.5558C482.3 70.5558 482.3 70.9998 482.448 70.9998C483.706 70.9998 485.297 70.9258 487.036 70.9258C488.997 70.9258 490.625 70.9998 491.957 70.9998C492.068 70.9998 492.068 70.5558 491.957 70.5558C489.367 70.5558 488.997 70.1488 488.997 68.0028V59.3448H489.145C491.772 59.3448 492.253 60.3438 495.361 64.7838C499.69 70.9628 499.875 70.9998 500.726 70.9998H506.091C506.202 70.9998 506.202 70.5558 506.091 70.5558ZM521.923 71.4438C528.953 71.4438 534.91 66.0788 534.91 59.1968C534.91 53.2398 530.507 47.4678 523.218 47.4678C517.224 47.4678 510.194 51.4268 510.194 59.4558C510.194 65.9678 514.819 71.4438 521.923 71.4438ZM523.181 70.5558C517.927 70.5558 514.153 65.2648 514.153 58.1238C514.153 52.0928 516.854 48.3928 521.738 48.3928C527.436 48.3928 530.951 53.4618 530.951 60.2698C530.951 66.8928 527.547 70.5558 523.181 70.5558ZM558.502 65.2278C557.614 68.4468 555.542 70.0378 552.212 70.0378H550.399C548.808 70.0378 548.29 69.4828 548.29 67.8548V59.4558H551.805C554.58 59.4558 555.949 60.5658 555.949 62.6008C555.949 62.7488 556.393 62.7488 556.393 62.6008C556.393 61.2688 556.282 60.1958 556.282 58.9748C556.282 58.0128 556.356 57.3468 556.356 55.7558C556.356 55.6078 555.912 55.6078 555.912 55.7558C555.912 57.5318 554.58 58.4938 551.879 58.4938H548.29V50.9828C548.29 49.4288 548.919 48.8368 550.732 48.8368H552.212C555.061 48.8368 556.763 50.2428 557.392 53.0548C557.392 53.1658 557.799 53.1288 557.799 53.0178L557.725 48.2078C557.725 47.9858 557.651 47.8748 557.392 47.8748H541.963C541.815 47.8748 541.815 48.3188 541.963 48.3188C544.368 48.3188 544.775 48.7628 544.775 50.8718V68.0028C544.775 70.1488 544.368 70.5558 541.963 70.5558C541.815 70.5558 541.815 70.9998 541.963 70.9998H558.021C558.465 70.9998 558.576 70.8518 558.576 70.4448C558.576 68.8168 558.761 66.7078 558.946 65.3018C558.946 65.1908 558.539 65.1168 558.502 65.2278ZM269.307 119.556C267.975 119.556 267.013 118.483 265.237 114.931L256.209 96.6528C256.135 96.5048 255.617 96.5418 255.58 96.6528L247.662 114.561C245.849 118.594 244.924 119.556 242.926 119.556C242.704 119.556 242.704 120 242.926 120C244.517 120 245.368 119.852 247.218 119.852C249.142 119.852 250.141 120 251.584 120C251.806 120 251.806 119.556 251.584 119.556C248.661 119.556 247.255 117.928 248.55 114.931L251.399 108.53H258.096L262.092 116.633C263.239 118.927 262.869 119.556 260.649 119.556C260.427 119.556 260.427 120 260.649 120C262.129 120 263.128 119.852 264.793 119.852C266.236 119.852 267.864 120 269.307 120C269.529 120 269.529 119.556 269.307 119.556ZM251.806 107.568L254.581 101.389L257.615 107.568H251.806ZM274.374 120C275.632 120 277.297 119.926 279.036 119.926C281.552 119.926 283.402 120 285.03 120C285.141 120 285.141 119.556 285.03 119.556C281.478 119.556 280.886 119.075 280.886 116.855V99.9088C280.886 98.4288 281.515 97.8368 283.328 97.8368H285.067C288.027 97.8368 289.877 99.5388 290.506 102.98C290.543 103.128 290.95 103.091 290.95 102.98L290.876 97.2078C290.876 96.9858 290.765 96.8748 290.506 96.8748H274.559C274.411 96.8748 274.411 97.3188 274.559 97.3188C276.964 97.3188 277.371 97.7628 277.371 99.8718V117.003C277.371 119.149 276.927 119.556 274.374 119.556C274.226 119.556 274.226 120 274.374 120ZM314.129 114.228C313.241 117.447 311.169 119.038 307.839 119.038H306.026C304.435 119.038 303.917 118.483 303.917 116.855V108.456H307.432C310.207 108.456 311.576 109.566 311.576 111.601C311.576 111.749 312.02 111.749 312.02 111.601C312.02 110.269 311.909 109.196 311.909 107.975C311.909 107.013 311.983 106.347 311.983 104.756C311.983 104.608 311.539 104.608 311.539 104.756C311.539 106.532 310.207 107.494 307.506 107.494H303.917V99.9828C303.917 98.4288 304.546 97.8368 306.359 97.8368H307.839C310.688 97.8368 312.39 99.2428 313.019 102.055C313.019 102.166 313.426 102.129 313.426 102.018L313.352 97.2078C313.352 96.9858 313.278 96.8748 313.019 96.8748H297.59C297.442 96.8748 297.442 97.3188 297.59 97.3188C299.995 97.3188 300.402 97.7628 300.402 99.8718V117.003C300.402 119.149 299.995 119.556 297.59 119.556C297.442 119.556 297.442 120 297.59 120H313.648C314.092 120 314.203 119.852 314.203 119.445C314.203 117.817 314.388 115.708 314.573 114.302C314.573 114.191 314.166 114.117 314.129 114.228ZM346.943 119.556C344.39 119.556 343.946 119.149 343.946 117.003V99.8718C343.946 97.7628 344.39 97.3188 346.943 97.3188C347.091 97.3188 347.091 96.8748 346.943 96.8748C345.685 96.8748 343.909 96.9858 342.17 96.9858C340.061 96.9858 338.507 96.8748 337.249 96.8748C337.138 96.8748 337.138 97.3188 337.249 97.3188C339.987 97.3188 340.394 97.8368 340.394 99.9458V107.494H327.703V99.9458C327.703 97.8368 328.184 97.3188 330.848 97.3188C330.959 97.3188 330.959 96.8748 330.848 96.8748C329.516 96.8748 327.925 96.9858 325.816 96.9858C324.077 96.9858 322.449 96.8748 321.191 96.8748C321.08 96.8748 321.08 97.3188 321.191 97.3188C323.707 97.3188 324.151 97.7628 324.151 99.8718V117.003C324.151 119.149 323.707 119.556 321.154 119.556C321.006 119.556 321.006 120 321.154 120C322.412 120 324.077 119.926 325.816 119.926C327.925 119.926 329.479 120 330.848 120C330.959 120 330.959 119.556 330.848 119.556C328.147 119.556 327.703 119.149 327.703 117.003V108.456H340.394V117.003C340.394 119.149 339.987 119.556 337.249 119.556C337.138 119.556 337.138 120 337.249 120C338.507 120 340.061 119.926 342.17 119.926C343.909 119.926 345.685 120 346.943 120C347.091 120 347.091 119.556 346.943 119.556ZM359.661 97.6518C361.585 97.6518 361.992 98.0218 361.992 99.8718V117.003C361.992 119.149 361.437 119.556 358.699 119.556C358.588 119.556 358.588 120 358.699 120C360.105 120 361.844 119.926 363.731 119.926C365.766 119.926 367.431 120 368.8 120C368.948 120 368.948 119.556 368.8 119.556C365.988 119.556 365.581 119.149 365.581 117.003V99.9458C365.581 98.0588 365.914 97.6518 367.949 97.6518C370.983 97.6518 372.87 99.3168 373.388 103.202C373.425 103.313 373.832 103.313 373.832 103.202C373.832 101.981 374.017 97.5408 374.165 95.9498C374.165 95.7648 373.795 95.7648 373.758 95.9498C373.499 96.7268 372.611 96.8748 370.872 96.8748C368.985 96.8748 367.209 96.9858 363.731 96.9858C360.956 96.9858 358.403 96.9488 356.294 96.8748C355.591 96.8748 354.259 96.8008 354.259 96.0608C354.259 95.8018 353.815 95.8388 353.815 96.0608C353.815 97.8368 353.482 101.87 353.297 103.202C353.297 103.313 353.704 103.35 353.741 103.239C354.777 99.5388 356.59 97.6518 359.661 97.6518ZM394.257 96.4678C386.376 96.4678 380.456 101.389 380.456 108.493C380.456 115.56 386.154 120.444 394.109 120.444C396.477 120.444 398.734 120.074 401.176 119.075C401.583 118.927 401.62 118.816 401.694 118.224L402.175 113.821C402.175 113.71 401.842 113.599 401.731 113.784C399.955 117.854 397.772 119.741 394.109 119.741C388.633 119.741 384.526 115.116 384.526 108.308C384.526 101.426 388.374 97.1708 393.813 97.1708C397.587 97.1708 400.14 99.3538 401.435 103.424C401.509 103.572 401.842 103.498 401.842 103.35L401.398 98.4658C401.324 97.9108 401.287 97.7998 400.88 97.6148C399.178 96.8748 396.736 96.4678 394.257 96.4678ZM415.37 97.6518C417.294 97.6518 417.701 98.0218 417.701 99.8718V117.003C417.701 119.149 417.146 119.556 414.408 119.556C414.297 119.556 414.297 120 414.408 120C415.814 120 417.553 119.926 419.44 119.926C421.475 119.926 423.14 120 424.509 120C424.657 120 424.657 119.556 424.509 119.556C421.697 119.556 421.29 119.149 421.29 117.003V99.9458C421.29 98.0588 421.623 97.6518 423.658 97.6518C426.692 97.6518 428.579 99.3168 429.097 103.202C429.134 103.313 429.541 103.313 429.541 103.202C429.541 101.981 429.726 97.5408 429.874 95.9498C429.874 95.7648 429.504 95.7648 429.467 95.9498C429.208 96.7268 428.32 96.8748 426.581 96.8748C424.694 96.8748 422.918 96.9858 419.44 96.9858C416.665 96.9858 414.112 96.9488 412.003 96.8748C411.3 96.8748 409.968 96.8008 409.968 96.0608C409.968 95.8018 409.524 95.8388 409.524 96.0608C409.524 97.8368 409.191 101.87 409.006 103.202C409.006 103.313 409.413 103.35 409.45 103.239C410.486 99.5388 412.299 97.6518 415.37 97.6518ZM447.917 107.013C450.766 105.903 452.32 103.905 452.32 101.574C452.32 98.5768 449.952 96.7638 445.549 96.7638C444.106 96.7638 442.441 96.9858 441.072 96.9858C439.37 96.9858 437.779 96.8748 436.521 96.8748C436.41 96.8748 436.41 97.3188 436.521 97.3188C438.815 97.3188 439.333 97.7628 439.333 99.8718V117.003C439.333 119.149 438.741 119.556 436.484 119.556C436.336 119.556 436.336 120 436.484 120C437.742 120 439.37 119.926 441.072 119.926C442.737 119.926 445.031 120.148 446.437 120.148C451.099 120.148 454.577 117.188 454.577 113.266C454.577 109.899 451.987 107.457 447.917 107.013ZM444.92 97.5038C447.547 97.5038 448.842 99.1688 448.842 101.907C448.842 104.756 447.473 107.013 444.439 107.013C444.365 107.013 443.773 107.013 442.885 106.976V99.9458C442.885 97.9108 443.403 97.5038 444.92 97.5038ZM445.808 119.297C443.255 119.297 442.885 118.594 442.885 117.003V108.012C443.773 107.938 444.587 107.938 445.105 107.938C448.99 107.938 450.84 110.528 450.84 114.154C450.84 117.41 449.323 119.297 445.808 119.297ZM473.744 120.444C480.774 120.444 486.731 115.079 486.731 108.197C486.731 102.24 482.328 96.4678 475.039 96.4678C469.045 96.4678 462.015 100.427 462.015 108.456C462.015 114.968 466.64 120.444 473.744 120.444ZM475.002 119.556C469.748 119.556 465.974 114.265 465.974 107.124C465.974 101.093 468.675 97.3928 473.559 97.3928C479.257 97.3928 482.772 102.462 482.772 109.27C482.772 115.893 479.368 119.556 475.002 119.556Z" fill="white"/>
<path d="M160.555 99.0555C160.334 98.6866 160.205 98.4284 160.039 98.1886C156.184 92.3419 151.813 86.8825 147.294 81.5523C145.579 79.5419 143.808 77.5868 142.074 75.5949C141.687 75.1338 141.466 75.1154 140.931 75.5027C139.474 76.554 138.994 77.8635 139.086 79.6526C139.289 83.2307 139.197 86.8272 139.344 90.4238C139.455 93.0797 139.75 95.7172 139.935 98.3731C139.972 98.7973 140.156 98.9448 140.562 98.9817C143.31 99.3137 146.04 99.6641 148.788 99.9961C149.286 100.051 149.47 100.254 149.47 100.771C149.433 102.578 149.691 102.339 147.939 102.339C139.437 102.339 130.953 102.339 122.45 102.339C113.357 102.339 104.283 102.339 95.1899 102.339C94.2492 102.339 94.2308 102.339 94.2492 101.398C94.2677 100.033 94.0463 100.181 95.4481 99.9408C97.0711 99.6641 98.6758 99.3875 100.409 99.0924C100.243 98.7604 100.114 98.5206 99.9668 98.2809C96.5178 93.0059 92.6262 88.063 88.5685 83.2307C86.3922 80.6485 84.1236 78.1402 81.9287 75.5765C81.523 75.0969 81.3016 75.1891 80.8221 75.5211C79.3466 76.554 78.867 77.8635 78.9777 79.671C79.1806 83.2491 79.0884 86.8457 79.2359 90.4422C79.3466 93.0981 79.6232 95.7356 79.8261 98.3915C79.863 98.8157 80.0475 98.9633 80.4532 99.0186C83.2014 99.3506 85.931 99.701 88.6792 100.033C89.1772 100.088 89.3801 100.273 89.3616 100.789C89.3247 102.615 89.5829 102.357 87.7754 102.357C79.2728 102.357 70.7886 102.357 62.286 102.357C53.1932 102.357 44.1188 102.357 35.026 102.357C33.9562 102.357 33.9562 102.357 33.9562 101.269C33.9562 101.084 33.9747 100.881 33.9562 100.697C33.9378 100.291 34.1222 100.07 34.5464 100.033C37.3315 99.701 40.1165 99.3322 42.9015 99.0186C43.4733 98.9448 43.6208 98.742 43.4917 98.2071C42.5695 94.0572 41.1862 90.0549 39.2681 86.237C39.0283 85.7575 38.7332 85.6284 38.2352 85.6284C31.577 85.6468 24.9187 85.6468 18.2605 85.6284C17.7256 85.6284 17.4674 85.7944 17.283 86.2923C15.9366 90.1102 14.5717 93.9281 13.2253 97.746C13.17 97.912 13.1515 98.078 13.0962 98.2255C12.9118 98.7235 13.0778 98.9448 13.6126 99.0002C16.2686 99.3137 18.9245 99.6826 21.5804 100.015C22.0415 100.07 22.2444 100.273 22.2444 100.752C22.2259 102.615 22.3735 102.357 20.732 102.357C14.1291 102.357 7.5446 102.357 0.941697 102.357C0.00105983 102.357 0.00106007 102.357 0.00106007 101.398C0.0195039 99.9961 -0.183379 100.199 1.19991 99.9224C2.8783 99.5904 4.5567 99.2768 6.23509 99.0002C6.80685 98.9079 7.12039 98.6497 7.37861 98.1702C9.55498 94.2601 11.1596 90.1102 12.7827 85.9604C17.8178 73.2525 22.8346 60.5631 27.8144 47.8553C28.0542 47.2282 28.3677 46.9516 29.0502 47.0069C29.917 47.0622 30.7839 47.0622 31.6507 47.0069C32.2041 46.97 32.4623 47.2098 32.6651 47.7078C35.8928 55.4358 39.139 63.1637 42.4035 70.8733C45.0963 77.2364 47.7522 83.5995 50.5373 89.9073C51.7914 92.7661 53.3592 95.4774 54.7609 98.2809C54.9822 98.7235 55.2958 98.9264 55.7753 99.0002C57.1771 99.2584 58.5788 99.6826 59.999 99.8301C61.0872 99.9408 62.2122 99.8117 63.3189 99.701C64.8681 99.5535 66.4174 99.2953 67.9667 99.1108C68.4094 99.0555 68.5938 98.9079 68.6307 98.4469C68.8705 95.3114 69.1471 92.1759 69.3869 89.0589C69.9771 81.0543 69.8111 73.0128 69.7373 64.9897C69.682 60.6 69.2578 56.2288 68.9811 51.8576C68.9442 51.3228 68.7598 51.0092 68.1327 50.9354C65.7719 50.6219 63.4295 50.2161 61.0687 49.8841C60.4785 49.7919 60.2203 49.6075 60.2387 48.9804C60.2941 47.3389 60.0543 47.5418 61.7142 47.5418C70.6042 47.5418 79.5126 47.5418 88.4025 47.5418C89.3801 47.5418 89.3801 47.5418 89.3801 48.5193C89.3801 49.7735 89.5276 49.7735 88.2181 49.9395C85.6359 50.2715 83.0723 50.6588 80.5086 51.0092C80.029 51.0646 79.8815 51.249 79.8261 51.7101C79.1806 57.7966 79.0515 63.883 79.1253 69.988C79.1253 70.2093 79.1621 70.4306 79.2175 70.8733C86.7241 64.6761 93.6037 58.0917 100.207 50.9354C98.9155 50.7326 97.8458 50.5481 96.776 50.3821C95.5956 50.1977 94.3968 50.0317 93.2164 49.8473C92.8106 49.7919 92.5893 49.6075 92.6077 49.1464C92.6446 47.2836 92.3864 47.5418 94.157 47.5418C100.852 47.5418 107.566 47.5418 114.261 47.5418C115.257 47.5418 115.257 47.5418 115.257 48.5009C115.257 49.9395 115.367 49.7182 114.039 49.9579C112.214 50.2899 110.388 50.6035 108.543 50.8986C107.861 51.0092 107.252 51.2306 106.736 51.7101C104.061 54.1631 101.35 56.5977 98.6758 59.0508C95.4481 62.0202 92.2389 65.045 88.9927 67.996C88.4948 68.4387 88.4947 68.7522 88.8636 69.2318C91.04 72.0352 93.1426 74.894 95.3928 77.6237C99.5611 82.6773 103.748 87.7125 108.027 92.6555C109.742 94.629 111.716 96.3627 113.578 98.2071C114.039 98.6682 114.574 98.9264 115.238 99.0186C117.009 99.2953 118.761 99.7195 120.532 99.9224C121.472 100.033 122.468 99.8117 123.427 99.701C124.977 99.5166 126.526 99.2953 128.075 99.1108C128.518 99.0555 128.702 98.9079 128.739 98.4469C128.979 95.3114 129.256 92.1759 129.495 89.0589C130.086 81.0543 129.92 73.0128 129.846 64.9897C129.791 60.6 129.366 56.2288 129.09 51.8576C129.053 51.3228 128.868 51.0092 128.241 50.9354C125.88 50.6219 123.538 50.2161 121.177 49.8841C120.587 49.7919 120.329 49.6075 120.366 48.9804C120.421 47.3389 120.181 47.5418 121.841 47.5418C130.731 47.5418 139.64 47.5418 148.53 47.5418C149.507 47.5418 149.507 47.5418 149.507 48.5193C149.507 49.7735 149.655 49.7735 148.345 49.9395C145.763 50.2715 143.199 50.6588 140.636 51.0092C140.156 51.0646 140.008 51.249 139.953 51.7101C139.308 57.7966 139.178 63.883 139.252 69.988C139.252 70.2093 139.289 70.4306 139.344 70.8733C146.851 64.6761 153.731 58.0917 160.334 50.9354C159.043 50.7326 157.973 50.5481 156.903 50.3821C155.723 50.1977 154.524 50.0317 153.343 49.8473C152.938 49.7919 152.716 49.6075 152.735 49.1464C152.772 47.2836 152.513 47.5418 154.284 47.5418C160.979 47.5418 167.693 47.5418 174.388 47.5418C175.384 47.5418 175.384 47.5418 175.384 48.5009C175.384 49.9395 175.494 49.7182 174.167 49.9579C172.341 50.2899 170.515 50.6035 168.67 50.8986C167.988 51.0092 167.379 51.2306 166.863 51.7101C164.188 54.1631 161.477 56.5977 158.803 59.0508C155.575 62.0202 152.366 65.045 149.12 67.996C148.622 68.4387 148.622 68.7522 148.991 69.2502C151.167 72.0537 153.27 74.9125 155.52 77.6422C159.688 82.6958 163.875 87.731 168.154 92.6739C169.814 94.5921 171.732 96.252 173.521 98.0595C174.13 98.6866 174.83 98.9817 175.679 99.1108C177.45 99.3875 179.22 99.7195 180.991 100.015C181.489 100.088 181.71 100.291 181.692 100.845C181.636 102.578 181.894 102.357 180.161 102.357C171.879 102.357 163.598 102.357 155.298 102.357C154.358 102.357 154.358 102.357 154.358 101.398C154.376 100.033 154.173 100.181 155.557 99.9408C157.18 99.6457 158.784 99.369 160.555 99.0555ZM37.147 81.2387C34.4542 74.1747 31.4294 67.2767 27.9251 60.5447C24.679 67.332 21.9493 74.2854 19.2565 81.2572C21.23 81.8658 35.026 81.8843 37.147 81.2387ZM73.3154 74.9863C73.3154 67.2398 73.3154 59.475 73.297 51.7285C73.297 51.4519 73.131 50.9539 73.0572 50.9539C72.5039 50.9723 72.7437 51.4519 72.7437 51.7285C72.7252 67.2398 72.7252 82.7327 72.7437 98.244C72.7437 98.5206 72.5224 99.0002 73.0572 99.0186C73.131 99.0186 73.297 98.5206 73.297 98.244C73.3154 90.4975 73.3154 82.7511 73.3154 74.9863ZM133.442 74.9863C133.442 67.2398 133.442 59.475 133.424 51.7285C133.424 51.4519 133.258 50.9539 133.184 50.9539C132.631 50.9723 132.871 51.4519 132.871 51.7285C132.852 67.2398 132.852 82.7327 132.871 98.244C132.871 98.5206 132.649 99.0002 133.184 99.0186C133.258 99.0186 133.424 98.5206 133.424 98.244C133.442 90.4975 133.442 82.7511 133.442 74.9863ZM47.8445 98.8526C47.9182 98.8157 47.992 98.7973 48.0658 98.7604C41.9793 84.1713 35.8744 69.5638 29.7879 54.9747C29.7141 55.0115 29.6219 55.0484 29.5481 55.0853C35.6346 69.656 41.7395 84.2635 47.8445 98.8526ZM83.8838 72.4779C83.8284 72.5148 83.7916 72.5701 83.7362 72.607C84.2342 73.5845 105.186 98.8895 105.703 98.9079C98.436 90.1102 91.1507 81.2941 83.8838 72.4779ZM165.553 99.1293C165.645 99.0555 165.719 98.9817 165.811 98.9079C158.545 90.0918 151.259 81.2941 143.992 72.4779C143.919 72.5332 143.845 72.607 143.771 72.6623C151.038 81.4969 158.305 90.3131 165.553 99.1293Z" fill="white"/>
<path d="M174.13 114.861C174.13 116.097 174.075 117.222 174.148 118.366C174.259 119.933 174.296 119.933 175.845 120.21C176.104 120.265 176.362 120.302 176.62 120.358C176.638 120.413 176.657 120.487 176.675 120.542C176.491 120.634 176.288 120.819 176.104 120.819C173.927 120.837 171.751 120.837 169.574 120.819C169.445 120.819 169.316 120.69 169.187 120.616C169.298 120.505 169.408 120.302 169.538 120.265C170.017 120.155 170.497 120.063 170.976 120.026C171.345 119.989 171.493 119.823 171.493 119.454C171.548 116.263 171.622 113.091 171.659 109.9C171.659 109.273 171.622 108.627 171.511 108.019C171.474 107.816 171.234 107.576 171.031 107.521C169.943 107.17 168.855 107.336 167.785 107.595C167.601 107.631 167.361 107.908 167.343 108.092C167.232 109.31 167.14 110.527 167.121 111.763C167.084 113.275 167.121 114.806 167.103 116.318C167.066 118.956 165.978 120.302 163.377 120.782C161.57 121.114 159.762 121.077 157.973 120.597C155.981 120.044 154.985 118.735 154.967 116.669C154.93 114.087 154.893 111.523 154.856 108.941C154.838 107.687 154.819 107.687 153.62 107.465C153.454 107.429 153.27 107.447 153.122 107.373C153.012 107.318 152.938 107.17 152.864 107.078C152.956 107.004 153.03 106.912 153.141 106.857C153.196 106.82 153.27 106.838 153.325 106.838C155.373 106.838 157.42 106.838 159.467 106.857C159.633 106.857 159.799 107.023 159.947 107.115C159.781 107.207 159.633 107.373 159.449 107.392C157.42 107.668 157.383 107.668 157.346 109.716C157.291 112.058 157.199 114.4 157.291 116.743C157.365 118.735 158.49 119.731 160.5 119.878C160.943 119.915 161.385 119.915 161.828 119.86C163.783 119.565 164.761 118.605 164.797 116.484C164.853 113.718 164.687 110.951 164.631 108.203C164.631 107.797 164.429 107.65 164.06 107.595C163.599 107.539 163.137 107.502 162.676 107.41C162.492 107.373 162.326 107.207 162.16 107.097C162.326 107.023 162.51 106.875 162.676 106.875C164.373 106.857 166.052 106.875 167.748 106.857C170.533 106.82 173.319 106.765 176.104 106.746C176.675 106.746 177.247 106.801 177.8 106.912C181.268 107.613 181.434 111.542 179.903 113.312C178.593 114.825 176.915 115.175 175.034 114.99C174.776 114.935 174.48 114.898 174.13 114.861ZM174.019 111.615C174.038 111.615 174.038 111.615 174.056 111.615C174.056 111.966 174.056 112.335 174.056 112.685C174.056 114.548 174.075 114.566 175.919 114.179C177.8 113.773 178.759 112.353 178.409 110.509C178.04 108.572 176.602 107.521 174.739 107.797C174.37 107.853 174.185 108.019 174.185 108.406C174.148 109.476 174.075 110.546 174.019 111.615ZM165.443 117.905C165.738 117.351 165.978 108.72 165.627 107.797C165.572 107.797 165.517 107.797 165.443 107.797C165.443 111.21 165.443 114.659 165.443 117.905ZM172.452 119.767C172.489 119.767 172.525 119.767 172.544 119.767C172.544 115.765 172.544 111.781 172.544 107.779C172.507 107.779 172.47 107.779 172.452 107.779C172.452 111.781 172.452 115.765 172.452 119.767ZM155.741 107.779C155.723 107.834 155.686 107.89 155.686 107.945C155.686 110.988 155.668 114.013 155.705 117.056C155.705 117.536 155.963 118.015 156.11 118.476C155.502 114.898 156.092 111.32 155.741 107.779ZM179.147 112.353C179.719 111.339 179.442 109.347 178.667 108.775C178.815 109.328 179.055 109.9 179.128 110.49C179.202 111.117 179.147 111.744 179.147 112.353Z" fill="white"/>
<path d="M120.218 106.839C122.929 106.839 125.622 106.82 128.333 106.839C130.344 106.857 131.912 107.945 132.539 109.642C133.129 111.265 132.576 112.851 131.082 113.737C130.916 113.829 130.768 113.94 130.676 113.977C131.838 115.6 132.963 117.204 134.088 118.79C134.567 119.473 135.102 120.081 135.988 120.266C136.098 120.284 136.172 120.45 136.246 120.543C136.135 120.635 136.043 120.782 135.932 120.782C134.18 120.911 132.557 120.782 131.469 119.085C130.694 117.85 129.809 116.688 128.961 115.507C128.481 114.843 127.835 114.53 127.005 114.585C126.618 114.604 126.397 114.733 126.397 115.139C126.434 116.577 126.489 117.997 126.544 119.436C126.563 119.786 126.729 120.008 127.135 120.026C127.559 120.045 127.983 120.118 128.389 120.229C128.573 120.266 128.721 120.45 128.887 120.561C128.702 120.635 128.499 120.782 128.315 120.801C127.688 120.838 127.042 120.819 126.415 120.819C125.014 120.819 123.63 120.838 122.229 120.801C122.044 120.801 121.841 120.635 121.657 120.561C121.823 120.45 122.007 120.34 122.173 120.229C122.247 120.192 122.339 120.192 122.413 120.174C123.815 119.934 123.944 119.934 123.962 118.532C124.018 115.12 123.944 111.708 123.944 108.277C123.944 107.743 123.649 107.613 123.224 107.521C122.21 107.318 121.196 107.115 120.2 106.894C120.2 106.894 120.2 106.876 120.218 106.839ZM126.36 111.431C126.378 111.431 126.378 111.431 126.397 111.431C126.397 111.763 126.397 112.114 126.397 112.446C126.397 113.755 126.397 113.774 127.706 113.681C128.795 113.608 129.735 113.239 130.159 112.114C130.897 110.122 129.403 107.945 127.282 107.872C126.803 107.853 126.526 108.001 126.508 108.536C126.489 109.495 126.415 110.454 126.36 111.431ZM124.848 119.786C124.903 119.786 124.94 119.786 124.995 119.786C124.995 115.821 124.995 111.837 124.995 107.872C124.94 107.872 124.903 107.872 124.848 107.872C124.848 111.855 124.848 115.821 124.848 119.786Z" fill="white"/>
<path d="M136.836 114.437C136.855 110.232 139.548 107.152 143.089 106.728C144.103 106.599 145.155 106.599 146.169 106.746C149.895 107.244 152.68 110.878 152.256 114.603C151.905 117.702 149.323 120.376 146.206 120.837C143.716 121.206 141.392 120.856 139.419 119.196C137.703 117.776 136.873 115.95 136.836 114.437ZM139.289 113.737C139.326 113.755 139.345 113.755 139.382 113.773C139.437 114.345 139.474 114.899 139.566 115.47C140.027 117.997 142.056 119.842 144.398 119.897C146.87 119.952 148.954 118.311 149.434 115.71C149.655 114.53 149.618 113.276 149.489 112.077C149.212 109.716 147.349 107.945 145.081 107.687C142.831 107.429 140.765 108.701 139.935 110.952C139.603 111.818 139.511 112.796 139.289 113.737ZM150.337 111.136C150.337 112.778 150.337 114.437 150.337 116.097C150.964 114.437 150.872 112.778 150.337 111.136ZM138.035 115.581C138.035 114.235 138.035 112.888 138.035 111.597C137.519 112.87 137.5 114.216 138.035 115.581Z" fill="white"/>
<path d="M118.373 115.213C119.277 115.213 120.199 115.194 121.103 115.231C121.287 115.231 121.472 115.397 121.675 115.489C121.527 115.6 121.38 115.766 121.214 115.821C120.107 116.153 120.107 116.153 120.052 117.315C120.015 117.961 119.996 118.625 119.923 119.27C119.904 119.473 119.72 119.75 119.535 119.824C117.211 120.801 114.832 121.318 112.305 120.764C109.004 120.045 106.864 117.426 106.809 114.088C106.772 110.657 108.985 107.632 112.176 106.895C113.135 106.673 114.131 106.655 115.127 106.636C116.418 106.618 117.709 106.729 118.982 106.729C119.462 106.729 119.664 106.876 119.664 107.393C119.664 108.167 119.738 108.96 119.757 109.735C119.757 109.882 119.609 110.048 119.535 110.196C119.406 110.085 119.222 109.993 119.166 109.846C119 109.403 118.927 108.942 118.761 108.518C118.687 108.315 118.466 108.057 118.281 108.02C116.677 107.669 115.072 107.503 113.449 107.891C109.963 108.757 109.078 112.096 109.447 114.42C110.018 118.145 113.357 120.359 117.027 119.473C117.23 119.418 117.525 119.104 117.543 118.902C117.599 118.108 117.599 117.297 117.543 116.504C117.525 116.338 117.285 116.08 117.101 116.043C116.566 115.914 116.013 115.877 115.478 115.766C115.33 115.729 115.201 115.563 115.072 115.471C115.219 115.379 115.367 115.231 115.515 115.231C116.474 115.194 117.414 115.213 118.373 115.213ZM108.008 112.225C107.123 113.903 108.026 117.205 109.207 117.85C107.953 116.098 107.768 114.254 108.008 112.225Z" fill="white"/>
<path d="M213 0V165" stroke="white" stroke-width="2"/>
</g>
<defs>
<clipPath id="clip0">
<rect width="562" height="165" fill="white"/>
</clipPath>
</defs>
</svg>
