<svg width="56" height="23" viewBox="0 0 56 23" fill="none" xmlns="http://www.w3.org/2000/svg">
<g clip-path="url(#clip0)">
<path d="M49.1407 15.9325C49.0729 15.8196 49.0334 15.7406 48.9826 15.6672C47.8028 13.8777 46.4649 12.2068 45.0819 10.5753C44.5569 9.96002 44.0149 9.36164 43.4843 8.75197C43.3658 8.61085 43.298 8.6052 43.1343 8.72375C42.6884 9.04552 42.5416 9.44632 42.5698 9.99389C42.6319 11.089 42.6037 12.1898 42.6488 13.2906C42.6827 14.1035 42.773 14.9107 42.8295 15.7236C42.8408 15.8535 42.8972 15.8986 43.0214 15.9099C43.8625 16.0115 44.698 16.1188 45.5391 16.2204C45.6915 16.2373 45.748 16.2994 45.748 16.4575C45.7367 17.0107 45.8157 16.9373 45.2794 16.9373C42.6771 16.9373 40.0803 16.9373 37.4779 16.9373C34.6949 16.9373 31.9176 16.9373 29.1345 16.9373C28.8466 16.9373 28.841 16.9373 28.8466 16.6494C28.8523 16.2317 28.7845 16.2769 29.2136 16.2035C29.7103 16.1188 30.2015 16.0341 30.7321 15.9438C30.6813 15.8422 30.6418 15.7688 30.5966 15.6954C29.541 14.0809 28.3499 12.568 27.108 11.089C26.4418 10.2987 25.7475 9.53099 25.0757 8.74633C24.9515 8.59956 24.8838 8.62778 24.737 8.72939C24.2854 9.04552 24.1386 9.44632 24.1725 9.99953C24.2346 11.0947 24.2064 12.1955 24.2515 13.2963C24.2854 14.1091 24.3701 14.9164 24.4322 15.7293C24.4435 15.8591 24.4999 15.9043 24.6241 15.9212C25.4652 16.0228 26.3007 16.1301 27.1418 16.2317C27.2942 16.2486 27.3563 16.3051 27.3507 16.4631C27.3394 17.022 27.4184 16.943 26.8652 16.943C24.2628 16.943 21.6661 16.943 19.0637 16.943C16.2807 16.943 13.5033 16.943 10.7203 16.943C10.3929 16.943 10.3929 16.943 10.3929 16.6099C10.3929 16.5535 10.3985 16.4914 10.3929 16.4349C10.3873 16.3107 10.4437 16.243 10.5735 16.2317C11.4259 16.1301 12.2784 16.0172 13.1308 15.9212C13.3058 15.8986 13.3509 15.8365 13.3114 15.6728C13.0291 14.4027 12.6058 13.1777 12.0187 12.0092C11.9453 11.8624 11.855 11.8229 11.7026 11.8229C9.66469 11.8285 7.62682 11.8285 5.58894 11.8229C5.42524 11.8229 5.34621 11.8737 5.28976 12.0261C4.87767 13.1946 4.45993 14.3632 4.04784 15.5317C4.03091 15.5825 4.02526 15.6333 4.00832 15.6785C3.95187 15.8309 4.00268 15.8986 4.16639 15.9156C4.97928 16.0115 5.79217 16.1244 6.60506 16.226C6.74618 16.243 6.80828 16.3051 6.80828 16.4519C6.80264 17.022 6.8478 16.943 6.34538 16.943C4.32445 16.943 2.30916 16.943 0.288223 16.943C0.000324368 16.943 0.000324445 16.943 0.000324445 16.6494C0.00596951 16.2204 -0.0561263 16.2825 0.367254 16.1978C0.880956 16.0962 1.39466 16.0002 1.90836 15.9156C2.08336 15.8873 2.17932 15.8083 2.25835 15.6615C2.92447 14.4648 3.41559 13.1946 3.91236 11.9245C5.45346 8.03505 6.98892 4.15124 8.51309 0.261787C8.58648 0.0698545 8.68244 -0.0148216 8.89131 0.00211365C9.15663 0.0190489 9.42195 0.0190489 9.68727 0.00211365C9.85662 -0.0091765 9.93565 0.0642094 9.99774 0.216626C10.9856 2.58191 11.9792 4.9472 12.9783 7.30684C13.8025 9.25439 14.6154 11.2019 15.4678 13.1325C15.8517 14.0075 16.3315 14.8374 16.7605 15.6954C16.8283 15.8309 16.9242 15.893 17.071 15.9156C17.5 15.9946 17.9291 16.1244 18.3637 16.1696C18.6968 16.2035 19.0411 16.164 19.3799 16.1301C19.854 16.0849 20.3282 16.0059 20.8024 15.9494C20.9379 15.9325 20.9943 15.8873 21.0056 15.7462C21.079 14.7866 21.1637 13.8269 21.2371 12.8729C21.4177 10.4229 21.3669 7.96166 21.3443 5.50606C21.3274 4.16253 21.1976 2.82465 21.1129 1.48677C21.1016 1.32306 21.0452 1.22709 20.8532 1.20451C20.1306 1.10855 19.4137 0.984356 18.6912 0.882745C18.5105 0.854519 18.4315 0.798069 18.4371 0.606136C18.4541 0.103725 18.3807 0.165821 18.8887 0.165821C21.6097 0.165821 24.3362 0.165821 27.0571 0.165821C27.3563 0.165821 27.3563 0.165821 27.3563 0.465009C27.3563 0.848874 27.4015 0.848874 27.0007 0.89968C26.2104 1.00129 25.4257 1.11984 24.6411 1.22709C24.4943 1.24403 24.4491 1.30048 24.4322 1.44161C24.2346 3.30448 24.1951 5.16735 24.2177 7.03587C24.2177 7.10361 24.229 7.17135 24.2459 7.30684C26.5434 5.41009 28.6491 3.3948 30.67 1.20451C30.2748 1.14242 29.9474 1.08597 29.62 1.03516C29.2587 0.978711 28.8918 0.927905 28.5305 0.871455C28.4063 0.854519 28.3386 0.798069 28.3442 0.656942C28.3555 0.0867897 28.2765 0.165821 28.8184 0.165821C30.8676 0.165821 32.9224 0.165821 34.9715 0.165821C35.2764 0.165821 35.2764 0.165821 35.2764 0.459364C35.2764 0.89968 35.3102 0.831939 34.9038 0.905325C34.3449 1.00694 33.7861 1.1029 33.2216 1.19322C33.0127 1.22709 32.8264 1.29483 32.6684 1.44161C31.8498 2.1924 31.02 2.93755 30.2015 3.68834C29.2136 4.5972 28.2313 5.52299 27.2378 6.4262C27.0854 6.56169 27.0854 6.65765 27.1983 6.80442C27.8644 7.66247 28.5079 8.53746 29.1966 9.37293C30.4724 10.9197 31.7538 12.4608 33.0635 13.9737C33.5885 14.5777 34.1925 15.1083 34.7627 15.6728C34.9038 15.814 35.0675 15.893 35.2707 15.9212C35.8127 16.0059 36.3489 16.1357 36.8909 16.1978C37.1788 16.2317 37.4836 16.164 37.7771 16.1301C38.2513 16.0736 38.7255 16.0059 39.1997 15.9494C39.3352 15.9325 39.3916 15.8873 39.4029 15.7462C39.4763 14.7866 39.561 13.8269 39.6344 12.8729C39.815 10.4229 39.7642 7.96166 39.7416 5.50606C39.7247 4.16253 39.5948 2.82465 39.5102 1.48677C39.4989 1.32306 39.4424 1.22709 39.2505 1.20451C38.5279 1.10855 37.811 0.984356 37.0884 0.882745C36.9078 0.854519 36.8288 0.798069 36.8401 0.606136C36.857 0.103725 36.7836 0.165821 37.2917 0.165821C40.0126 0.165821 42.7392 0.165821 45.4601 0.165821C45.7593 0.165821 45.7593 0.165821 45.7593 0.465009C45.7593 0.848874 45.8044 0.848874 45.4036 0.89968C44.6133 1.00129 43.8287 1.11984 43.044 1.22709C42.8972 1.24403 42.8521 1.30048 42.8351 1.44161C42.6375 3.30448 42.598 5.16735 42.6206 7.03587C42.6206 7.10361 42.6319 7.17135 42.6488 7.30684C44.9464 5.41009 47.052 3.3948 49.0729 1.20451C48.6778 1.14242 48.3504 1.08597 48.0229 1.03516C47.6617 0.978711 47.2947 0.927905 46.9334 0.871455C46.8092 0.854519 46.7415 0.798069 46.7472 0.656942C46.7584 0.0867897 46.6794 0.165821 47.2213 0.165821C49.2705 0.165821 51.3253 0.165821 53.3745 0.165821C53.6793 0.165821 53.6793 0.165821 53.6793 0.459364C53.6793 0.89968 53.7132 0.831939 53.3067 0.905325C52.7479 1.00694 52.189 1.1029 51.6245 1.19322C51.4156 1.22709 51.2293 1.29483 51.0713 1.44161C50.2527 2.1924 49.4229 2.93755 48.6044 3.68834C47.6165 4.5972 46.6343 5.52299 45.6407 6.4262C45.4883 6.56169 45.4883 6.65765 45.6012 6.81007C46.2673 7.66812 46.9109 8.54311 47.5996 9.37858C48.8753 10.9253 50.1568 12.4664 51.4664 13.9793C51.9745 14.5664 52.5616 15.0745 53.1091 15.6277C53.2954 15.8196 53.51 15.9099 53.7696 15.9494C54.3116 16.0341 54.8535 16.1357 55.3954 16.226C55.5478 16.2486 55.6156 16.3107 55.6099 16.4801C55.593 17.0107 55.672 16.943 55.1414 16.943C52.6067 16.943 50.0721 16.943 47.5318 16.943C47.2439 16.943 47.2439 16.943 47.2439 16.6494C47.2496 16.2317 47.1875 16.2769 47.6109 16.2035C48.1076 16.1131 48.5987 16.0285 49.1407 15.9325ZM11.3695 10.4794C10.5453 8.3173 9.61952 6.20605 8.54696 4.1456C7.55343 6.22298 6.71796 8.35117 5.89378 10.485C6.4978 10.6713 10.7203 10.6769 11.3695 10.4794ZM22.4395 8.56569C22.4395 6.19476 22.4395 3.81818 22.4338 1.44725C22.4338 1.36258 22.383 1.21016 22.3605 1.21016C22.1911 1.2158 22.2645 1.36258 22.2645 1.44725C22.2588 6.19476 22.2588 10.9366 22.2645 15.6841C22.2645 15.7688 22.1967 15.9156 22.3605 15.9212C22.383 15.9212 22.4338 15.7688 22.4338 15.6841C22.4395 13.3132 22.4395 10.9423 22.4395 8.56569ZM40.8424 8.56569C40.8424 6.19476 40.8424 3.81818 40.8368 1.44725C40.8368 1.36258 40.786 1.21016 40.7634 1.21016C40.594 1.2158 40.6674 1.36258 40.6674 1.44725C40.6618 6.19476 40.6618 10.9366 40.6674 15.6841C40.6674 15.7688 40.5997 15.9156 40.7634 15.9212C40.786 15.9212 40.8368 15.7688 40.8368 15.6841C40.8424 13.3132 40.8424 10.9423 40.8424 8.56569ZM14.6436 15.8704C14.6662 15.8591 14.6888 15.8535 14.7114 15.8422C12.8485 11.3769 10.98 6.90604 9.11711 2.44078C9.09453 2.45207 9.06631 2.46336 9.04373 2.47465C10.9066 6.93426 12.7751 11.4052 14.6436 15.8704ZM25.6741 7.79796C25.6572 7.80925 25.6459 7.82618 25.6289 7.83747C25.7814 8.13666 32.1942 15.8817 32.3522 15.8873C30.1281 13.1946 27.8983 10.4963 25.6741 7.79796ZM50.6705 15.9551C50.6987 15.9325 50.7213 15.9099 50.7495 15.8873C48.5254 13.189 46.2956 10.4963 44.0714 7.79796C44.0488 7.81489 44.0262 7.83747 44.0037 7.85441C46.2278 10.5584 48.452 13.2567 50.6705 15.9551Z" fill="white"/>
<path d="M53.2959 20.7701C53.2959 21.1484 53.2789 21.4927 53.3015 21.8427C53.3354 22.3225 53.3467 22.3225 53.8209 22.4072C53.8999 22.4242 53.9789 22.4354 54.058 22.4524C54.0636 22.4693 54.0693 22.4919 54.0749 22.5088C54.0184 22.5371 53.9563 22.5935 53.8999 22.5935C53.2338 22.5991 52.5677 22.5991 51.9015 22.5935C51.862 22.5935 51.8225 22.554 51.783 22.5314C51.8169 22.4975 51.8507 22.4354 51.8903 22.4242C52.037 22.3903 52.1838 22.3621 52.3306 22.3508C52.4435 22.3395 52.4886 22.2887 52.4886 22.1758C52.5056 21.1992 52.5281 20.2282 52.5394 19.2516C52.5394 19.0597 52.5281 18.8621 52.4943 18.6758C52.483 18.6137 52.4096 18.5403 52.3475 18.5234C52.0144 18.4162 51.6814 18.467 51.354 18.546C51.2975 18.5573 51.2241 18.642 51.2185 18.6984C51.1846 19.071 51.1564 19.4436 51.1507 19.8218C51.1395 20.2847 51.1508 20.7532 51.1451 21.2161C51.1338 22.0234 50.8008 22.4354 50.0048 22.5822C49.4516 22.6838 48.8984 22.6725 48.3508 22.5258C47.7411 22.3564 47.4363 21.9556 47.4306 21.3234C47.4194 20.5331 47.4081 19.7484 47.3968 18.9581C47.3911 18.5742 47.3855 18.5742 47.0186 18.5065C46.9678 18.4952 46.9113 18.5008 46.8661 18.4782C46.8323 18.4613 46.8097 18.4162 46.7871 18.3879C46.8153 18.3653 46.8379 18.3371 46.8718 18.3202C46.8887 18.3089 46.9113 18.3145 46.9282 18.3145C47.5548 18.3145 48.1814 18.3145 48.808 18.3202C48.8588 18.3202 48.9097 18.371 48.9548 18.3992C48.904 18.4274 48.8589 18.4782 48.8024 18.4839C48.1814 18.5686 48.1702 18.5686 48.1589 19.1952C48.1419 19.9121 48.1137 20.629 48.1419 21.3459C48.1645 21.9556 48.5089 22.2604 49.1242 22.3056C49.2597 22.3169 49.3951 22.3169 49.5306 22.3C50.129 22.2096 50.4282 21.9161 50.4395 21.2669C50.4564 20.4202 50.4056 19.5734 50.3887 18.7323C50.3887 18.6081 50.3266 18.5629 50.2137 18.546C50.0725 18.5291 49.9314 18.5178 49.7903 18.4895C49.7338 18.4782 49.683 18.4274 49.6322 18.3936C49.683 18.371 49.7395 18.3258 49.7903 18.3258C50.3096 18.3202 50.8233 18.3258 51.3427 18.3202C52.1951 18.3089 53.0475 18.292 53.8999 18.2863C54.0749 18.2863 54.2499 18.3033 54.4192 18.3371C55.4805 18.5516 55.5313 19.754 55.0628 20.296C54.662 20.7589 54.1483 20.8661 53.5725 20.8097C53.4935 20.7927 53.4031 20.7814 53.2959 20.7701ZM53.262 19.7766C53.2677 19.7766 53.2677 19.7766 53.2733 19.7766C53.2733 19.8839 53.2733 19.9968 53.2733 20.104C53.2733 20.6742 53.2789 20.6798 53.8434 20.5613C54.4192 20.4371 54.7128 20.0024 54.6055 19.4379C54.4926 18.8452 54.0523 18.5234 53.4822 18.6081C53.3693 18.625 53.3128 18.6758 53.3128 18.7944C53.3015 19.1218 53.2789 19.4492 53.262 19.7766ZM50.637 21.7016C50.7274 21.5322 50.8008 18.8903 50.6935 18.6081C50.6766 18.6081 50.6596 18.6081 50.637 18.6081C50.637 19.6524 50.637 20.7081 50.637 21.7016ZM52.7822 22.2717C52.7935 22.2717 52.8048 22.2717 52.8104 22.2717C52.8104 21.0468 52.8104 19.8274 52.8104 18.6024C52.7991 18.6024 52.7878 18.6024 52.7822 18.6024C52.7822 19.8274 52.7822 21.0468 52.7822 22.2717ZM47.6677 18.6024C47.6621 18.6194 47.6508 18.6363 47.6508 18.6532C47.6508 19.5847 47.6452 20.5105 47.6565 21.4419C47.6565 21.5887 47.7355 21.7355 47.7806 21.8766C47.5944 20.7814 47.775 19.6863 47.6677 18.6024ZM54.8313 20.0024C55.0063 19.6919 54.9217 19.0823 54.6846 18.9073C54.7297 19.0766 54.8031 19.2516 54.8257 19.4323C54.8483 19.6242 54.8313 19.8161 54.8313 20.0024Z" fill="white"/>
<path d="M36.7947 18.3148C37.6245 18.3148 38.4487 18.3091 39.2785 18.3148C39.8938 18.3204 40.3737 18.6535 40.5656 19.1728C40.7463 19.6696 40.5769 20.1551 40.1197 20.426C40.0688 20.4542 40.0237 20.4881 39.9955 20.4994C40.3511 20.9962 40.6955 21.4873 41.0398 21.9728C41.1866 22.1816 41.3503 22.3679 41.6212 22.4244C41.6551 22.43 41.6777 22.4808 41.7003 22.5091C41.6664 22.5373 41.6382 22.5824 41.6043 22.5824C41.068 22.622 40.5713 22.5824 40.2382 22.0631C40.0011 21.6849 39.7301 21.3292 39.4705 20.9679C39.3237 20.7647 39.1261 20.6688 38.8721 20.6857C38.7535 20.6913 38.6858 20.7309 38.6858 20.855C38.6971 21.2954 38.714 21.73 38.731 22.1703C38.7366 22.2776 38.7874 22.3453 38.9116 22.351C39.0414 22.3566 39.1713 22.3792 39.2955 22.4131C39.3519 22.4244 39.3971 22.4808 39.4479 22.5147C39.3914 22.5373 39.3293 22.5824 39.2729 22.5881C39.081 22.5994 38.8834 22.5937 38.6914 22.5937C38.2624 22.5937 37.839 22.5994 37.41 22.5881C37.3536 22.5881 37.2915 22.5373 37.235 22.5147C37.2858 22.4808 37.3423 22.447 37.3931 22.4131C37.4157 22.4018 37.4439 22.4018 37.4665 22.3962C37.8955 22.3228 37.935 22.3228 37.9407 21.8937C37.9576 20.8494 37.935 19.8051 37.935 18.7551C37.935 18.5914 37.8447 18.5519 37.7149 18.5236C37.4044 18.4615 37.0939 18.3994 36.7891 18.3317C36.7891 18.3317 36.7891 18.3261 36.7947 18.3148ZM38.6745 19.7204C38.6802 19.7204 38.6802 19.7204 38.6858 19.7204C38.6858 19.822 38.6858 19.9293 38.6858 20.0309C38.6858 20.4317 38.6858 20.4373 39.0866 20.4091C39.4197 20.3865 39.7076 20.2736 39.8374 19.9293C40.0632 19.3196 39.606 18.6535 38.9568 18.6309C38.81 18.6252 38.7253 18.6704 38.7197 18.8341C38.714 19.1277 38.6914 19.4212 38.6745 19.7204ZM38.2116 22.2776C38.2286 22.2776 38.2398 22.2776 38.2568 22.2776C38.2568 21.0639 38.2568 19.8446 38.2568 18.6309C38.2398 18.6309 38.2286 18.6309 38.2116 18.6309C38.2116 19.8502 38.2116 21.0639 38.2116 22.2776Z" fill="white"/>
<path d="M41.8809 20.6404C41.8865 19.3533 42.7107 18.4106 43.7945 18.2807C44.105 18.2412 44.4268 18.2412 44.7373 18.2864C45.8776 18.4388 46.73 19.5509 46.6001 20.6912C46.4929 21.6396 45.7026 22.4581 44.7486 22.5992C43.9865 22.7121 43.2752 22.6049 42.6712 22.0968C42.1462 21.6621 41.8921 21.1033 41.8809 20.6404ZM42.6317 20.4259C42.6429 20.4315 42.6486 20.4315 42.6599 20.4372C42.6768 20.6122 42.6881 20.7815 42.7163 20.9565C42.8575 21.7299 43.4784 22.2944 44.1953 22.3113C44.9518 22.3283 45.5897 21.8258 45.7364 21.0299C45.8042 20.6686 45.7929 20.2847 45.7534 19.9178C45.6687 19.1952 45.0986 18.6533 44.4042 18.5743C43.7155 18.4952 43.0833 18.8848 42.8292 19.5735C42.7276 19.8388 42.6994 20.138 42.6317 20.4259ZM46.0131 19.6299C46.0131 20.1323 46.0131 20.6404 46.0131 21.1484C46.205 20.6404 46.1768 20.1323 46.0131 19.6299ZM42.2478 20.9904C42.2478 20.5783 42.2478 20.1662 42.2478 19.771C42.0897 20.1605 42.0841 20.5726 42.2478 20.9904Z" fill="white"/>
<path d="M36.23 20.8777C36.5066 20.8777 36.7889 20.872 37.0655 20.8833C37.1219 20.8833 37.1784 20.9341 37.2405 20.9623C37.1953 20.9962 37.1502 21.047 37.0994 21.064C36.7607 21.1656 36.7607 21.1656 36.7437 21.5212C36.7324 21.7188 36.7268 21.922 36.7042 22.1196C36.6986 22.1817 36.6421 22.2664 36.5857 22.2889C35.8744 22.5881 35.1462 22.7462 34.3728 22.5768C33.3623 22.3567 32.7075 21.5551 32.6906 20.5333C32.6793 19.4833 33.3567 18.5575 34.3333 18.3317C34.6268 18.264 34.9317 18.2584 35.2365 18.2527C35.6317 18.2471 36.0268 18.2809 36.4163 18.2809C36.5631 18.2809 36.6252 18.3261 36.6252 18.4842C36.6252 18.7213 36.6478 18.964 36.6534 19.2011C36.6534 19.2462 36.6082 19.297 36.5857 19.3422C36.5462 19.3083 36.4897 19.2801 36.4728 19.235C36.422 19.0995 36.3994 18.9583 36.3486 18.8285C36.326 18.7664 36.2583 18.6874 36.2018 18.6761C35.7107 18.5688 35.2196 18.518 34.7228 18.6366C33.6559 18.9019 33.3849 19.9237 33.4978 20.6349C33.6728 21.7752 34.6946 22.4526 35.8179 22.1817C35.88 22.1647 35.9704 22.0688 35.976 22.0067C35.9929 21.7639 35.9929 21.5156 35.976 21.2728C35.9704 21.222 35.897 21.143 35.8405 21.1317C35.6768 21.0922 35.5075 21.0809 35.3438 21.047C35.2986 21.0357 35.2591 20.9849 35.2196 20.9567C35.2647 20.9285 35.3099 20.8833 35.355 20.8833C35.6486 20.872 35.9365 20.8777 36.23 20.8777ZM33.0575 19.9632C32.7865 20.4769 33.0631 21.4873 33.4244 21.6849C33.0406 21.1486 32.9841 20.5841 33.0575 19.9632Z" fill="white"/>
</g>
<defs>
<clipPath id="clip0">
<rect width="56" height="23" fill="white"/>
</clipPath>
</defs>
</svg>
