<svg width="71" height="29" viewBox="0 0 71 29" fill="none" xmlns="http://www.w3.org/2000/svg">
<g clip-path="url(#clip0)">
<path d="M62.74 19.8957C62.6535 19.7547 62.6031 19.656 62.5382 19.5644C61.0319 17.3298 59.3237 15.2432 57.558 13.2059C56.8877 12.4376 56.1958 11.6903 55.5183 10.929C55.3669 10.7528 55.2804 10.7457 55.0714 10.8938C54.5021 11.2956 54.3147 11.7961 54.3507 12.4799C54.43 13.8474 54.394 15.222 54.4516 16.5966C54.4949 17.6117 54.6102 18.6198 54.6822 19.6349C54.6967 19.797 54.7687 19.8534 54.9273 19.8675C56.0012 19.9944 57.0679 20.1283 58.1418 20.2552C58.3363 20.2764 58.4084 20.3539 58.4084 20.5513C58.394 21.2421 58.4949 21.1505 57.8102 21.1505C54.4876 21.1505 51.1723 21.1505 47.8497 21.1505C44.2965 21.1505 40.7505 21.1505 37.1973 21.1505C36.8297 21.1505 36.8225 21.1505 36.8297 20.7909C36.837 20.2693 36.7505 20.3257 37.2982 20.2341C37.9325 20.1283 38.5595 20.0226 39.237 19.9098C39.1721 19.7829 39.1217 19.6913 39.064 19.5996C37.7162 17.5835 36.1955 15.6943 34.6099 13.8474C33.7594 12.8605 32.8729 11.9018 32.0153 10.922C31.8567 10.7387 31.7702 10.7739 31.5828 10.9008C31.0062 11.2956 30.8189 11.7961 30.8621 12.4869C30.9414 13.8545 30.9053 15.2291 30.963 16.6037C31.0062 17.6188 31.1144 18.6268 31.1936 19.6419C31.208 19.804 31.2801 19.8604 31.4387 19.8816C32.5126 20.0085 33.5793 20.1424 34.6531 20.2693C34.8477 20.2904 34.927 20.3609 34.9198 20.5583C34.9054 21.2562 35.0063 21.1575 34.3 21.1575C30.9774 21.1575 27.6621 21.1575 24.3395 21.1575C20.7863 21.1575 17.2403 21.1575 13.6871 21.1575C13.2691 21.1575 13.2691 21.1575 13.2691 20.7416C13.2691 20.6711 13.2763 20.5936 13.2691 20.5231C13.2619 20.368 13.3339 20.2834 13.4997 20.2693C14.588 20.1424 15.6763 20.0014 16.7646 19.8816C16.988 19.8534 17.0457 19.7759 16.9952 19.5714C16.6349 17.9853 16.0943 16.4556 15.3448 14.9964C15.2511 14.8132 15.1358 14.7638 14.9412 14.7638C12.3393 14.7709 9.73748 14.7709 7.13565 14.7638C6.92663 14.7638 6.82573 14.8273 6.75366 15.0176C6.22753 16.4768 5.69419 17.936 5.16805 19.3952C5.14643 19.4586 5.13922 19.5221 5.1176 19.5785C5.04553 19.7688 5.11039 19.8534 5.31941 19.8745C6.35726 19.9944 7.39511 20.1354 8.43296 20.2623C8.61314 20.2834 8.69242 20.3609 8.69242 20.5442C8.68522 21.2562 8.74288 21.1575 8.10143 21.1575C5.52121 21.1575 2.9482 21.1575 0.367987 21.1575C0.000414133 21.1575 0.000414227 21.1575 0.000414227 20.7909C0.00762153 20.2552 -0.0716588 20.3327 0.468889 20.227C1.12475 20.1001 1.78062 19.9803 2.43648 19.8745C2.65991 19.8393 2.78243 19.7406 2.88334 19.5573C3.7338 18.0629 4.36083 16.4768 4.99508 14.8907C6.96267 10.0338 8.92306 5.18386 10.869 0.326906C10.9627 0.0872306 11.0852 -0.0185084 11.3519 0.00263941C11.6907 0.0237872 12.0294 0.0237872 12.3682 0.00263941C12.5844 -0.0114591 12.6853 0.0801814 12.7646 0.270512C14.0258 3.22416 15.2943 6.1778 16.57 9.1244C17.6223 11.5564 18.6601 13.9884 19.7484 16.3993C20.2385 17.4919 20.8512 18.5281 21.3989 19.5996C21.4854 19.7688 21.6079 19.8463 21.7953 19.8745C22.3431 19.9732 22.8908 20.1354 23.4458 20.1918C23.871 20.2341 24.3107 20.1847 24.7431 20.1424C25.3485 20.086 25.9539 19.9873 26.5593 19.9168C26.7323 19.8957 26.8044 19.8393 26.8188 19.6631C26.9125 18.4647 27.0206 17.2663 27.1143 16.075C27.3449 13.0156 27.2801 9.94211 27.2512 6.87568C27.2296 5.19795 27.0638 3.52728 26.9557 1.8566C26.9413 1.65217 26.8693 1.53233 26.6242 1.50413C25.7017 1.3843 24.7863 1.22921 23.8638 1.10233C23.6332 1.06708 23.5323 0.996587 23.5395 0.756912C23.5611 0.129526 23.4674 0.207068 24.1161 0.207068C27.59 0.207068 31.0711 0.207068 34.545 0.207068C34.927 0.207068 34.927 0.207068 34.927 0.58068C34.927 1.06003 34.9847 1.06003 34.473 1.12347C33.4639 1.25036 32.4621 1.3984 31.4603 1.53233C31.2729 1.55348 31.2153 1.62397 31.1936 1.8002C30.9414 4.12646 30.8909 6.45272 30.9198 8.78603C30.9198 8.87063 30.9342 8.95522 30.9558 9.1244C33.8892 6.75584 36.5775 4.23925 39.1577 1.50413C38.6532 1.42659 38.2352 1.3561 37.8171 1.29266C37.3559 1.22216 36.8874 1.15872 36.4261 1.08823C36.2676 1.06708 36.1811 0.996587 36.1883 0.820355C36.2027 0.108378 36.1018 0.207068 36.7937 0.207068C39.41 0.207068 42.0334 0.207068 44.6497 0.207068C45.0389 0.207068 45.0389 0.207068 45.0389 0.573631C45.0389 1.12347 45.0821 1.03888 44.5632 1.13052C43.8497 1.25741 43.1361 1.37725 42.4154 1.49004C42.1487 1.53233 41.9109 1.61692 41.7091 1.8002C40.664 2.73776 39.6046 3.66826 38.5595 4.60581C37.2982 5.74075 36.0442 6.89683 34.7757 8.02471C34.5811 8.1939 34.5811 8.31373 34.7252 8.49701C35.5757 9.5685 36.3973 10.6611 37.2766 11.7044C38.9054 13.6359 40.5415 15.5604 42.2136 17.4496C42.8839 18.2039 43.6551 18.8665 44.383 19.5714C44.5632 19.7477 44.7722 19.8463 45.0317 19.8816C45.7236 19.9873 46.4083 20.1495 47.1002 20.227C47.4677 20.2693 47.8569 20.1847 48.2317 20.1424C48.8371 20.0719 49.4425 19.9873 50.0479 19.9168C50.2209 19.8957 50.293 19.8393 50.3074 19.6631C50.4011 18.4647 50.5092 17.2663 50.6029 16.075C50.8335 13.0156 50.7687 9.94211 50.7398 6.87568C50.7182 5.19795 50.5525 3.52728 50.4443 1.8566C50.4299 1.65217 50.3579 1.53233 50.1128 1.50413C49.1903 1.3843 48.2749 1.22921 47.3524 1.10233C47.1218 1.06708 47.0209 0.996587 47.0353 0.756912C47.0569 0.129526 46.9632 0.207068 47.6119 0.207068C51.0858 0.207068 54.5669 0.207068 58.0408 0.207068C58.4228 0.207068 58.4228 0.207068 58.4228 0.58068C58.4228 1.06003 58.4805 1.06003 57.9688 1.12347C56.9598 1.25036 55.9579 1.3984 54.9561 1.53233C54.7687 1.55348 54.7111 1.62397 54.6894 1.8002C54.4372 4.12646 54.3867 6.45272 54.4156 8.78603C54.4156 8.87063 54.43 8.95522 54.4516 9.1244C57.385 6.75584 60.0733 4.23925 62.6535 1.50413C62.149 1.42659 61.731 1.3561 61.313 1.29266C60.8517 1.22216 60.3832 1.15872 59.922 1.08823C59.7634 1.06708 59.6769 0.996587 59.6841 0.820355C59.6985 0.108378 59.5976 0.207068 60.2895 0.207068C62.9058 0.207068 65.5292 0.207068 68.1455 0.207068C68.5347 0.207068 68.5347 0.207068 68.5347 0.573631C68.5347 1.12347 68.5779 1.03888 68.059 1.13052C67.3455 1.25741 66.632 1.37725 65.9112 1.49004C65.6446 1.53233 65.4067 1.61692 65.2049 1.8002C64.1599 2.73776 63.1004 3.66826 62.0553 4.60581C60.794 5.74075 59.54 6.89683 58.2715 8.02471C58.0769 8.1939 58.0769 8.31373 58.221 8.50406C59.0715 9.57555 59.8931 10.6682 60.7724 11.7115C62.4013 13.643 64.0373 15.5674 65.7094 17.4566C66.3581 18.1898 67.1076 18.8242 67.8067 19.515C68.0446 19.7547 68.3185 19.8675 68.65 19.9168C69.3419 20.0226 70.0338 20.1495 70.7257 20.2623C70.9203 20.2904 71.0068 20.368 70.9996 20.5795C70.978 21.2421 71.0789 21.1575 70.4014 21.1575C67.1653 21.1575 63.9292 21.1575 60.6859 21.1575C60.3184 21.1575 60.3184 21.1575 60.3184 20.7909C60.3256 20.2693 60.2463 20.3257 60.7868 20.2341C61.4211 20.1213 62.0481 20.0155 62.74 19.8957ZM14.5159 13.0861C13.4637 10.3862 12.2817 7.74979 10.9123 5.17681C9.64379 7.77094 8.57711 10.4285 7.52484 13.0931C8.29602 13.3258 13.6871 13.3328 14.5159 13.0861ZM28.6495 10.6964C28.6495 7.73569 28.6495 4.76795 28.6422 1.80725C28.6422 1.70151 28.5774 1.51118 28.5486 1.51118C28.3323 1.51823 28.426 1.70151 28.426 1.80725C28.4188 7.73569 28.4188 13.6571 28.426 19.5855C28.426 19.6913 28.3395 19.8745 28.5486 19.8816C28.5774 19.8816 28.6422 19.6913 28.6422 19.5855C28.6495 16.6248 28.6495 13.6641 28.6495 10.6964ZM52.1453 10.6964C52.1453 7.73569 52.1453 4.76795 52.1381 1.80725C52.1381 1.70151 52.0732 1.51118 52.0444 1.51118C51.8281 1.51823 51.9218 1.70151 51.9218 1.80725C51.9146 7.73569 51.9146 13.6571 51.9218 19.5855C51.9218 19.6913 51.8354 19.8745 52.0444 19.8816C52.0732 19.8816 52.1381 19.6913 52.1381 19.5855C52.1453 16.6248 52.1453 13.6641 52.1453 10.6964ZM18.6962 19.8181C18.725 19.804 18.7538 19.797 18.7827 19.7829C16.4042 14.2069 14.0186 8.6239 11.6402 3.04793C11.6114 3.06202 11.5753 3.07612 11.5465 3.09022C13.9249 8.65915 16.3105 14.2422 18.6962 19.8181ZM32.7792 9.73769C32.7576 9.75179 32.7432 9.77293 32.7216 9.78703C32.9162 10.1606 41.1037 19.8322 41.3055 19.8393C38.4658 16.4768 35.6189 13.1072 32.7792 9.73769ZM64.6932 19.9239C64.7292 19.8957 64.7581 19.8675 64.7941 19.8393C61.9544 16.4697 59.1075 13.1072 56.2678 9.73769C56.239 9.75883 56.2102 9.78703 56.1814 9.80818C59.021 13.1848 61.8607 16.5543 64.6932 19.9239Z" fill="#243247"/>
<path d="M68.0446 25.9366C68.0446 26.4089 68.023 26.839 68.0519 27.276C68.0951 27.8752 68.1095 27.8752 68.7149 27.9809C68.8158 28.0021 68.9167 28.0162 69.0176 28.0373C69.0248 28.0585 69.032 28.0867 69.0392 28.1078C68.9672 28.1431 68.8879 28.2136 68.8158 28.2136C67.9654 28.2206 67.1149 28.2206 66.2644 28.2136C66.214 28.2136 66.1635 28.1642 66.1131 28.136C66.1563 28.0937 66.1996 28.0162 66.25 28.0021C66.4374 27.9598 66.6248 27.9245 66.8122 27.9104C66.9563 27.8963 67.014 27.8329 67.014 27.6919C67.0356 26.4724 67.0644 25.2599 67.0789 24.0404C67.0789 23.8007 67.0644 23.554 67.0212 23.3214C67.0068 23.2438 66.9131 23.1522 66.8338 23.131C66.4086 22.9971 65.9834 23.0605 65.5653 23.1592C65.4933 23.1733 65.3996 23.2791 65.3924 23.3496C65.3491 23.8148 65.3131 24.2801 65.3059 24.7524C65.2915 25.3304 65.3059 25.9155 65.2987 26.4935C65.2842 27.5016 64.859 28.0162 63.8428 28.1995C63.1365 28.3264 62.4302 28.3123 61.731 28.129C60.9527 27.9175 60.5635 27.417 60.5563 26.6275C60.5418 25.6406 60.5274 24.6607 60.513 23.6738C60.5058 23.1945 60.4986 23.1945 60.0301 23.1099C59.9653 23.0958 59.8932 23.1028 59.8355 23.0746C59.7923 23.0535 59.7634 22.9971 59.7346 22.9618C59.7707 22.9337 59.7995 22.8984 59.8427 22.8773C59.8644 22.8632 59.8932 22.8702 59.9148 22.8702C60.7148 22.8702 61.5148 22.8702 62.3148 22.8773C62.3797 22.8773 62.4446 22.9407 62.5022 22.9759C62.4374 23.0112 62.3797 23.0746 62.3076 23.0817C61.5148 23.1874 61.5004 23.1874 61.486 23.9699C61.4644 24.8652 61.4283 25.7604 61.4644 26.6557C61.4932 27.417 61.9328 27.7977 62.7184 27.854C62.8914 27.8681 63.0644 27.8681 63.2374 27.847C64.0013 27.7342 64.3833 27.3676 64.3977 26.557C64.4194 25.4996 64.3545 24.4422 64.3329 23.3919C64.3329 23.2368 64.2536 23.1804 64.1095 23.1592C63.9293 23.1381 63.7491 23.124 63.5689 23.0887C63.4968 23.0746 63.432 23.0112 63.3671 22.9689C63.432 22.9407 63.504 22.8843 63.5689 22.8843C64.232 22.8773 64.8878 22.8843 65.5509 22.8773C66.6392 22.8632 67.7275 22.842 68.8158 22.835C69.0392 22.835 69.2627 22.8561 69.4789 22.8984C70.8339 23.1663 70.8987 24.6678 70.3005 25.3445C69.7888 25.9225 69.1329 26.0565 68.3978 25.986C68.2969 25.9648 68.1816 25.9507 68.0446 25.9366ZM68.0014 24.696C68.0086 24.696 68.0086 24.696 68.0158 24.696C68.0158 24.8299 68.0158 24.9709 68.0158 25.1048C68.0158 25.8168 68.023 25.8239 68.7437 25.6758C69.4789 25.5207 69.8537 24.9779 69.7167 24.273C69.5726 23.5328 69.0104 23.131 68.2825 23.2368C68.1383 23.2579 68.0663 23.3214 68.0663 23.4694C68.0518 23.8783 68.023 24.2871 68.0014 24.696ZM64.65 27.0998C64.7653 26.8883 64.859 23.5892 64.7221 23.2368C64.7005 23.2368 64.6788 23.2368 64.65 23.2368C64.65 24.5409 64.65 25.8591 64.65 27.0998ZM67.3888 27.8118C67.4032 27.8118 67.4176 27.8118 67.4248 27.8118C67.4248 26.2821 67.4248 24.7594 67.4248 23.2297C67.4104 23.2297 67.396 23.2297 67.3888 23.2297C67.3888 24.7594 67.3888 26.2821 67.3888 27.8118ZM60.859 23.2297C60.8517 23.2509 60.8373 23.272 60.8373 23.2932C60.8373 24.4563 60.8301 25.6124 60.8445 26.7755C60.8445 26.9588 60.9454 27.1421 61.0031 27.3183C60.7653 25.9507 60.9959 24.5832 60.859 23.2297ZM70.005 24.9779C70.2285 24.5902 70.1203 23.8289 69.8176 23.6104C69.8753 23.8219 69.969 24.0404 69.9978 24.266C70.0267 24.5056 70.005 24.7453 70.005 24.9779Z" fill="#243247"/>
<path d="M46.9777 22.8703C48.0371 22.8703 49.0894 22.8633 50.1489 22.8703C50.9345 22.8774 51.5471 23.2933 51.7921 23.9418C52.0228 24.5621 51.8066 25.1684 51.2228 25.5067C51.1579 25.542 51.1002 25.5843 51.0642 25.5984C51.5183 26.2187 51.9579 26.832 52.3976 27.4382C52.5849 27.6991 52.794 27.9317 53.1399 28.0022C53.1832 28.0092 53.212 28.0727 53.2408 28.1079C53.1976 28.1432 53.1615 28.1996 53.1183 28.1996C52.4336 28.2489 51.7994 28.1996 51.3741 27.551C51.0714 27.0787 50.7255 26.6346 50.3939 26.1835C50.2065 25.9297 49.9543 25.8099 49.63 25.831C49.4786 25.8381 49.3921 25.8874 49.3921 26.0425C49.4065 26.5923 49.4281 27.1351 49.4498 27.685C49.457 27.8189 49.5218 27.9035 49.6804 27.9106C49.8462 27.9176 50.0119 27.9458 50.1705 27.9881C50.2426 28.0022 50.3002 28.0727 50.3651 28.115C50.293 28.1432 50.2137 28.1996 50.1417 28.2066C49.8966 28.2207 49.6444 28.2137 49.3993 28.2137C48.8516 28.2137 48.311 28.2207 47.7633 28.2066C47.6912 28.2066 47.6119 28.1432 47.5398 28.115C47.6047 28.0727 47.6768 28.0304 47.7416 27.9881C47.7705 27.974 47.8065 27.974 47.8353 27.9669C48.3831 27.8753 48.4335 27.8753 48.4407 27.3396C48.4624 26.0354 48.4335 24.7313 48.4335 23.4202C48.4335 23.2157 48.3182 23.1664 48.1525 23.1311C47.7561 23.0536 47.3597 22.9761 46.9705 22.8915C46.9705 22.8915 46.9705 22.8844 46.9777 22.8703ZM49.3777 24.6256C49.3849 24.6256 49.3849 24.6256 49.3921 24.6256C49.3921 24.7525 49.3921 24.8864 49.3921 25.0133C49.3921 25.5138 49.3921 25.5208 49.9038 25.4856C50.3291 25.4574 50.6966 25.3164 50.8624 24.8864C51.1507 24.1251 50.5669 23.2933 49.7381 23.2651C49.5507 23.258 49.4426 23.3144 49.4354 23.5189C49.4281 23.8854 49.3993 24.252 49.3777 24.6256ZM48.7867 27.8189C48.8083 27.8189 48.8227 27.8189 48.8444 27.8189C48.8444 26.3033 48.8444 24.7807 48.8444 23.2651C48.8227 23.2651 48.8083 23.2651 48.7867 23.2651C48.7867 24.7877 48.7867 26.3033 48.7867 27.8189Z" fill="#243247"/>
<path d="M53.4714 25.7748C53.4786 24.1675 54.5309 22.9903 55.9147 22.8282C56.3111 22.7788 56.7219 22.7788 57.1183 22.8352C58.5742 23.0255 59.6625 24.4143 59.4967 25.8382C59.3598 27.0225 58.3508 28.0446 57.1327 28.2209C56.1598 28.3618 55.2516 28.2279 54.4805 27.5935C53.8102 27.0507 53.4859 26.3528 53.4714 25.7748ZM54.43 25.5069C54.4444 25.5139 54.4516 25.5139 54.466 25.521C54.4877 25.7395 54.5021 25.951 54.5381 26.1695C54.7183 27.1353 55.5111 27.8402 56.4264 27.8613C57.3922 27.8825 58.2066 27.2551 58.394 26.2612C58.4805 25.81 58.4661 25.3307 58.4156 24.8725C58.3075 23.9701 57.5796 23.2934 56.6931 23.1947C55.8138 23.096 55.0066 23.5824 54.6823 24.4424C54.5525 24.7738 54.5165 25.1474 54.43 25.5069ZM58.7472 24.5129C58.7472 25.1403 58.7472 25.7748 58.7472 26.4092C58.9922 25.7748 58.9562 25.1403 58.7472 24.5129ZM53.9399 26.2118C53.9399 25.6972 53.9399 25.1826 53.9399 24.6892C53.7381 25.1756 53.7309 25.6902 53.9399 26.2118Z" fill="#243247"/>
<path d="M46.2567 26.0712C46.6099 26.0712 46.9702 26.0641 47.3234 26.0782C47.3955 26.0782 47.4675 26.1417 47.5468 26.1769C47.4892 26.2192 47.4315 26.2827 47.3666 26.3038C46.9342 26.4307 46.9342 26.4307 46.9126 26.8748C46.8982 27.1215 46.891 27.3753 46.8621 27.622C46.8549 27.6996 46.7828 27.8053 46.7108 27.8335C45.8026 28.2071 44.8729 28.4045 43.8855 28.193C42.5954 27.9181 41.7593 26.9171 41.7377 25.6412C41.7233 24.33 42.5882 23.1739 43.8351 22.892C44.2098 22.8074 44.599 22.8003 44.9882 22.7933C45.4927 22.7862 45.9972 22.8285 46.4946 22.8285C46.6819 22.8285 46.7612 22.8849 46.7612 23.0823C46.7612 23.3784 46.7901 23.6815 46.7973 23.9776C46.7973 24.0339 46.7396 24.0974 46.7108 24.1538C46.6603 24.1115 46.5882 24.0762 46.5666 24.0198C46.5018 23.8507 46.4729 23.6744 46.4081 23.5123C46.3792 23.4348 46.2927 23.3361 46.2207 23.322C45.5936 23.188 44.9666 23.1246 44.3324 23.2726C42.9702 23.6039 42.6242 24.8799 42.7684 25.7681C42.9918 27.192 44.2963 28.0379 45.7306 27.6996C45.8099 27.6784 45.9252 27.5586 45.9324 27.481C45.954 27.1779 45.954 26.8678 45.9324 26.5646C45.9252 26.5012 45.8315 26.4025 45.7594 26.3884C45.5504 26.3391 45.3342 26.325 45.1252 26.2827C45.0675 26.2686 45.0171 26.2051 44.9666 26.1699C45.0243 26.1346 45.0819 26.0782 45.1396 26.0782C45.5144 26.0641 45.8819 26.0712 46.2567 26.0712ZM42.2062 24.9292C41.8603 25.5707 42.2134 26.8325 42.6747 27.0792C42.1846 26.4096 42.1125 25.7046 42.2062 24.9292Z" fill="#243247"/>
</g>
<defs>
<clipPath id="clip0">
<rect width="71" height="29" fill="white"/>
</clipPath>
</defs>
</svg>
