<svg width="186" height="51" viewBox="0 0 186 51" fill="none" xmlns="http://www.w3.org/2000/svg">
<g clip-path="url(#clip0)">
<path d="M82.535 15.2332C80.572 15.2332 78.297 16.5072 78.115 19.1072H76.282V16.4552C76.282 15.7142 76.451 15.5322 77.387 15.5322C77.426 15.5322 77.426 15.3762 77.387 15.3762C76.919 15.3762 76.36 15.4152 75.619 15.4152C75.008 15.4152 74.436 15.3762 73.994 15.3762C73.955 15.3762 73.955 15.5322 73.994 15.5322C74.878 15.5322 75.034 15.6882 75.034 16.4292V22.4482C75.034 23.2022 74.878 23.3452 73.981 23.3452C73.929 23.3452 73.929 23.5012 73.981 23.5012C74.423 23.5012 75.008 23.4752 75.619 23.4752C76.36 23.4752 76.906 23.5012 77.387 23.5012C77.426 23.5012 77.426 23.3452 77.387 23.3452C76.438 23.3452 76.282 23.2022 76.282 22.4482V19.4452H78.102C78.102 21.7332 79.675 23.6572 82.08 23.6572C84.459 23.6572 86.487 21.7722 86.487 19.3542C86.487 17.2612 84.992 15.2332 82.535 15.2332ZM82.405 23.3452C80.65 23.3452 79.389 21.4862 79.389 18.9772C79.389 16.8582 80.273 15.5582 81.898 15.5582C83.809 15.5582 84.979 17.3392 84.979 19.7312C84.979 22.0582 83.848 23.3452 82.405 23.3452ZM91.1275 22.3962V16.4552C91.1275 15.7142 91.2965 15.5972 91.8945 15.5972C93.0125 15.5972 93.7015 16.3772 93.7015 17.7552C93.7015 19.2112 92.9345 19.9132 92.0895 19.9132C91.9725 19.9132 91.7905 19.9002 91.6345 19.8612C91.5825 19.8482 91.5435 20.0172 91.6085 20.0302C91.8035 20.0822 92.0245 20.0952 92.2195 20.0952C93.5585 20.0952 95.1185 19.2632 95.0665 17.4692C95.0145 15.9482 93.8705 15.3372 92.2845 15.3372C91.6735 15.3372 90.9195 15.4152 90.5035 15.4152C89.8925 15.4152 89.3465 15.3762 88.9045 15.3762C88.8525 15.3762 88.8525 15.5322 88.9045 15.5322C89.7495 15.5322 89.8925 15.6882 89.8925 16.4292V22.4482C89.8925 23.2022 89.7495 23.3452 88.9045 23.3452C88.8525 23.3452 88.8525 23.5012 88.9045 23.5012C89.3465 23.5012 89.9055 23.4752 90.5165 23.4752C91.2835 23.4752 91.9205 23.5012 92.4795 23.5012C92.5185 23.5012 92.5185 23.3452 92.4795 23.3452C91.3095 23.3452 91.1275 23.1762 91.1275 22.3962ZM106.192 23.3452C105.295 23.3452 105.139 23.2022 105.139 22.4482V16.4292C105.139 15.6882 105.295 15.5322 106.192 15.5322C106.244 15.5322 106.244 15.3762 106.192 15.3762C105.75 15.3762 105.126 15.4152 104.528 15.4152C103.774 15.4152 103.228 15.3762 102.799 15.3762C102.747 15.3762 102.747 15.5322 102.799 15.5322C103.761 15.5322 103.891 15.7142 103.891 16.4552V16.8972L99.588 21.4992V16.4552C99.588 15.7142 99.757 15.5322 100.693 15.5322C100.732 15.5322 100.732 15.3762 100.693 15.3762C100.225 15.3762 99.666 15.4152 98.925 15.4152C98.314 15.4152 97.742 15.3762 97.3 15.3762C97.261 15.3762 97.261 15.5322 97.3 15.5322C98.184 15.5322 98.34 15.6882 98.34 16.4292V22.4482C98.34 23.2022 98.184 23.3452 97.287 23.3452C97.235 23.3452 97.235 23.5012 97.287 23.5012C97.729 23.5012 98.314 23.4752 98.925 23.4752C99.666 23.4752 100.212 23.5012 100.693 23.5012C100.732 23.5012 100.732 23.3452 100.693 23.3452C99.744 23.3452 99.588 23.2022 99.588 22.4482V21.9802L103.891 17.3782V22.4482C103.891 23.2022 103.761 23.3452 102.799 23.3452C102.747 23.3452 102.747 23.5012 102.799 23.5012C103.228 23.5012 103.774 23.4752 104.528 23.4752C105.126 23.4752 105.75 23.5012 106.192 23.5012C106.244 23.5012 106.244 23.3452 106.192 23.3452ZM116.423 23.3452C115.097 23.3452 115.123 23.3322 115.123 22.4482V16.4292C115.123 15.6882 115.279 15.5322 116.176 15.5322C116.228 15.5322 116.228 15.3762 116.176 15.3762H109.338C109.286 15.3762 109.286 15.5322 109.338 15.5322C110.326 15.5322 110.755 15.9742 110.755 17.8202C110.755 21.3822 109.962 23.2932 108.272 23.2932C108.129 23.2932 108.129 23.2932 108.129 23.4492C108.129 23.7872 108.311 24.2942 108.311 25.9322C108.311 26.0102 108.467 26.0102 108.467 25.9322C108.467 24.0992 109.091 23.5142 110.495 23.5142L113.888 23.5012C115.5 23.5012 116.293 24.2942 116.293 25.9322C116.293 26.0102 116.449 26.0102 116.449 25.9322C116.449 24.2942 116.579 23.9042 116.579 23.5012C116.579 23.3452 116.579 23.3452 116.423 23.3452ZM113.888 22.4222C113.888 23.2152 113.862 23.1762 113.043 23.1762H109.65C110.82 22.2012 111.119 20.3812 111.119 16.6892C111.119 15.7142 111.132 15.7012 111.886 15.7012H113.108C113.862 15.7012 113.888 15.7012 113.888 16.4552V22.4222ZM127.492 23.3452C126.595 23.3452 126.439 23.2022 126.439 22.4482V16.4292C126.439 15.6882 126.595 15.5322 127.492 15.5322C127.544 15.5322 127.544 15.3762 127.492 15.3762C127.05 15.3762 126.426 15.4152 125.828 15.4152C125.074 15.4152 124.528 15.3762 124.099 15.3762C124.047 15.3762 124.047 15.5322 124.099 15.5322C125.061 15.5322 125.191 15.7142 125.191 16.4552V16.8972L120.888 21.4992V16.4552C120.888 15.7142 121.057 15.5322 121.993 15.5322C122.032 15.5322 122.032 15.3762 121.993 15.3762C121.525 15.3762 120.966 15.4152 120.225 15.4152C119.614 15.4152 119.042 15.3762 118.6 15.3762C118.561 15.3762 118.561 15.5322 118.6 15.5322C119.484 15.5322 119.64 15.6882 119.64 16.4292V22.4482C119.64 23.2022 119.484 23.3452 118.587 23.3452C118.535 23.3452 118.535 23.5012 118.587 23.5012C119.029 23.5012 119.614 23.4752 120.225 23.4752C120.966 23.4752 121.512 23.5012 121.993 23.5012C122.032 23.5012 122.032 23.3452 121.993 23.3452C121.044 23.3452 120.888 23.2022 120.888 22.4482V21.9802L125.191 17.3782V22.4482C125.191 23.2022 125.061 23.3452 124.099 23.3452C124.047 23.3452 124.047 23.5012 124.099 23.5012C124.528 23.5012 125.074 23.4752 125.828 23.4752C126.426 23.4752 127.05 23.5012 127.492 23.5012C127.544 23.5012 127.544 23.3452 127.492 23.3452ZM137.034 23.3452C136.137 23.3452 135.968 23.2022 135.968 22.4482V16.4292C135.968 15.6882 136.137 15.5322 137.034 15.5322C137.073 15.5322 137.073 15.3762 137.034 15.3762C136.592 15.3762 136.02 15.4152 135.409 15.4152C134.798 15.4152 134.265 15.3762 133.836 15.3762C133.797 15.3762 133.797 15.5322 133.836 15.5322C134.603 15.5322 134.733 15.7142 134.733 16.4552V19.3152C134.109 19.8222 133.537 19.9912 132.978 19.9912C132.042 19.9912 131.431 19.2242 131.431 17.7422V16.4552C131.431 15.7142 131.561 15.5322 132.328 15.5322C132.367 15.5322 132.367 15.3762 132.328 15.3762C131.99 15.3762 131.561 15.4152 130.742 15.4152C129.767 15.4152 129.611 15.3762 129.26 15.3762C129.208 15.3762 129.208 15.5322 129.26 15.5322C130.053 15.5322 130.196 15.6882 130.196 16.4292V18.1972C130.196 19.4972 131.223 20.3032 132.679 20.3032C133.394 20.3032 134.057 20.0822 134.733 19.5232V22.4482C134.733 23.2022 134.59 23.3452 133.693 23.3452C133.641 23.3452 133.641 23.5012 133.693 23.5012C134.148 23.5012 134.733 23.4752 135.409 23.4752C136.02 23.4752 136.592 23.5012 137.034 23.5012C137.073 23.5012 137.073 23.3452 137.034 23.3452ZM145.117 21.4732C144.805 22.6042 144.077 23.1632 142.907 23.1632H142.27C141.711 23.1632 141.529 22.9682 141.529 22.3962V19.4452H142.764C143.739 19.4452 144.22 19.8352 144.22 20.5502C144.22 20.6022 144.376 20.6022 144.376 20.5502C144.376 20.0822 144.337 19.7052 144.337 19.2762C144.337 18.9382 144.363 18.7042 144.363 18.1452C144.363 18.0932 144.207 18.0932 144.207 18.1452C144.207 18.7692 143.739 19.1072 142.79 19.1072H141.529V16.4682C141.529 15.9222 141.75 15.7142 142.387 15.7142H142.907C143.908 15.7142 144.506 16.2082 144.727 17.1962C144.727 17.2352 144.87 17.2222 144.87 17.1832L144.844 15.4932C144.844 15.4152 144.818 15.3762 144.727 15.3762H139.306C139.254 15.3762 139.254 15.5322 139.306 15.5322C140.151 15.5322 140.294 15.6882 140.294 16.4292V22.4482C140.294 23.2022 140.151 23.3452 139.306 23.3452C139.254 23.3452 139.254 23.5012 139.306 23.5012H144.948C145.104 23.5012 145.143 23.4492 145.143 23.3062C145.143 22.7342 145.208 21.9932 145.273 21.4992C145.273 21.4602 145.13 21.4342 145.117 21.4732ZM152.655 15.2332C149.886 15.2332 147.806 16.9622 147.806 19.4582C147.806 21.9412 149.808 23.6572 152.603 23.6572C153.435 23.6572 154.228 23.5272 155.086 23.1762C155.229 23.1242 155.242 23.0852 155.268 22.8772L155.437 21.3302C155.437 21.2912 155.32 21.2522 155.281 21.3172C154.657 22.7472 153.89 23.4102 152.603 23.4102C150.679 23.4102 149.236 21.7852 149.236 19.3932C149.236 16.9752 150.588 15.4802 152.499 15.4802C153.825 15.4802 154.722 16.2472 155.177 17.6772C155.203 17.7292 155.32 17.7032 155.32 17.6512L155.164 15.9352C155.138 15.7402 155.125 15.7012 154.982 15.6362C154.384 15.3762 153.526 15.2332 152.655 15.2332ZM166.002 23.3452C165.079 23.3192 164.52 22.5002 163.48 21.0572C162.479 19.6532 162.18 19.2632 161.283 19.1852L163.025 16.9882C163.727 16.0912 164.65 15.5322 165.469 15.5322C165.508 15.5322 165.508 15.3762 165.469 15.3762C165.066 15.3762 164.689 15.4152 163.935 15.4152C163.233 15.4152 162.778 15.3762 162.362 15.3762C162.323 15.3762 162.323 15.5322 162.362 15.5322C163.064 15.5322 163.181 16.1172 162.388 17.1962L160.958 19.1722H160.867C160.62 19.1722 160.334 19.1722 159.996 19.1852V16.4552C159.996 15.7142 160.152 15.5322 161.036 15.5322C161.075 15.5322 161.075 15.3762 161.036 15.3762C160.581 15.3762 159.996 15.4152 159.307 15.4152C158.696 15.4152 158.15 15.3762 157.708 15.3762C157.656 15.3762 157.656 15.5322 157.708 15.5322C158.592 15.5322 158.748 15.6882 158.748 16.4292V22.4482C158.748 23.2022 158.592 23.3452 157.695 23.3452C157.643 23.3452 157.643 23.5012 157.695 23.5012C158.137 23.5012 158.696 23.4752 159.307 23.4752C159.996 23.4752 160.568 23.5012 161.036 23.5012C161.075 23.5012 161.075 23.3452 161.036 23.3452C160.126 23.3452 159.996 23.2022 159.996 22.4482V19.4062H160.048C160.971 19.4062 161.14 19.7572 162.232 21.3172C163.753 23.4882 163.818 23.5012 164.117 23.5012H166.002C166.041 23.5012 166.041 23.3452 166.002 23.3452ZM171.564 23.6572C174.034 23.6572 176.127 21.7722 176.127 19.3542C176.127 17.2612 174.58 15.2332 172.019 15.2332C169.913 15.2332 167.443 16.6242 167.443 19.4452C167.443 21.7332 169.068 23.6572 171.564 23.6572ZM172.006 23.3452C170.16 23.3452 168.834 21.4862 168.834 18.9772C168.834 16.8582 169.783 15.5582 171.499 15.5582C173.501 15.5582 174.736 17.3392 174.736 19.7312C174.736 22.0582 173.54 23.3452 172.006 23.3452ZM184.417 21.4732C184.105 22.6042 183.377 23.1632 182.207 23.1632H181.57C181.011 23.1632 180.829 22.9682 180.829 22.3962V19.4452H182.064C183.039 19.4452 183.52 19.8352 183.52 20.5502C183.52 20.6022 183.676 20.6022 183.676 20.5502C183.676 20.0822 183.637 19.7052 183.637 19.2762C183.637 18.9382 183.663 18.7042 183.663 18.1452C183.663 18.0932 183.507 18.0932 183.507 18.1452C183.507 18.7692 183.039 19.1072 182.09 19.1072H180.829V16.4682C180.829 15.9222 181.05 15.7142 181.687 15.7142H182.207C183.208 15.7142 183.806 16.2082 184.027 17.1962C184.027 17.2352 184.17 17.2222 184.17 17.1832L184.144 15.4932C184.144 15.4152 184.118 15.3762 184.027 15.3762H178.606C178.554 15.3762 178.554 15.5322 178.606 15.5322C179.451 15.5322 179.594 15.6882 179.594 16.4292V22.4482C179.594 23.2022 179.451 23.3452 178.606 23.3452C178.554 23.3452 178.554 23.5012 178.606 23.5012H184.248C184.404 23.5012 184.443 23.4492 184.443 23.3062C184.443 22.7342 184.508 21.9932 184.573 21.4992C184.573 21.4602 184.43 21.4342 184.417 21.4732ZM82.808 40.3452C82.34 40.3452 82.002 39.9682 81.378 38.7202L78.206 32.2982C78.18 32.2462 77.998 32.2592 77.985 32.2982L75.203 38.5902C74.566 40.0072 74.241 40.3452 73.539 40.3452C73.461 40.3452 73.461 40.5012 73.539 40.5012C74.098 40.5012 74.397 40.4492 75.047 40.4492C75.723 40.4492 76.074 40.5012 76.581 40.5012C76.659 40.5012 76.659 40.3452 76.581 40.3452C75.554 40.3452 75.06 39.7732 75.515 38.7202L76.516 36.4712H78.869L80.273 39.3182C80.676 40.1242 80.546 40.3452 79.766 40.3452C79.688 40.3452 79.688 40.5012 79.766 40.5012C80.286 40.5012 80.637 40.4492 81.222 40.4492C81.729 40.4492 82.301 40.5012 82.808 40.5012C82.886 40.5012 82.886 40.3452 82.808 40.3452ZM76.659 36.1332L77.634 33.9622L78.7 36.1332H76.659ZM84.5881 40.5012C85.0301 40.5012 85.6151 40.4752 86.2261 40.4752C87.1101 40.4752 87.7601 40.5012 88.3321 40.5012C88.3711 40.5012 88.3711 40.3452 88.3321 40.3452C87.0841 40.3452 86.8761 40.1762 86.8761 39.3962V33.4422C86.8761 32.9222 87.0971 32.7142 87.7341 32.7142H88.3451C89.3851 32.7142 90.0351 33.3122 90.2561 34.5212C90.2691 34.5732 90.4121 34.5602 90.4121 34.5212L90.3861 32.4932C90.3861 32.4152 90.3471 32.3762 90.2561 32.3762H84.6531C84.6011 32.3762 84.6011 32.5322 84.6531 32.5322C85.4981 32.5322 85.6411 32.6882 85.6411 33.4292V39.4482C85.6411 40.2022 85.4851 40.3452 84.5881 40.3452C84.5361 40.3452 84.5361 40.5012 84.5881 40.5012ZM98.5561 38.4732C98.2441 39.6042 97.5161 40.1632 96.3461 40.1632H95.7091C95.1501 40.1632 94.9681 39.9682 94.9681 39.3962V36.4452H96.2031C97.1781 36.4452 97.6591 36.8352 97.6591 37.5502C97.6591 37.6022 97.8151 37.6022 97.8151 37.5502C97.8151 37.0822 97.7761 36.7052 97.7761 36.2762C97.7761 35.9382 97.8021 35.7042 97.8021 35.1452C97.8021 35.0932 97.6461 35.0932 97.6461 35.1452C97.6461 35.7692 97.1781 36.1072 96.2291 36.1072H94.9681V33.4682C94.9681 32.9222 95.1891 32.7142 95.8261 32.7142H96.3461C97.3471 32.7142 97.9451 33.2082 98.1661 34.1962C98.1661 34.2352 98.3091 34.2222 98.3091 34.1832L98.2831 32.4932C98.2831 32.4152 98.2571 32.3762 98.1661 32.3762H92.7451C92.6931 32.3762 92.6931 32.5322 92.7451 32.5322C93.5901 32.5322 93.7331 32.6882 93.7331 33.4292V39.4482C93.7331 40.2022 93.5901 40.3452 92.7451 40.3452C92.6931 40.3452 92.6931 40.5012 92.7451 40.5012H98.3871C98.5431 40.5012 98.5821 40.4492 98.5821 40.3062C98.5821 39.7342 98.6471 38.9932 98.7121 38.4992C98.7121 38.4602 98.5691 38.4342 98.5561 38.4732ZM110.085 40.3452C109.188 40.3452 109.032 40.2022 109.032 39.4482V33.4292C109.032 32.6882 109.188 32.5322 110.085 32.5322C110.137 32.5322 110.137 32.3762 110.085 32.3762C109.643 32.3762 109.019 32.4152 108.408 32.4152C107.667 32.4152 107.121 32.3762 106.679 32.3762C106.64 32.3762 106.64 32.5322 106.679 32.5322C107.641 32.5322 107.784 32.7142 107.784 33.4552V36.1072H103.325V33.4552C103.325 32.7142 103.494 32.5322 104.43 32.5322C104.469 32.5322 104.469 32.3762 104.43 32.3762C103.962 32.3762 103.403 32.4152 102.662 32.4152C102.051 32.4152 101.479 32.3762 101.037 32.3762C100.998 32.3762 100.998 32.5322 101.037 32.5322C101.921 32.5322 102.077 32.6882 102.077 33.4292V39.4482C102.077 40.2022 101.921 40.3452 101.024 40.3452C100.972 40.3452 100.972 40.5012 101.024 40.5012C101.466 40.5012 102.051 40.4752 102.662 40.4752C103.403 40.4752 103.949 40.5012 104.43 40.5012C104.469 40.5012 104.469 40.3452 104.43 40.3452C103.481 40.3452 103.325 40.2022 103.325 39.4482V36.4452H107.784V39.4482C107.784 40.2022 107.641 40.3452 106.679 40.3452C106.64 40.3452 106.64 40.5012 106.679 40.5012C107.121 40.5012 107.667 40.4752 108.408 40.4752C109.019 40.4752 109.643 40.5012 110.085 40.5012C110.137 40.5012 110.137 40.3452 110.085 40.3452ZM117.296 32.2332C114.527 32.2332 112.447 33.9622 112.447 36.4582C112.447 38.9412 114.449 40.6572 117.244 40.6572C118.076 40.6572 118.869 40.5272 119.727 40.1762C119.87 40.1242 119.883 40.0852 119.909 39.8772L120.078 38.3302C120.078 38.2912 119.961 38.2522 119.922 38.3172C119.298 39.7472 118.531 40.4102 117.244 40.4102C115.32 40.4102 113.877 38.7852 113.877 36.3932C113.877 33.9752 115.229 32.4802 117.14 32.4802C118.466 32.4802 119.363 33.2472 119.818 34.6772C119.844 34.7292 119.961 34.7032 119.961 34.6512L119.805 32.9352C119.779 32.7402 119.766 32.7012 119.623 32.6362C119.025 32.3762 118.167 32.2332 117.296 32.2332ZM124.715 32.6492C125.391 32.6492 125.534 32.7792 125.534 33.4292V39.4482C125.534 40.2022 125.339 40.3452 124.377 40.3452C124.338 40.3452 124.338 40.5012 124.377 40.5012C124.871 40.5012 125.482 40.4752 126.145 40.4752C126.86 40.4752 127.445 40.5012 127.926 40.5012C127.978 40.5012 127.978 40.3452 127.926 40.3452C126.938 40.3452 126.795 40.2022 126.795 39.4482V33.4552C126.795 32.7922 126.912 32.6492 127.627 32.6492C128.693 32.6492 129.356 33.2342 129.538 34.5992C129.551 34.6382 129.694 34.6382 129.694 34.5992C129.694 34.1702 129.759 32.6102 129.811 32.0512C129.811 31.9862 129.681 31.9862 129.668 32.0512C129.577 32.3242 129.265 32.3762 128.654 32.3762C127.991 32.3762 127.367 32.4152 126.145 32.4152C125.17 32.4152 124.273 32.4022 123.532 32.3762C123.285 32.3762 122.817 32.3502 122.817 32.0902C122.817 31.9992 122.661 32.0122 122.661 32.0902C122.661 32.7142 122.544 34.1312 122.479 34.5992C122.479 34.6382 122.622 34.6512 122.635 34.6122C122.999 33.3122 123.636 32.6492 124.715 32.6492ZM136.15 35.9382C137.151 35.5482 137.697 34.8462 137.697 34.0272C137.697 32.9742 136.865 32.3372 135.318 32.3372C134.811 32.3372 134.226 32.4152 133.745 32.4152C133.147 32.4152 132.588 32.3762 132.146 32.3762C132.107 32.3762 132.107 32.5322 132.146 32.5322C132.952 32.5322 133.134 32.6882 133.134 33.4292V39.4482C133.134 40.2022 132.926 40.3452 132.133 40.3452C132.081 40.3452 132.081 40.5012 132.133 40.5012C132.575 40.5012 133.147 40.4752 133.745 40.4752C134.33 40.4752 135.136 40.5532 135.63 40.5532C137.268 40.5532 138.49 39.5132 138.49 38.1352C138.49 36.9522 137.58 36.0942 136.15 35.9382ZM135.097 32.5972C136.02 32.5972 136.475 33.1822 136.475 34.1442C136.475 35.1452 135.994 35.9382 134.928 35.9382C134.902 35.9382 134.694 35.9382 134.382 35.9252V33.4552C134.382 32.7402 134.564 32.5972 135.097 32.5972ZM135.409 40.2542C134.512 40.2542 134.382 40.0072 134.382 39.4482V36.2892C134.694 36.2632 134.98 36.2632 135.162 36.2632C136.527 36.2632 137.177 37.1732 137.177 38.4472C137.177 39.5912 136.644 40.2542 135.409 40.2542ZM145.224 40.6572C147.694 40.6572 149.787 38.7722 149.787 36.3542C149.787 34.2612 148.24 32.2332 145.679 32.2332C143.573 32.2332 141.103 33.6242 141.103 36.4452C141.103 38.7332 142.728 40.6572 145.224 40.6572ZM145.666 40.3452C143.82 40.3452 142.494 38.4862 142.494 35.9772C142.494 33.8582 143.443 32.5582 145.159 32.5582C147.161 32.5582 148.396 34.3392 148.396 36.7312C148.396 39.0582 147.2 40.3452 145.666 40.3452Z" fill="white"/>
<path d="M49.1407 30.3177C49.0729 30.2048 49.0334 30.1258 48.9826 30.0524C47.8028 28.2629 46.4649 26.592 45.0819 24.9605C44.5569 24.3452 44.0149 23.7468 43.4843 23.1372C43.3658 22.996 43.298 22.9904 43.1343 23.1089C42.6884 23.4307 42.5416 23.8315 42.5698 24.3791C42.6319 25.4742 42.6037 26.575 42.6488 27.6758C42.6827 28.4887 42.773 29.2959 42.8295 30.1088C42.8408 30.2387 42.8972 30.2838 43.0214 30.2951C43.8625 30.3967 44.698 30.504 45.5391 30.6056C45.6915 30.6225 45.748 30.6846 45.748 30.8427C45.7367 31.3959 45.8157 31.3225 45.2794 31.3225C42.6771 31.3225 40.0803 31.3225 37.4779 31.3225C34.6949 31.3225 31.9176 31.3225 29.1345 31.3225C28.8466 31.3225 28.841 31.3225 28.8466 31.0346C28.8523 30.6169 28.7845 30.662 29.2136 30.5887C29.7103 30.504 30.2015 30.4193 30.7321 30.329C30.6813 30.2274 30.6418 30.154 30.5966 30.0806C29.541 28.4661 28.3499 26.9532 27.108 25.4742C26.4418 24.6839 25.7475 23.9162 25.0757 23.1315C24.9515 22.9848 24.8838 23.013 24.737 23.1146C24.2854 23.4307 24.1386 23.8315 24.1725 24.3847C24.2346 25.4799 24.2064 26.5807 24.2515 27.6814C24.2854 28.4943 24.3701 29.3016 24.4322 30.1145C24.4435 30.2443 24.4999 30.2895 24.6241 30.3064C25.4652 30.408 26.3007 30.5153 27.1418 30.6169C27.2942 30.6338 27.3563 30.6903 27.3507 30.8483C27.3394 31.4072 27.4184 31.3282 26.8652 31.3282C24.2628 31.3282 21.6661 31.3282 19.0637 31.3282C16.2807 31.3282 13.5033 31.3282 10.7203 31.3282C10.3929 31.3282 10.3929 31.3282 10.3929 30.9951C10.3929 30.9387 10.3985 30.8766 10.3929 30.8201C10.3873 30.6959 10.4437 30.6282 10.5735 30.6169C11.4259 30.5153 12.2784 30.4024 13.1308 30.3064C13.3058 30.2838 13.3509 30.2217 13.3114 30.058C13.0291 28.7879 12.6058 27.5629 12.0187 26.3944C11.9453 26.2476 11.855 26.2081 11.7026 26.2081C9.66469 26.2137 7.62682 26.2137 5.58894 26.2081C5.42524 26.2081 5.34621 26.2589 5.28976 26.4113C4.87767 27.5798 4.45993 28.7484 4.04784 29.9169C4.03091 29.9677 4.02526 30.0185 4.00832 30.0637C3.95187 30.2161 4.00268 30.2838 4.16639 30.3008C4.97928 30.3967 5.79217 30.5096 6.60506 30.6112C6.74618 30.6282 6.80828 30.6903 6.80828 30.837C6.80264 31.4072 6.8478 31.3282 6.34538 31.3282C4.32445 31.3282 2.30916 31.3282 0.288223 31.3282C0.000324368 31.3282 0.000324445 31.3282 0.000324445 31.0346C0.00596951 30.6056 -0.0561263 30.6677 0.367254 30.583C0.880956 30.4814 1.39466 30.3854 1.90836 30.3008C2.08336 30.2725 2.17932 30.1935 2.25835 30.0467C2.92447 28.85 3.41559 27.5798 3.91236 26.3097C5.45346 22.4202 6.98892 18.5364 8.51309 14.647C8.58648 14.455 8.68244 14.3704 8.89131 14.3873C9.15663 14.4042 9.42195 14.4042 9.68727 14.3873C9.85662 14.376 9.93565 14.4494 9.99774 14.6018C10.9856 16.9671 11.9792 19.3324 12.9783 21.692C13.8025 23.6396 14.6154 25.5871 15.4678 27.5177C15.8517 28.3927 16.3315 29.2226 16.7605 30.0806C16.8283 30.2161 16.9242 30.2782 17.071 30.3008C17.5 30.3798 17.9291 30.5096 18.3637 30.5548C18.6968 30.5887 19.0411 30.5491 19.3799 30.5153C19.854 30.4701 20.3282 30.3911 20.8024 30.3346C20.9379 30.3177 20.9943 30.2725 21.0056 30.1314C21.079 29.1717 21.1637 28.2121 21.2371 27.2581C21.4177 24.8081 21.3669 22.3469 21.3443 19.8913C21.3274 18.5477 21.1976 17.2098 21.1129 15.872C21.1016 15.7083 21.0452 15.6123 20.8532 15.5897C20.1306 15.4937 19.4137 15.3695 18.6912 15.2679C18.5105 15.2397 18.4315 15.1833 18.4371 14.9913C18.4541 14.4889 18.3807 14.551 18.8887 14.551C21.6097 14.551 24.3362 14.551 27.0571 14.551C27.3563 14.551 27.3563 14.551 27.3563 14.8502C27.3563 15.2341 27.4015 15.2341 27.0007 15.2849C26.2104 15.3865 25.4257 15.505 24.6411 15.6123C24.4943 15.6292 24.4491 15.6857 24.4322 15.8268C24.2346 17.6897 24.1951 19.5525 24.2177 21.4211C24.2177 21.4888 24.229 21.5565 24.2459 21.692C26.5434 19.7953 28.6491 17.78 30.67 15.5897C30.2748 15.5276 29.9474 15.4712 29.62 15.4204C29.2587 15.3639 28.8918 15.3131 28.5305 15.2566C28.4063 15.2397 28.3386 15.1833 28.3442 15.0421C28.3555 14.472 28.2765 14.551 28.8184 14.551C30.8676 14.551 32.9224 14.551 34.9715 14.551C35.2764 14.551 35.2764 14.551 35.2764 14.8446C35.2764 15.2849 35.3102 15.2171 34.9038 15.2905C34.3449 15.3921 33.7861 15.4881 33.2216 15.5784C33.0127 15.6123 32.8264 15.68 32.6684 15.8268C31.8498 16.5776 31.02 17.3227 30.2015 18.0735C29.2136 18.9824 28.2313 19.9082 27.2378 20.8114C27.0854 20.9469 27.0854 21.0428 27.1983 21.1896C27.8644 22.0477 28.5079 22.9227 29.1966 23.7581C30.4724 25.3049 31.7538 26.846 33.0635 28.3589C33.5885 28.9629 34.1925 29.4935 34.7627 30.058C34.9038 30.1991 35.0675 30.2782 35.2707 30.3064C35.8127 30.3911 36.3489 30.5209 36.8909 30.583C37.1788 30.6169 37.4836 30.5491 37.7771 30.5153C38.2513 30.4588 38.7255 30.3911 39.1997 30.3346C39.3352 30.3177 39.3916 30.2725 39.4029 30.1314C39.4763 29.1717 39.561 28.2121 39.6344 27.2581C39.815 24.8081 39.7642 22.3469 39.7416 19.8913C39.7247 18.5477 39.5948 17.2098 39.5102 15.872C39.4989 15.7083 39.4424 15.6123 39.2505 15.5897C38.5279 15.4937 37.811 15.3695 37.0884 15.2679C36.9078 15.2397 36.8288 15.1833 36.8401 14.9913C36.857 14.4889 36.7836 14.551 37.2917 14.551C40.0126 14.551 42.7392 14.551 45.4601 14.551C45.7593 14.551 45.7593 14.551 45.7593 14.8502C45.7593 15.2341 45.8044 15.2341 45.4036 15.2849C44.6133 15.3865 43.8287 15.505 43.044 15.6123C42.8972 15.6292 42.8521 15.6857 42.8351 15.8268C42.6375 17.6897 42.598 19.5525 42.6206 21.4211C42.6206 21.4888 42.6319 21.5565 42.6488 21.692C44.9464 19.7953 47.052 17.78 49.0729 15.5897C48.6778 15.5276 48.3504 15.4712 48.0229 15.4204C47.6617 15.3639 47.2947 15.3131 46.9334 15.2566C46.8092 15.2397 46.7415 15.1833 46.7472 15.0421C46.7584 14.472 46.6794 14.551 47.2213 14.551C49.2705 14.551 51.3253 14.551 53.3745 14.551C53.6793 14.551 53.6793 14.551 53.6793 14.8446C53.6793 15.2849 53.7132 15.2171 53.3067 15.2905C52.7479 15.3921 52.189 15.4881 51.6245 15.5784C51.4156 15.6123 51.2293 15.68 51.0713 15.8268C50.2527 16.5776 49.4229 17.3227 48.6044 18.0735C47.6165 18.9824 46.6343 19.9082 45.6407 20.8114C45.4883 20.9469 45.4883 21.0428 45.6012 21.1953C46.2673 22.0533 46.9109 22.9283 47.5996 23.7638C48.8753 25.3105 50.1568 26.8516 51.4664 28.3645C51.9745 28.9516 52.5616 29.4596 53.1091 30.0129C53.2954 30.2048 53.51 30.2951 53.7696 30.3346C54.3116 30.4193 54.8535 30.5209 55.3954 30.6112C55.5478 30.6338 55.6156 30.6959 55.6099 30.8653C55.593 31.3959 55.672 31.3282 55.1414 31.3282C52.6067 31.3282 50.0721 31.3282 47.5318 31.3282C47.2439 31.3282 47.2439 31.3282 47.2439 31.0346C47.2496 30.6169 47.1875 30.662 47.6109 30.5887C48.1076 30.4983 48.5987 30.4137 49.1407 30.3177ZM11.3695 24.8646C10.5453 22.7025 9.61952 20.5912 8.54696 18.5308C7.55343 20.6082 6.71796 22.7364 5.89378 24.8702C6.4978 25.0565 10.7203 25.0621 11.3695 24.8646ZM22.4395 22.9509C22.4395 20.5799 22.4395 18.2034 22.4338 15.8324C22.4338 15.7478 22.383 15.5954 22.3605 15.5954C22.1911 15.601 22.2645 15.7478 22.2645 15.8324C22.2588 20.5799 22.2588 25.3218 22.2645 30.0693C22.2645 30.154 22.1967 30.3008 22.3605 30.3064C22.383 30.3064 22.4338 30.154 22.4338 30.0693C22.4395 27.6984 22.4395 25.3275 22.4395 22.9509ZM40.8424 22.9509C40.8424 20.5799 40.8424 18.2034 40.8368 15.8324C40.8368 15.7478 40.786 15.5954 40.7634 15.5954C40.594 15.601 40.6674 15.7478 40.6674 15.8324C40.6618 20.5799 40.6618 25.3218 40.6674 30.0693C40.6674 30.154 40.5997 30.3008 40.7634 30.3064C40.786 30.3064 40.8368 30.154 40.8368 30.0693C40.8424 27.6984 40.8424 25.3275 40.8424 22.9509ZM14.6436 30.2556C14.6662 30.2443 14.6888 30.2387 14.7114 30.2274C12.8485 25.7621 10.98 21.2912 9.11711 16.826C9.09453 16.8373 9.06631 16.8486 9.04373 16.8598C10.9066 21.3195 12.7751 25.7903 14.6436 30.2556ZM25.6741 22.1831C25.6572 22.1944 25.6459 22.2114 25.6289 22.2227C25.7814 22.5219 32.1942 30.2669 32.3522 30.2725C30.1281 27.5798 27.8983 24.8815 25.6741 22.1831ZM50.6705 30.3403C50.6987 30.3177 50.7213 30.2951 50.7495 30.2725C48.5254 27.5742 46.2956 24.8815 44.0714 22.1831C44.0488 22.2001 44.0262 22.2227 44.0037 22.2396C46.2278 24.9436 48.452 27.6419 50.6705 30.3403Z" fill="white"/>
<path d="M53.2959 35.1553C53.2959 35.5336 53.2789 35.8779 53.3015 36.2279C53.3354 36.7077 53.3467 36.7077 53.8209 36.7924C53.8999 36.8093 53.9789 36.8206 54.058 36.8376C54.0636 36.8545 54.0693 36.8771 54.0749 36.894C54.0184 36.9222 53.9563 36.9787 53.8999 36.9787C53.2338 36.9843 52.5677 36.9843 51.9015 36.9787C51.862 36.9787 51.8225 36.9392 51.783 36.9166C51.8169 36.8827 51.8507 36.8206 51.8903 36.8093C52.037 36.7755 52.1838 36.7473 52.3306 36.736C52.4435 36.7247 52.4886 36.6739 52.4886 36.561C52.5056 35.5844 52.5281 34.6134 52.5394 33.6368C52.5394 33.4449 52.5281 33.2473 52.4943 33.061C52.483 32.9989 52.4096 32.9255 52.3475 32.9086C52.0144 32.8013 51.6814 32.8522 51.354 32.9312C51.2975 32.9425 51.2241 33.0271 51.2185 33.0836C51.1846 33.4562 51.1564 33.8287 51.1507 34.207C51.1395 34.6699 51.1508 35.1384 51.1451 35.6013C51.1338 36.4085 50.8008 36.8206 50.0048 36.9674C49.4516 37.069 48.8984 37.0577 48.3508 36.911C47.7411 36.7416 47.4363 36.3408 47.4306 35.7086C47.4194 34.9182 47.4081 34.1336 47.3968 33.3433C47.3911 32.9594 47.3855 32.9594 47.0186 32.8917C46.9678 32.8804 46.9113 32.886 46.8661 32.8634C46.8323 32.8465 46.8097 32.8013 46.7871 32.7731C46.8153 32.7505 46.8379 32.7223 46.8718 32.7054C46.8887 32.6941 46.9113 32.6997 46.9282 32.6997C47.5548 32.6997 48.1814 32.6997 48.808 32.7054C48.8588 32.7054 48.9097 32.7562 48.9548 32.7844C48.904 32.8126 48.8589 32.8634 48.8024 32.8691C48.1814 32.9538 48.1702 32.9538 48.1589 33.5804C48.1419 34.2973 48.1137 35.0142 48.1419 35.7311C48.1645 36.3408 48.5089 36.6456 49.1242 36.6908C49.2597 36.7021 49.3951 36.7021 49.5306 36.6852C50.129 36.5948 50.4282 36.3013 50.4395 35.6521C50.4564 34.8053 50.4056 33.9586 50.3887 33.1175C50.3887 32.9933 50.3266 32.9481 50.2137 32.9312C50.0725 32.9142 49.9314 32.903 49.7903 32.8747C49.7338 32.8634 49.683 32.8126 49.6322 32.7788C49.683 32.7562 49.7395 32.711 49.7903 32.711C50.3096 32.7054 50.8233 32.711 51.3427 32.7054C52.1951 32.6941 53.0475 32.6772 53.8999 32.6715C54.0749 32.6715 54.2499 32.6884 54.4192 32.7223C55.4805 32.9368 55.5313 34.1392 55.0628 34.6812C54.662 35.1441 54.1483 35.2513 53.5725 35.1949C53.4935 35.1779 53.4031 35.1666 53.2959 35.1553ZM53.262 34.1618C53.2677 34.1618 53.2677 34.1618 53.2733 34.1618C53.2733 34.2691 53.2733 34.382 53.2733 34.4892C53.2733 35.0594 53.2789 35.065 53.8434 34.9465C54.4192 34.8223 54.7128 34.3876 54.6055 33.8231C54.4926 33.2304 54.0523 32.9086 53.4822 32.9933C53.3693 33.0102 53.3128 33.061 53.3128 33.1796C53.3015 33.507 53.2789 33.8344 53.262 34.1618ZM50.637 36.0868C50.7274 35.9174 50.8008 33.2755 50.6935 32.9933C50.6766 32.9933 50.6596 32.9933 50.637 32.9933C50.637 34.0376 50.637 35.0932 50.637 36.0868ZM52.7822 36.6569C52.7935 36.6569 52.8048 36.6569 52.8104 36.6569C52.8104 35.4319 52.8104 34.2126 52.8104 32.9876C52.7991 32.9876 52.7878 32.9876 52.7822 32.9876C52.7822 34.2126 52.7822 35.4319 52.7822 36.6569ZM47.6677 32.9876C47.6621 33.0046 47.6508 33.0215 47.6508 33.0384C47.6508 33.9699 47.6452 34.8957 47.6565 35.8271C47.6565 35.9739 47.7355 36.1206 47.7806 36.2618C47.5944 35.1666 47.775 34.0715 47.6677 32.9876ZM54.8313 34.3876C55.0063 34.0771 54.9217 33.4675 54.6846 33.2925C54.7297 33.4618 54.8031 33.6368 54.8257 33.8175C54.8483 34.0094 54.8313 34.2013 54.8313 34.3876Z" fill="white"/>
<path d="M36.7947 32.7C37.6245 32.7 38.4487 32.6943 39.2785 32.7C39.8938 32.7056 40.3737 33.0387 40.5656 33.558C40.7463 34.0548 40.5769 34.5403 40.1197 34.8112C40.0688 34.8394 40.0237 34.8733 39.9955 34.8846C40.3511 35.3814 40.6955 35.8725 41.0398 36.358C41.1866 36.5668 41.3503 36.7531 41.6212 36.8096C41.6551 36.8152 41.6777 36.866 41.7003 36.8942C41.6664 36.9225 41.6382 36.9676 41.6043 36.9676C41.068 37.0071 40.5713 36.9676 40.2382 36.4483C40.0011 36.0701 39.7301 35.7144 39.4705 35.3531C39.3237 35.1499 39.1261 35.054 38.8721 35.0709C38.7535 35.0765 38.6858 35.116 38.6858 35.2402C38.6971 35.6806 38.714 36.1152 38.731 36.5555C38.7366 36.6628 38.7874 36.7305 38.9116 36.7362C39.0414 36.7418 39.1713 36.7644 39.2955 36.7983C39.3519 36.8096 39.3971 36.866 39.4479 36.8999C39.3914 36.9225 39.3293 36.9676 39.2729 36.9733C39.081 36.9846 38.8834 36.9789 38.6914 36.9789C38.2624 36.9789 37.839 36.9846 37.41 36.9733C37.3536 36.9733 37.2915 36.9225 37.235 36.8999C37.2858 36.866 37.3423 36.8321 37.3931 36.7983C37.4157 36.787 37.4439 36.787 37.4665 36.7813C37.8955 36.708 37.935 36.708 37.9407 36.2789C37.9576 35.2346 37.935 34.1903 37.935 33.1403C37.935 32.9766 37.8447 32.937 37.7149 32.9088C37.4044 32.8467 37.0939 32.7846 36.7891 32.7169C36.7891 32.7169 36.7891 32.7112 36.7947 32.7ZM38.6745 34.1056C38.6802 34.1056 38.6802 34.1056 38.6858 34.1056C38.6858 34.2072 38.6858 34.3144 38.6858 34.4161C38.6858 34.8169 38.6858 34.8225 39.0866 34.7943C39.4197 34.7717 39.7076 34.6588 39.8374 34.3144C40.0632 33.7048 39.606 33.0387 38.9568 33.0161C38.81 33.0104 38.7253 33.0556 38.7197 33.2193C38.714 33.5128 38.6914 33.8064 38.6745 34.1056ZM38.2116 36.6628C38.2286 36.6628 38.2398 36.6628 38.2568 36.6628C38.2568 35.4491 38.2568 34.2298 38.2568 33.0161C38.2398 33.0161 38.2286 33.0161 38.2116 33.0161C38.2116 34.2354 38.2116 35.4491 38.2116 36.6628Z" fill="white"/>
<path d="M41.8809 35.0256C41.8865 33.7385 42.7107 32.7958 43.7945 32.6659C44.105 32.6264 44.4268 32.6264 44.7373 32.6716C45.8776 32.824 46.73 33.9361 46.6001 35.0764C46.4929 36.0247 45.7026 36.8433 44.7486 36.9844C43.9865 37.0973 43.2752 36.9901 42.6712 36.482C42.1462 36.0473 41.8921 35.4885 41.8809 35.0256ZM42.6317 34.8111C42.6429 34.8167 42.6486 34.8167 42.6599 34.8223C42.6768 34.9973 42.6881 35.1667 42.7163 35.3417C42.8575 36.1151 43.4784 36.6796 44.1953 36.6965C44.9518 36.7134 45.5897 36.211 45.7364 35.4151C45.8042 35.0538 45.7929 34.6699 45.7534 34.303C45.6687 33.5804 45.0986 33.0385 44.4042 32.9595C43.7155 32.8804 43.0833 33.27 42.8292 33.9586C42.7276 34.224 42.6994 34.5232 42.6317 34.8111ZM46.0131 34.0151C46.0131 34.5175 46.0131 35.0256 46.0131 35.5336C46.205 35.0256 46.1768 34.5175 46.0131 34.0151ZM42.2478 35.3756C42.2478 34.9635 42.2478 34.5514 42.2478 34.1562C42.0897 34.5457 42.0841 34.9578 42.2478 35.3756Z" fill="white"/>
<path d="M36.23 35.2629C36.5066 35.2629 36.7889 35.2572 37.0655 35.2685C37.1219 35.2685 37.1784 35.3193 37.2405 35.3475C37.1953 35.3814 37.1502 35.4322 37.0994 35.4491C36.7607 35.5508 36.7607 35.5508 36.7437 35.9064C36.7324 36.104 36.7268 36.3072 36.7042 36.5048C36.6986 36.5669 36.6421 36.6515 36.5857 36.6741C35.8744 36.9733 35.1462 37.1314 34.3728 36.962C33.3623 36.7419 32.7075 35.9403 32.6906 34.9185C32.6793 33.8685 33.3567 32.9427 34.3333 32.7169C34.6268 32.6492 34.9317 32.6435 35.2365 32.6379C35.6317 32.6323 36.0268 32.6661 36.4163 32.6661C36.5631 32.6661 36.6252 32.7113 36.6252 32.8694C36.6252 33.1064 36.6478 33.3492 36.6534 33.5863C36.6534 33.6314 36.6082 33.6822 36.5857 33.7274C36.5462 33.6935 36.4897 33.6653 36.4728 33.6201C36.422 33.4847 36.3994 33.3435 36.3486 33.2137C36.326 33.1516 36.2583 33.0726 36.2018 33.0613C35.7107 32.954 35.2196 32.9032 34.7228 33.0218C33.6559 33.2871 33.3849 34.3088 33.4978 35.0201C33.6728 36.1604 34.6946 36.8378 35.8179 36.5669C35.88 36.5499 35.9704 36.454 35.976 36.3919C35.9929 36.1491 35.9929 35.9008 35.976 35.658C35.9704 35.6072 35.897 35.5282 35.8405 35.5169C35.6768 35.4774 35.5075 35.4661 35.3438 35.4322C35.2986 35.4209 35.2591 35.3701 35.2196 35.3419C35.2647 35.3137 35.3099 35.2685 35.355 35.2685C35.6486 35.2572 35.9365 35.2629 36.23 35.2629ZM33.0575 34.3484C32.7865 34.8621 33.0631 35.8725 33.4244 36.0701C33.0406 35.5338 32.9841 34.9693 33.0575 34.3484Z" fill="white"/>
<path d="M65.3857 0V50.5012" stroke="white"/>
</g>
<defs>
<clipPath id="clip0">
<rect width="186" height="51" fill="white"/>
</clipPath>
</defs>
</svg>
