<svg width="80" height="80" viewBox="0 0 80 80" fill="none" xmlns="http://www.w3.org/2000/svg">
<path d="M79 1H1V79H79V1Z" fill="white"/>
<path d="M80 0H0V80H80V0Z" fill="#243247"/>
<path d="M61.1407 43.9325C61.0729 43.8196 61.0334 43.7406 60.9826 43.6672C59.8028 41.8777 58.4649 40.2068 57.0819 38.5753C56.5569 37.96 56.0149 37.3616 55.4843 36.752C55.3658 36.6109 55.298 36.6052 55.1343 36.7238C54.6884 37.0455 54.5416 37.4463 54.5698 37.9939C54.6319 39.089 54.6037 40.1898 54.6488 41.2906C54.6827 42.1035 54.773 42.9107 54.8295 43.7236C54.8408 43.8535 54.8972 43.8986 55.0214 43.9099C55.8625 44.0115 56.698 44.1188 57.5391 44.2204C57.6915 44.2373 57.748 44.2994 57.748 44.4575C57.7367 45.0107 57.8157 44.9373 57.2794 44.9373C54.6771 44.9373 52.0803 44.9373 49.4779 44.9373C46.6949 44.9373 43.9176 44.9373 41.1345 44.9373C40.8466 44.9373 40.841 44.9373 40.8466 44.6494C40.8523 44.2317 40.7845 44.2769 41.2136 44.2035C41.7103 44.1188 42.2015 44.0341 42.7321 43.9438C42.6813 43.8422 42.6418 43.7688 42.5966 43.6954C41.541 42.0809 40.3499 40.568 39.108 39.089C38.4418 38.2987 37.7475 37.531 37.0757 36.7463C36.9515 36.5996 36.8838 36.6278 36.737 36.7294C36.2854 37.0455 36.1386 37.4463 36.1725 37.9995C36.2346 39.0947 36.2064 40.1955 36.2515 41.2963C36.2854 42.1091 36.3701 42.9164 36.4322 43.7293C36.4435 43.8591 36.4999 43.9043 36.6241 43.9212C37.4652 44.0228 38.3007 44.1301 39.1418 44.2317C39.2942 44.2486 39.3563 44.3051 39.3507 44.4631C39.3394 45.022 39.4184 44.943 38.8652 44.943C36.2628 44.943 33.6661 44.943 31.0637 44.943C28.2807 44.943 25.5033 44.943 22.7203 44.943C22.3929 44.943 22.3929 44.943 22.3929 44.6099C22.3929 44.5535 22.3985 44.4914 22.3929 44.4349C22.3873 44.3107 22.4437 44.243 22.5735 44.2317C23.4259 44.1301 24.2784 44.0172 25.1308 43.9212C25.3058 43.8986 25.3509 43.8365 25.3114 43.6728C25.0291 42.4027 24.6058 41.1777 24.0187 40.0092C23.9453 39.8624 23.855 39.8229 23.7026 39.8229C21.6647 39.8285 19.6268 39.8285 17.5889 39.8229C17.4252 39.8229 17.3462 39.8737 17.2898 40.0261C16.8777 41.1946 16.4599 42.3632 16.0478 43.5317C16.0309 43.5825 16.0253 43.6333 16.0083 43.6785C15.9519 43.8309 16.0027 43.8986 16.1664 43.9156C16.9793 44.0115 17.7922 44.1244 18.6051 44.226C18.7462 44.243 18.8083 44.3051 18.8083 44.4519C18.8026 45.022 18.8478 44.943 18.3454 44.943C16.3244 44.943 14.3092 44.943 12.2882 44.943C12.0003 44.943 12.0003 44.943 12.0003 44.6494C12.006 44.2204 11.9439 44.2825 12.3673 44.1978C12.881 44.0962 13.3947 44.0002 13.9084 43.9156C14.0834 43.8873 14.1793 43.8083 14.2583 43.6615C14.9245 42.4648 15.4156 41.1946 15.9124 39.9245C17.4535 36.0351 18.9889 32.1512 20.5131 28.2618C20.5865 28.0699 20.6824 27.9852 20.8913 28.0021C21.1566 28.019 21.422 28.019 21.6873 28.0021C21.8566 27.9908 21.9356 28.0642 21.9977 28.2166C22.9856 30.5819 23.9792 32.9472 24.9783 35.3068C25.8025 37.2544 26.6154 39.2019 27.4678 41.1325C27.8517 42.0075 28.3315 42.8374 28.7605 43.6954C28.8283 43.8309 28.9242 43.893 29.071 43.9156C29.5 43.9946 29.9291 44.1244 30.3637 44.1696C30.6968 44.2035 31.0411 44.164 31.3799 44.1301C31.854 44.0849 32.3282 44.0059 32.8024 43.9494C32.9379 43.9325 32.9943 43.8873 33.0056 43.7462C33.079 42.7866 33.1637 41.8269 33.2371 40.8729C33.4177 38.4229 33.3669 35.9617 33.3443 33.5061C33.3274 32.1625 33.1976 30.8247 33.1129 29.4868C33.1016 29.3231 33.0452 29.2271 32.8532 29.2045C32.1306 29.1085 31.4137 28.9844 30.6912 28.8827C30.5105 28.8545 30.4315 28.7981 30.4371 28.6061C30.4541 28.1037 30.3807 28.1658 30.8887 28.1658C33.6097 28.1658 36.3362 28.1658 39.0571 28.1658C39.3563 28.1658 39.3563 28.1658 39.3563 28.465C39.3563 28.8489 39.4015 28.8489 39.0007 28.8997C38.2104 29.0013 37.4257 29.1198 36.6411 29.2271C36.4943 29.244 36.4491 29.3005 36.4322 29.4416C36.2346 31.3045 36.1951 33.1674 36.2177 35.0359C36.2177 35.1036 36.229 35.1713 36.2459 35.3068C38.5434 33.4101 40.6491 31.3948 42.67 29.2045C42.2748 29.1424 41.9474 29.086 41.62 29.0352C41.2587 28.9787 40.8918 28.9279 40.5305 28.8715C40.4063 28.8545 40.3386 28.7981 40.3442 28.6569C40.3555 28.0868 40.2765 28.1658 40.8184 28.1658C42.8676 28.1658 44.9224 28.1658 46.9715 28.1658C47.2764 28.1658 47.2764 28.1658 47.2764 28.4594C47.2764 28.8997 47.3102 28.8319 46.9038 28.9053C46.3449 29.0069 45.7861 29.1029 45.2216 29.1932C45.0127 29.2271 44.8264 29.2948 44.6684 29.4416C43.8498 30.1924 43.02 30.9375 42.2015 31.6883C41.2136 32.5972 40.2313 33.523 39.2378 34.4262C39.0854 34.5617 39.0854 34.6576 39.1983 34.8044C39.8644 35.6625 40.5079 36.5375 41.1966 37.3729C42.4724 38.9197 43.7538 40.4608 45.0635 41.9737C45.5885 42.5777 46.1925 43.1083 46.7627 43.6728C46.9038 43.814 47.0675 43.893 47.2707 43.9212C47.8127 44.0059 48.3489 44.1357 48.8909 44.1978C49.1788 44.2317 49.4836 44.164 49.7771 44.1301C50.2513 44.0736 50.7255 44.0059 51.1997 43.9494C51.3352 43.9325 51.3916 43.8873 51.4029 43.7462C51.4763 42.7866 51.561 41.8269 51.6344 40.8729C51.815 38.4229 51.7642 35.9617 51.7416 33.5061C51.7247 32.1625 51.5948 30.8247 51.5102 29.4868C51.4989 29.3231 51.4424 29.2271 51.2505 29.2045C50.5279 29.1085 49.811 28.9844 49.0884 28.8827C48.9078 28.8545 48.8288 28.7981 48.8401 28.6061C48.857 28.1037 48.7836 28.1658 49.2917 28.1658C52.0126 28.1658 54.7392 28.1658 57.4601 28.1658C57.7593 28.1658 57.7593 28.1658 57.7593 28.465C57.7593 28.8489 57.8044 28.8489 57.4036 28.8997C56.6133 29.0013 55.8287 29.1198 55.044 29.2271C54.8972 29.244 54.8521 29.3005 54.8351 29.4416C54.6375 31.3045 54.598 33.1674 54.6206 35.0359C54.6206 35.1036 54.6319 35.1713 54.6488 35.3068C56.9464 33.4101 59.052 31.3948 61.0729 29.2045C60.6778 29.1424 60.3504 29.086 60.0229 29.0352C59.6617 28.9787 59.2947 28.9279 58.9334 28.8715C58.8092 28.8545 58.7415 28.7981 58.7472 28.6569C58.7584 28.0868 58.6794 28.1658 59.2213 28.1658C61.2705 28.1658 63.3253 28.1658 65.3745 28.1658C65.6793 28.1658 65.6793 28.1658 65.6793 28.4594C65.6793 28.8997 65.7132 28.8319 65.3067 28.9053C64.7479 29.0069 64.189 29.1029 63.6245 29.1932C63.4156 29.2271 63.2293 29.2948 63.0713 29.4416C62.2527 30.1924 61.4229 30.9375 60.6044 31.6883C59.6165 32.5972 58.6343 33.523 57.6407 34.4262C57.4883 34.5617 57.4883 34.6577 57.6012 34.8101C58.2673 35.6681 58.9109 36.5431 59.5996 37.3786C60.8753 38.9253 62.1568 40.4664 63.4664 41.9793C63.9745 42.5664 64.5616 43.0745 65.1091 43.6277C65.2954 43.8196 65.51 43.9099 65.7696 43.9494C66.3116 44.0341 66.8535 44.1357 67.3954 44.226C67.5478 44.2486 67.6156 44.3107 67.6099 44.4801C67.593 45.0107 67.672 44.943 67.1414 44.943C64.6067 44.943 62.0721 44.943 59.5318 44.943C59.2439 44.943 59.2439 44.943 59.2439 44.6494C59.2496 44.2317 59.1875 44.2769 59.6109 44.2035C60.1076 44.1131 60.5987 44.0285 61.1407 43.9325ZM23.3695 38.4794C22.5453 36.3173 21.6195 34.206 20.547 32.1456C19.5534 34.223 18.718 36.3512 17.8938 38.485C18.4978 38.6713 22.7203 38.6769 23.3695 38.4794ZM34.4395 36.5657C34.4395 34.1948 34.4395 31.8182 34.4338 29.4473C34.4338 29.3626 34.383 29.2102 34.3605 29.2102C34.1911 29.2158 34.2645 29.3626 34.2645 29.4473C34.2588 34.1948 34.2588 38.9366 34.2645 43.6841C34.2645 43.7688 34.1967 43.9156 34.3605 43.9212C34.383 43.9212 34.4338 43.7688 34.4338 43.6841C34.4395 41.3132 34.4395 38.9423 34.4395 36.5657ZM52.8424 36.5657C52.8424 34.1948 52.8424 31.8182 52.8368 29.4473C52.8368 29.3626 52.786 29.2102 52.7634 29.2102C52.594 29.2158 52.6674 29.3626 52.6674 29.4473C52.6618 34.1948 52.6618 38.9366 52.6674 43.6841C52.6674 43.7688 52.5997 43.9156 52.7634 43.9212C52.786 43.9212 52.8368 43.7688 52.8368 43.6841C52.8424 41.3132 52.8424 38.9423 52.8424 36.5657ZM26.6436 43.8704C26.6662 43.8591 26.6888 43.8535 26.7114 43.8422C24.8485 39.3769 22.98 34.906 21.1171 30.4408C21.0945 30.4521 21.0663 30.4634 21.0437 30.4746C22.9066 34.9343 24.7751 39.4052 26.6436 43.8704ZM37.6741 35.798C37.6572 35.8092 37.6459 35.8262 37.6289 35.8375C37.7814 36.1367 44.1942 43.8817 44.3522 43.8873C42.1281 41.1946 39.8983 38.4963 37.6741 35.798ZM62.6705 43.9551C62.6987 43.9325 62.7213 43.9099 62.7495 43.8873C60.5254 41.189 58.2956 38.4963 56.0714 35.798C56.0488 35.8149 56.0262 35.8375 56.0037 35.8544C58.2278 38.5584 60.452 41.2567 62.6705 43.9551Z" fill="white"/>
<path d="M65.2959 48.7699C65.2959 49.1482 65.2789 49.4925 65.3015 49.8425C65.3354 50.3223 65.3467 50.3223 65.8209 50.407C65.8999 50.424 65.9789 50.4352 66.058 50.4522C66.0636 50.4691 66.0693 50.4917 66.0749 50.5086C66.0184 50.5369 65.9563 50.5933 65.8999 50.5933C65.2338 50.5989 64.5677 50.5989 63.9015 50.5933C63.862 50.5933 63.8225 50.5538 63.783 50.5312C63.8169 50.4973 63.8507 50.4352 63.8903 50.424C64.037 50.3901 64.1838 50.3619 64.3306 50.3506C64.4435 50.3393 64.4886 50.2885 64.4886 50.1756C64.5056 49.199 64.5281 48.228 64.5394 47.2514C64.5394 47.0595 64.5281 46.8619 64.4943 46.6756C64.483 46.6135 64.4096 46.5401 64.3475 46.5232C64.0144 46.416 63.6814 46.4668 63.354 46.5458C63.2975 46.5571 63.2241 46.6418 63.2185 46.6982C63.1846 47.0708 63.1564 47.4434 63.1507 47.8216C63.1395 48.2845 63.1508 48.753 63.1451 49.2159C63.1338 50.0232 62.8008 50.4352 62.0048 50.582C61.4516 50.6836 60.8984 50.6723 60.3508 50.5256C59.7411 50.3562 59.4363 49.9554 59.4306 49.3232C59.4194 48.5329 59.4081 47.7482 59.3968 46.9579C59.3911 46.574 59.3855 46.574 59.0186 46.5063C58.9678 46.495 58.9113 46.5006 58.8661 46.478C58.8323 46.4611 58.8097 46.416 58.7871 46.3877C58.8153 46.3651 58.8379 46.3369 58.8718 46.32C58.8887 46.3087 58.9113 46.3143 58.9282 46.3143C59.5548 46.3143 60.1814 46.3143 60.808 46.32C60.8588 46.32 60.9097 46.3708 60.9548 46.399C60.904 46.4272 60.8589 46.478 60.8024 46.4837C60.1814 46.5684 60.1702 46.5684 60.1589 47.195C60.1419 47.9119 60.1137 48.6288 60.1419 49.3457C60.1645 49.9554 60.5089 50.2602 61.1242 50.3054C61.2597 50.3167 61.3951 50.3167 61.5306 50.2998C62.129 50.2094 62.4282 49.9159 62.4395 49.2667C62.4564 48.42 62.4056 47.5732 62.3887 46.7321C62.3887 46.6079 62.3266 46.5627 62.2137 46.5458C62.0725 46.5289 61.9314 46.5176 61.7903 46.4893C61.7338 46.478 61.683 46.4272 61.6322 46.3934C61.683 46.3708 61.7395 46.3256 61.7903 46.3256C62.3096 46.32 62.8233 46.3256 63.3427 46.32C64.1951 46.3087 65.0475 46.2918 65.8999 46.2861C66.0749 46.2861 66.2499 46.3031 66.4192 46.3369C67.4805 46.5514 67.5313 47.7538 67.0628 48.2958C66.662 48.7587 66.1483 48.8659 65.5725 48.8095C65.4935 48.7925 65.4031 48.7812 65.2959 48.7699ZM65.262 47.7764C65.2677 47.7764 65.2677 47.7764 65.2733 47.7764C65.2733 47.8837 65.2733 47.9966 65.2733 48.1038C65.2733 48.674 65.2789 48.6796 65.8434 48.5611C66.4192 48.4369 66.7128 48.0022 66.6055 47.4377C66.4926 46.845 66.0523 46.5232 65.4822 46.6079C65.3693 46.6248 65.3128 46.6756 65.3128 46.7942C65.3015 47.1216 65.2789 47.449 65.262 47.7764ZM62.637 49.7014C62.7274 49.532 62.8008 46.8901 62.6935 46.6079C62.6766 46.6079 62.6596 46.6079 62.637 46.6079C62.637 47.6522 62.637 48.7079 62.637 49.7014ZM64.7822 50.2715C64.7935 50.2715 64.8048 50.2715 64.8104 50.2715C64.8104 49.0466 64.8104 47.8272 64.8104 46.6022C64.7991 46.6022 64.7878 46.6022 64.7822 46.6022C64.7822 47.8272 64.7822 49.0466 64.7822 50.2715ZM59.6677 46.6022C59.6621 46.6192 59.6508 46.6361 59.6508 46.653C59.6508 47.5845 59.6452 48.5103 59.6565 49.4417C59.6565 49.5885 59.7355 49.7353 59.7806 49.8764C59.5944 48.7812 59.775 47.6861 59.6677 46.6022ZM66.8313 48.0022C67.0063 47.6917 66.9217 47.0821 66.6846 46.9071C66.7297 47.0764 66.8031 47.2514 66.8257 47.4321C66.8483 47.624 66.8313 47.8159 66.8313 48.0022Z" fill="white"/>
<path d="M48.7947 46.315C49.6245 46.315 50.4487 46.3093 51.2785 46.315C51.8938 46.3206 52.3737 46.6537 52.5656 47.173C52.7463 47.6698 52.5769 48.1553 52.1197 48.4262C52.0688 48.4544 52.0237 48.4883 51.9955 48.4996C52.3511 48.9964 52.6955 49.4875 53.0398 49.973C53.1866 50.1818 53.3503 50.3681 53.6212 50.4246C53.6551 50.4302 53.6777 50.481 53.7003 50.5093C53.6664 50.5375 53.6382 50.5826 53.6043 50.5826C53.068 50.6222 52.5713 50.5826 52.2382 50.0633C52.0011 49.6851 51.7301 49.3294 51.4705 48.9681C51.3237 48.7649 51.1261 48.669 50.8721 48.6859C50.7535 48.6915 50.6858 48.7311 50.6858 48.8552C50.6971 49.2956 50.714 49.7302 50.731 50.1705C50.7366 50.2778 50.7874 50.3455 50.9116 50.3512C51.0414 50.3568 51.1713 50.3794 51.2955 50.4133C51.3519 50.4246 51.3971 50.481 51.4479 50.5149C51.3914 50.5375 51.3293 50.5826 51.2729 50.5883C51.081 50.5996 50.8834 50.5939 50.6914 50.5939C50.2624 50.5939 49.839 50.5996 49.41 50.5883C49.3536 50.5883 49.2915 50.5375 49.235 50.5149C49.2858 50.481 49.3423 50.4472 49.3931 50.4133C49.4157 50.402 49.4439 50.402 49.4665 50.3964C49.8955 50.323 49.935 50.323 49.9407 49.8939C49.9576 48.8496 49.935 47.8053 49.935 46.7553C49.935 46.5916 49.8447 46.5521 49.7149 46.5238C49.4044 46.4617 49.0939 46.3996 48.7891 46.3319C48.7891 46.3319 48.7891 46.3263 48.7947 46.315ZM50.6745 47.7206C50.6802 47.7206 50.6802 47.7206 50.6858 47.7206C50.6858 47.8222 50.6858 47.9295 50.6858 48.0311C50.6858 48.4319 50.6858 48.4375 51.0866 48.4093C51.4197 48.3867 51.7076 48.2738 51.8374 47.9295C52.0632 47.3198 51.606 46.6537 50.9568 46.6311C50.81 46.6254 50.7253 46.6706 50.7197 46.8343C50.714 47.1279 50.6914 47.4214 50.6745 47.7206ZM50.2116 50.2778C50.2286 50.2778 50.2398 50.2778 50.2568 50.2778C50.2568 49.0641 50.2568 47.8448 50.2568 46.6311C50.2398 46.6311 50.2286 46.6311 50.2116 46.6311C50.2116 47.8504 50.2116 49.0641 50.2116 50.2778Z" fill="white"/>
<path d="M53.8809 48.6406C53.8865 47.3535 54.7107 46.4108 55.7945 46.2809C56.105 46.2414 56.4268 46.2414 56.7373 46.2866C57.8776 46.439 58.73 47.5511 58.6001 48.6914C58.4929 49.6398 57.7026 50.4583 56.7486 50.5994C55.9865 50.7123 55.2752 50.6051 54.6712 50.097C54.1462 49.6623 53.8921 49.1035 53.8809 48.6406ZM54.6317 48.4261C54.6429 48.4317 54.6486 48.4317 54.6599 48.4374C54.6768 48.6124 54.6881 48.7817 54.7163 48.9567C54.8575 49.7301 55.4784 50.2946 56.1953 50.3115C56.9518 50.3285 57.5897 49.826 57.7364 49.0301C57.8042 48.6688 57.7929 48.2849 57.7534 47.918C57.6687 47.1954 57.0986 46.6535 56.4042 46.5745C55.7155 46.4954 55.0833 46.885 54.8292 47.5737C54.7276 47.839 54.6994 48.1382 54.6317 48.4261ZM58.0131 47.6301C58.0131 48.1325 58.0131 48.6406 58.0131 49.1486C58.205 48.6406 58.1768 48.1325 58.0131 47.6301ZM54.2478 48.9906C54.2478 48.5785 54.2478 48.1664 54.2478 47.7712C54.0897 48.1607 54.0841 48.5728 54.2478 48.9906Z" fill="white"/>
<path d="M48.23 48.8776C48.5066 48.8776 48.7889 48.8719 49.0655 48.8832C49.1219 48.8832 49.1784 48.934 49.2405 48.9622C49.1953 48.9961 49.1502 49.0469 49.0994 49.0639C48.7607 49.1655 48.7607 49.1655 48.7437 49.5211C48.7324 49.7187 48.7268 49.9219 48.7042 50.1195C48.6986 50.1816 48.6421 50.2663 48.5857 50.2888C47.8744 50.588 47.1462 50.7461 46.3728 50.5767C45.3623 50.3566 44.7075 49.555 44.6906 48.5332C44.6793 47.4832 45.3567 46.5574 46.3333 46.3316C46.6268 46.2639 46.9317 46.2583 47.2365 46.2526C47.6317 46.247 48.0268 46.2808 48.4163 46.2808C48.5631 46.2808 48.6252 46.326 48.6252 46.4841C48.6252 46.7212 48.6478 46.9639 48.6534 47.201C48.6534 47.2461 48.6082 47.2969 48.5857 47.3421C48.5462 47.3082 48.4897 47.28 48.4728 47.2349C48.422 47.0994 48.3994 46.9582 48.3486 46.8284C48.326 46.7663 48.2583 46.6873 48.2018 46.676C47.7107 46.5687 47.2196 46.5179 46.7228 46.6365C45.6559 46.9018 45.3849 47.9236 45.4978 48.6348C45.6728 49.7751 46.6946 50.4525 47.8179 50.1816C47.88 50.1646 47.9704 50.0687 47.976 50.0066C47.9929 49.7638 47.9929 49.5155 47.976 49.2727C47.9704 49.2219 47.897 49.1429 47.8405 49.1316C47.6768 49.0921 47.5075 49.0808 47.3438 49.0469C47.2986 49.0356 47.2591 48.9848 47.2196 48.9566C47.2647 48.9284 47.3099 48.8832 47.355 48.8832C47.6486 48.8719 47.9365 48.8776 48.23 48.8776ZM45.0575 47.9631C44.7865 48.4768 45.0631 49.4872 45.4244 49.6848C45.0406 49.1485 44.9841 48.584 45.0575 47.9631Z" fill="white"/>
<path d="M79 1H1V79H79V1Z" stroke="white" stroke-width="2"/>
</svg>
