<svg width="28" height="28" viewBox="0 0 28 28" fill="none" xmlns="http://www.w3.org/2000/svg">
<path fill-rule="evenodd" clip-rule="evenodd" d="M14 0C6.26801 0 0 6.26801 0 14C0 21.732 6.26801 28 14 28C21.732 28 28 21.732 28 14C28 6.26801 21.732 0 14 0ZM5.83333 13.9768C5.83333 9.48649 9.49681 5.83333 13.9999 5.83333C18.503 5.83333 22.1665 9.48649 22.1665 13.9768C22.1665 14.613 22.1134 15.1279 21.9944 15.6448L21.9927 15.6534C21.9924 15.6549 21.9334 15.8932 21.9008 15.9972C21.699 16.6408 21.3335 17.177 20.8439 17.5475C20.3692 17.907 19.7805 18.105 19.1864 18.105C19.113 18.105 19.0391 18.102 18.9668 18.0962C18.1231 18.0287 17.3813 17.586 16.9265 16.8801C16.1442 17.6645 15.1062 18.096 13.9999 18.096C11.7222 18.096 9.86908 16.2482 9.86908 13.9768C9.86908 11.7055 11.7222 9.85771 13.9999 9.85771C16.2776 9.85771 18.1307 11.7055 18.1307 13.9768V15.3047C18.1341 16.0794 18.6555 16.3962 19.1009 16.432C19.5441 16.4661 20.1338 16.2087 20.3393 15.3685C20.4406 14.9078 20.4921 14.4394 20.4921 13.9768C20.4921 10.4071 17.5797 7.50291 13.9999 7.50291C10.42 7.50291 7.50767 10.4071 7.50767 13.9768C7.50767 17.5466 10.42 20.4508 13.9999 20.4508C15.246 20.4508 16.4579 20.0959 17.5046 19.4245L17.5234 19.4124L18.6236 20.6879L18.6 20.704C17.2404 21.6306 15.6497 22.1204 13.9999 22.1204C9.49681 22.1204 5.83333 18.4672 5.83333 13.9768Z" fill="#243247"/>
<path fill-rule="evenodd" clip-rule="evenodd" d="M16.4563 13.9768C16.4563 15.3275 15.3544 16.4264 13.9999 16.4264C12.6454 16.4264 11.5434 15.3275 11.5434 13.9768C11.5434 12.6262 12.6454 11.5273 13.9999 11.5273C15.3544 11.5273 16.4563 12.6262 16.4563 13.9768Z" fill="#243247"/>
</svg>
