<svg width="28" height="28" viewBox="0 0 28 28" fill="none" xmlns="http://www.w3.org/2000/svg">
<circle cx="14" cy="14" r="14" fill="#243247"/>
<path d="M18.0195 10.1602C18.0195 8.00599 16.2711 6.22656 14.123 6.22656C11.9778 6.22656 10.2266 8.00351 10.2266 10.1602C10.2266 12.3087 11.9745 14.0566 14.123 14.0566C16.2716 14.0566 18.0195 12.3087 18.0195 10.1602ZM11.3398 10.1602C11.3398 8.60501 12.5884 7.33984 14.123 7.33984C15.6577 7.33984 16.9062 8.60501 16.9062 10.1602C16.9062 11.6948 15.6577 12.9434 14.123 12.9434C12.5884 12.9434 11.3398 11.6948 11.3398 10.1602Z" fill="white"/>
<path d="M20.2461 10.1602C20.2461 6.78276 17.5044 4 14.123 4C10.9311 4 8 6.55008 8 10.1602C8 12.411 10.2038 15.8123 11.5123 17.6813C10.0577 17.9736 8 18.7286 8 20.2168C8 22.345 11.9641 23 14.123 23C16.2822 23 20.2461 22.345 20.2461 20.2168C20.2461 18.7285 18.1882 17.9736 16.7338 17.6813C18.0356 15.8219 20.2461 12.4136 20.2461 10.1602ZM9.11328 10.1602C9.11328 7.04286 11.7137 5.11328 14.123 5.11328C16.8854 5.11328 19.1328 7.37729 19.1328 10.1602C19.1328 12.5175 15.8389 17.1643 14.123 19.3316C12.407 17.1647 9.11328 12.5189 9.11328 10.1602ZM19.1328 20.2168C19.1328 21.1468 16.4067 21.8867 14.123 21.8867C11.8424 21.8867 9.11328 21.1462 9.11328 20.2168C9.11328 19.7737 10.1077 19.0057 12.2334 18.6848C13.0453 19.7866 13.6564 20.526 13.6945 20.572C13.8002 20.6996 13.9573 20.7734 14.123 20.7734C14.2888 20.7734 14.4459 20.6996 14.5516 20.572C14.5897 20.526 15.2008 19.7866 16.0127 18.6848C18.1384 19.0057 19.1328 19.7737 19.1328 20.2168Z" fill="white"/>
</svg>
