<svg width="28" height="28" viewBox="0 0 28 28" fill="none" xmlns="http://www.w3.org/2000/svg">
<circle cx="14" cy="14" r="14" fill="#243247"/>
<path d="M19.2126 16.1502C18.8441 15.7665 18.3996 15.5614 17.9285 15.5614C17.4612 15.5614 17.013 15.7627 16.6293 16.1464L15.4288 17.3431C15.33 17.2899 15.2312 17.2405 15.1362 17.1912C14.9995 17.1228 14.8703 17.0582 14.7601 16.9898C13.6356 16.2756 12.6137 15.3448 11.6335 14.1405C11.1587 13.5403 10.8395 13.035 10.6078 12.5222C10.9193 12.2372 11.208 11.9409 11.4892 11.656C11.5955 11.5496 11.7019 11.4394 11.8083 11.3331C12.6061 10.5353 12.6061 9.50193 11.8083 8.70413L10.7712 7.667C10.6534 7.54923 10.5318 7.42766 10.4178 7.30609C10.1899 7.07055 9.95057 6.82741 9.70363 6.59947C9.33512 6.23477 8.89444 6.04102 8.43096 6.04102C7.96747 6.04102 7.51919 6.23477 7.13929 6.59947C7.13549 6.60327 7.13549 6.60327 7.13169 6.60707L5.84002 7.91014C5.35375 8.39641 5.07642 8.98906 5.01563 9.67668C4.92446 10.786 5.25117 11.8193 5.50191 12.4956C6.11735 14.1557 7.03671 15.6943 8.40816 17.3431C10.0721 19.33 12.0742 20.899 14.3612 22.0045C15.235 22.4186 16.4013 22.9087 17.7044 22.9923C17.7842 22.9961 17.8677 22.9999 17.9437 22.9999C18.8213 22.9999 19.5583 22.6845 20.1358 22.0577C20.1396 22.0501 20.1471 22.0463 20.1509 22.0387C20.3485 21.7994 20.5764 21.5828 20.8158 21.3511C20.9791 21.1953 21.1463 21.032 21.3096 20.861C21.6858 20.4697 21.8833 20.0138 21.8833 19.5465C21.8833 19.0755 21.682 18.6234 21.2983 18.2435L19.2126 16.1502ZM20.5726 20.1506C20.5688 20.1506 20.5688 20.1544 20.5726 20.1506C20.4245 20.3102 20.2725 20.4545 20.1092 20.6141C19.8622 20.8496 19.6115 21.0965 19.3759 21.3739C18.9922 21.7842 18.5402 21.9779 17.9475 21.9779C17.8905 21.9779 17.8297 21.9779 17.7728 21.9741C16.6444 21.9019 15.5959 21.4613 14.8095 21.0852C12.6593 20.0442 10.7712 18.5664 9.20216 16.6935C7.90669 15.1321 7.04051 13.6885 6.46686 12.1385C6.11355 11.1925 5.98438 10.4555 6.04137 9.76026C6.07936 9.31577 6.25032 8.94727 6.56563 8.63195L7.8611 7.33648C8.04725 7.16173 8.2448 7.06675 8.43855 7.06675C8.67789 7.06675 8.87164 7.21112 8.99321 7.33268C8.99701 7.33648 9.00081 7.34028 9.00461 7.34408C9.23635 7.56063 9.45669 7.78477 9.68843 8.02411C9.8062 8.14568 9.92777 8.26724 10.0493 8.39261L11.0865 9.42975C11.4892 9.83244 11.4892 10.2047 11.0865 10.6074C10.9763 10.7176 10.8699 10.8278 10.7598 10.9342C10.4406 11.2609 10.1367 11.5648 9.8062 11.8611C9.7986 11.8687 9.79101 11.8725 9.78721 11.8801C9.46049 12.2068 9.52128 12.526 9.58966 12.7425C9.59346 12.7539 9.59726 12.7653 9.60106 12.7767C9.87079 13.4301 10.2507 14.0456 10.8281 14.7788L10.8319 14.7826C11.8805 16.0742 12.986 17.081 14.2055 17.8522C14.3612 17.951 14.5208 18.0307 14.6728 18.1067C14.8095 18.1751 14.9387 18.2397 15.0489 18.3081C15.0641 18.3157 15.0792 18.3271 15.0944 18.3347C15.2236 18.3992 15.3452 18.4296 15.4705 18.4296C15.7859 18.4296 15.9834 18.2321 16.048 18.1675L17.3473 16.8682C17.4764 16.7391 17.6816 16.5833 17.9209 16.5833C18.1565 16.5833 18.3502 16.7315 18.468 16.8606C18.4718 16.8644 18.4718 16.8644 18.4756 16.8682L20.5688 18.9615C20.9601 19.349 20.9601 19.7479 20.5726 20.1506Z" fill="white"/>
<path d="M14.7146 9.28157C15.71 9.44872 16.6141 9.9198 17.336 10.6416C18.0578 11.3634 18.5251 12.2676 18.696 13.2629C18.7378 13.5137 18.9543 13.6884 19.2013 13.6884C19.2317 13.6884 19.2583 13.6846 19.2887 13.6808C19.5698 13.6352 19.7559 13.3693 19.7104 13.0882C19.5052 11.8839 18.9354 10.786 18.0654 9.916C17.1954 9.04603 16.0975 8.47617 14.8932 8.27103C14.6121 8.22544 14.3499 8.41159 14.3005 8.68892C14.2512 8.96625 14.4335 9.23598 14.7146 9.28157Z" fill="white"/>
<path d="M22.9658 12.9402C22.6277 10.9571 21.6931 9.15255 20.2571 7.71652C18.8211 6.28049 17.0165 5.34593 15.0335 5.00782C14.7561 4.95843 14.494 5.14838 14.4446 5.42571C14.399 5.70684 14.5852 5.96897 14.8663 6.01836C16.6366 6.31848 18.2512 7.15807 19.5353 8.43834C20.8194 9.72241 21.6552 11.337 21.9553 13.1073C21.9971 13.3581 22.2136 13.5328 22.4605 13.5328C22.4909 13.5328 22.5175 13.529 22.5479 13.5252C22.8253 13.4834 23.0152 13.2175 22.9658 12.9402Z" fill="white"/>
</svg>
