<svg width="28" height="28" viewBox="0 0 28 28" fill="none" xmlns="http://www.w3.org/2000/svg">
<path fill-rule="evenodd" clip-rule="evenodd" d="M28 14C28 21.732 21.732 28 14 28C6.26803 28 0 21.732 0 14C0 6.26803 6.26803 0 14 0C21.732 0 28 6.26803 28 14ZM9.37504 12.7175C7.97259 13.3299 6.53164 13.959 5.21398 14.6848C4.52595 15.1886 5.44039 15.545 6.29831 15.8792C6.43469 15.9324 6.56962 15.9849 6.69649 16.0374C6.80207 16.0699 6.90941 16.1041 7.0182 16.1387C7.97236 16.4427 9.03624 16.7817 9.96257 16.2718C11.4843 15.3977 12.9203 14.3871 14.3552 13.3773C14.8253 13.0464 15.2953 12.7157 15.7681 12.3898C15.7903 12.3756 15.8153 12.3594 15.8426 12.3418C16.2454 12.0806 17.1514 11.4934 16.8163 12.3026C16.0239 13.1692 15.1751 13.9362 14.3217 14.7076C13.7465 15.2274 13.1693 15.7491 12.6058 16.3045C12.115 16.7032 11.6054 17.5051 12.1549 18.0636C13.4207 18.9496 14.7062 19.8143 15.991 20.6784C16.4091 20.9596 16.8272 21.2407 17.2444 21.5226C17.9515 22.0872 19.0566 21.6305 19.2121 20.7483C19.2812 20.3425 19.3506 19.9367 19.42 19.5309C19.8036 17.2881 20.1874 15.0446 20.5263 12.7945C20.5724 12.4416 20.6246 12.0886 20.6769 11.7356C20.8035 10.8797 20.9303 10.0229 20.97 9.16247C20.8679 8.30381 19.8267 8.49263 19.2474 8.68572C16.2693 9.8189 13.3211 11.0361 10.3844 12.2747C10.0518 12.4221 9.71454 12.5693 9.37504 12.7175Z" fill="#243247"/>
</svg>
