<svg width="28" height="28" viewBox="0 0 28 28" fill="none" xmlns="http://www.w3.org/2000/svg">
<path fill-rule="evenodd" clip-rule="evenodd" d="M14 28C6.26801 28 0 21.732 0 14C0 6.26801 6.26801 0 14 0C21.732 0 28 6.26801 28 14C28 21.732 21.732 28 14 28ZM14.4615 21.789C19.0514 21.7871 22.7844 18.0532 22.7862 13.4642C22.7871 11.2399 21.922 9.14831 20.3503 7.57482C18.7786 6.00125 16.6884 5.13429 14.4614 5.13333C9.87281 5.13333 6.13829 8.86765 6.13646 13.4576C6.13584 14.9249 6.51918 16.357 7.24769 17.6195L6.06667 21.9333L10.4798 20.7757C11.6957 21.4389 13.0647 21.7885 14.458 21.789H14.4615Z" fill="#243247"/>
<path fill-rule="evenodd" clip-rule="evenodd" d="M10.6842 19.2687L8.06542 19.9557L8.76442 17.4024L8.5999 17.1406C7.90727 16.039 7.54146 14.7657 7.54199 13.4583C7.54351 9.64328 10.6475 6.53955 14.4642 6.53955C16.3123 6.54019 18.0496 7.26082 19.3559 8.56871C20.6623 9.8766 21.3813 11.615 21.3806 13.4639C21.3791 17.2791 18.2751 20.3832 14.4614 20.3832H14.4586C13.217 20.3827 11.9992 20.0491 10.9369 19.4187L10.6842 19.2687ZM18.6554 15.444C18.6034 15.3572 18.4648 15.3051 18.2568 15.201C18.0488 15.0969 17.0261 14.5937 16.8354 14.5242C16.6448 14.4548 16.506 14.4202 16.3674 14.6283C16.2287 14.8365 15.8301 15.3051 15.7088 15.444C15.5874 15.5827 15.4661 15.6002 15.2581 15.496C15.0501 15.3919 14.3799 15.1723 13.5854 14.4636C12.967 13.912 12.5495 13.2309 12.4282 13.0226C12.3069 12.8144 12.4153 12.7018 12.5194 12.5981C12.613 12.5049 12.7274 12.3551 12.8314 12.2337C12.9354 12.1122 12.9701 12.0254 13.0394 11.8867C13.1087 11.7478 13.0741 11.6264 13.0221 11.5223C12.9701 11.4181 12.5541 10.3943 12.3807 9.97776C12.2119 9.57215 12.0404 9.6271 11.9127 9.62069C11.7915 9.6146 11.6527 9.61332 11.5141 9.61332C11.3754 9.61332 11.15 9.66538 10.9594 9.87363C10.7687 10.0819 10.2314 10.5851 10.2314 11.6089C10.2314 12.6328 10.9767 13.6219 11.0807 13.7607C11.1847 13.8996 12.5475 16.0006 14.6341 16.9016C15.1304 17.1159 15.5178 17.2439 15.8199 17.3397C16.3182 17.4981 16.7717 17.4757 17.1301 17.4222C17.5297 17.3625 18.3607 16.919 18.5342 16.4331C18.7074 15.9472 18.7074 15.5307 18.6554 15.444Z" fill="#243247"/>
</svg>
